<svg width="973" height="299" viewBox="0 0 973 299" fill="none" xmlns="http://www.w3.org/2000/svg">
<g clip-path="url(#clip0_681_1428)">
<rect width="973" height="299" rx="12" fill="#ECC337" fill-opacity="0.1"/>
<circle cx="146.5" cy="149.5" r="98.5" fill="#ECC337" fill-opacity="0.1"/>
<path d="M183.792 186.751C171.667 186.751 155.501 182.709 155.501 154.418V122.084C155.501 117.032 158.556 113.932 163.584 114.001H179.751C184.803 114.001 187.834 117.032 187.834 121.971V146.334C187.834 151.387 184.803 154.418 179.751 154.418C175.709 154.418 175.709 154.418 175.709 158.459V162.501C175.709 166.543 179.751 170.584 183.792 170.584C187.834 170.584 187.834 170.617 187.834 174.751V182.709C187.834 186.751 187.834 186.751 183.792 186.751Z" stroke="#ECC337" stroke-width="2" stroke-linecap="round" stroke-linejoin="round"/>
<path d="M135.292 186.751C123.167 186.751 107.001 182.709 107.001 154.418V122.084C107.001 117.032 110.06 113.932 115.084 114.001H131.251C136.303 114.001 139.334 117.032 139.334 121.971V146.334C139.334 151.387 136.303 154.418 131.251 154.418H128.219C128.219 163.512 127.209 170.584 139.334 170.584V182.709C139.334 186.751 139.334 186.751 135.292 186.751Z" stroke="#ECC337" stroke-width="2" stroke-linecap="round" stroke-linejoin="round"/>
<path d="M287.441 77.9062H292.207V89.7422H305.723V77.9062H310.488V106.5H305.723V93.8242H292.207V106.5H287.441V77.9062ZM316.992 104.137C318.841 106.116 321.348 107.105 324.512 107.105C327.676 107.105 330.182 106.116 332.031 104.137C333.88 102.145 334.805 99.5339 334.805 96.3047C334.805 93.0755 333.88 90.4714 332.031 88.4922C330.182 86.5 327.676 85.5039 324.512 85.5039C321.348 85.5039 318.841 86.5 316.992 88.4922C315.156 90.4714 314.238 93.0755 314.238 96.3047C314.238 99.5339 315.156 102.145 316.992 104.137ZM329.004 101.617C327.949 102.984 326.452 103.668 324.512 103.668C322.572 103.668 321.074 102.984 320.02 101.617C318.965 100.25 318.438 98.4792 318.438 96.3047C318.438 94.1042 318.965 92.3268 320.02 90.9727C321.074 89.6185 322.572 88.9414 324.512 88.9414C326.452 88.9414 327.949 89.625 329.004 90.9922C330.072 92.3464 330.605 94.1172 330.605 96.3047C330.605 98.4792 330.072 100.25 329.004 101.617ZM335.234 86.0508H339.668L343.828 101.578H343.926L348.086 86.0508H352.188L356.387 101.578H356.484L360.605 86.0508H365.039L358.789 106.5H354.551L350.156 90.8945H350.078L345.723 106.5H341.523L335.234 86.0508ZM397.324 85.5039C399.368 85.5039 400.918 86.0964 401.973 87.2812C403.04 88.4661 403.574 90.1654 403.574 92.3789V106.5H399.336V93.5703C399.336 92.0469 399.095 90.9141 398.613 90.1719C398.145 89.4297 397.24 89.0586 395.898 89.0586C394.479 89.0586 393.353 89.5143 392.52 90.4258C391.699 91.3242 391.289 92.5352 391.289 94.0586V106.5H387.051V93.5703C387.051 92.0469 386.81 90.9141 386.328 90.1719C385.859 89.4297 384.941 89.0586 383.574 89.0586C382.181 89.0586 381.061 89.5143 380.215 90.4258C379.382 91.3242 378.965 92.5352 378.965 94.0586V106.5H374.766V86.0508H378.965V88.707H379.062C380.495 86.5716 382.52 85.5039 385.137 85.5039C387.871 85.5039 389.681 86.6758 390.566 89.0195H390.645C392.467 86.6758 394.694 85.5039 397.324 85.5039ZM409.824 82.6133C409.199 82.6133 408.646 82.4115 408.164 82.0078C407.695 81.6042 407.461 81.0638 407.461 80.3867C407.461 79.7096 407.695 79.1758 408.164 78.7852C408.646 78.3815 409.199 78.1797 409.824 78.1797C410.488 78.1797 411.055 78.375 411.523 78.7656C411.992 79.1562 412.227 79.6966 412.227 80.3867C412.227 81.0768 411.986 81.6237 411.504 82.0273C411.035 82.418 410.475 82.6133 409.824 82.6133ZM407.754 86.0508H411.953V106.5H407.754V86.0508ZM430.371 86.0508H434.57V105.094C434.57 107.958 433.757 110.087 432.129 111.48C430.501 112.874 428.197 113.57 425.215 113.57C422.415 113.57 420.182 112.945 418.516 111.695C416.849 110.445 415.898 108.902 415.664 107.066H419.902C420.358 109.163 422.077 110.211 425.059 110.211C426.842 110.211 428.171 109.781 429.043 108.922C429.928 108.076 430.371 106.747 430.371 104.938V102.457H430.293C428.861 104.488 426.797 105.504 424.102 105.504C421.458 105.504 419.303 104.625 417.637 102.867C415.97 101.096 415.137 98.6419 415.137 95.5039C415.137 92.3529 415.97 89.8984 417.637 88.1406C419.303 86.3828 421.458 85.5039 424.102 85.5039C426.771 85.5039 428.835 86.487 430.293 88.4531H430.371V86.0508ZM424.902 102.066C426.621 102.066 427.956 101.507 428.906 100.387C429.857 99.2669 430.332 97.6393 430.332 95.5039C430.332 93.3685 429.857 91.7409 428.906 90.6211C427.956 89.5013 426.621 88.9414 424.902 88.9414C423.118 88.9414 421.745 89.5469 420.781 90.7578C419.818 91.9557 419.336 93.5378 419.336 95.5039C419.336 97.457 419.818 99.0391 420.781 100.25C421.745 101.461 423.118 102.066 424.902 102.066ZM449.492 85.5039C451.536 85.5039 453.19 86.0898 454.453 87.2617C455.729 88.4206 456.367 90.1263 456.367 92.3789V106.5H452.129V93.5703C452.129 90.5625 450.768 89.0586 448.047 89.0586C446.484 89.0586 445.208 89.5143 444.219 90.4258C443.242 91.3372 442.754 92.5482 442.754 94.0586V106.5H438.555V77.9062H442.754V88.707H442.852C443.464 87.7956 444.323 87.0339 445.43 86.4219C446.549 85.8099 447.904 85.5039 449.492 85.5039ZM469.57 89.5078H465.742V100.582C465.742 101.155 465.814 101.617 465.957 101.969C466.1 102.307 466.328 102.561 466.641 102.73C466.953 102.9 467.35 103.004 467.832 103.043C468.314 103.069 468.893 103.062 469.57 103.023V106.461C468.672 106.669 467.715 106.773 466.699 106.773C464.954 106.773 463.646 106.324 462.773 105.426C461.914 104.527 461.484 103.03 461.484 100.934V89.5078H458.535V86.0508H461.484V79.625H465.742V86.0508H469.57V89.5078ZM478.32 86.0508H482.754L486.914 101.578H487.012L491.172 86.0508H495.273L499.473 101.578H499.57L503.691 86.0508H508.125L501.875 106.5H497.637L493.242 90.8945H493.164L488.809 106.5H484.609L478.32 86.0508ZM518.73 103.668C519.551 103.668 520.293 103.551 520.957 103.316C521.621 103.082 522.148 102.783 522.539 102.418C522.943 102.053 523.255 101.695 523.477 101.344C523.711 100.979 523.88 100.621 523.984 100.27H528.184C527.637 102.327 526.569 103.98 524.98 105.23C523.392 106.48 521.348 107.105 518.848 107.105C515.697 107.105 513.203 106.116 511.367 104.137C509.531 102.158 508.613 99.5469 508.613 96.3047C508.613 92.9844 509.518 90.3542 511.328 88.4141C513.138 86.474 515.579 85.5039 518.652 85.5039C521.882 85.5039 524.329 86.5521 525.996 88.6484C527.663 90.7448 528.496 93.6549 528.496 97.3789H512.812C512.812 99.1628 513.346 100.66 514.414 101.871C515.495 103.069 516.934 103.668 518.73 103.668ZM518.652 88.8242C516.947 88.8242 515.547 89.3385 514.453 90.3672C513.359 91.3828 512.812 92.6784 512.812 94.2539H524.297C524.297 92.6654 523.776 91.3633 522.734 90.3477C521.706 89.332 520.345 88.8242 518.652 88.8242ZM561.543 85.5039C563.587 85.5039 565.137 86.0964 566.191 87.2812C567.259 88.4661 567.793 90.1654 567.793 92.3789V106.5H563.555V93.5703C563.555 92.0469 563.314 90.9141 562.832 90.1719C562.363 89.4297 561.458 89.0586 560.117 89.0586C558.698 89.0586 557.572 89.5143 556.738 90.4258C555.918 91.3242 555.508 92.5352 555.508 94.0586V106.5H551.27V93.5703C551.27 92.0469 551.029 90.9141 550.547 90.1719C550.078 89.4297 549.16 89.0586 547.793 89.0586C546.4 89.0586 545.28 89.5143 544.434 90.4258C543.6 91.3242 543.184 92.5352 543.184 94.0586V106.5H538.984V86.0508H543.184V88.707H543.281C544.714 86.5716 546.738 85.5039 549.355 85.5039C552.09 85.5039 553.9 86.6758 554.785 89.0195H554.863C556.686 86.6758 558.913 85.5039 561.543 85.5039ZM584.043 91.4219C584.043 89.6901 582.819 88.8242 580.371 88.8242C578.704 88.8242 577.513 89.1042 576.797 89.6641C576.081 90.224 575.671 91.168 575.566 92.4961H571.484C571.589 90.3867 572.363 88.694 573.809 87.418C575.267 86.1419 577.454 85.5039 580.371 85.5039C585.618 85.5039 588.242 87.8867 588.242 92.6523V102.379C588.242 103.16 588.372 103.72 588.633 104.059C588.906 104.384 589.434 104.508 590.215 104.43V106.422C589.434 106.708 588.62 106.852 587.773 106.852C586.654 106.852 585.807 106.637 585.234 106.207C584.661 105.777 584.277 105.061 584.082 104.059H584.004C583.327 104.996 582.409 105.738 581.25 106.285C580.104 106.832 578.77 107.105 577.246 107.105C575.189 107.105 573.555 106.572 572.344 105.504C571.133 104.423 570.527 103.01 570.527 101.266C570.527 100.393 570.658 99.6185 570.918 98.9414C571.191 98.2513 571.556 97.6719 572.012 97.2031C572.467 96.7214 573.06 96.2982 573.789 95.9336C574.531 95.569 575.299 95.276 576.094 95.0547C576.901 94.8203 577.858 94.5924 578.965 94.3711C579.525 94.2669 579.954 94.1823 580.254 94.1172C580.553 94.0521 580.911 93.9674 581.328 93.8633C581.758 93.7591 582.083 93.6615 582.305 93.5703C582.526 93.4792 582.767 93.362 583.027 93.2188C583.288 93.0755 583.477 92.9258 583.594 92.7695C583.724 92.6003 583.828 92.4049 583.906 92.1836C583.997 91.9492 584.043 91.6953 584.043 91.4219ZM578.164 103.785C579.948 103.785 581.374 103.349 582.441 102.477C583.509 101.604 584.043 100.361 584.043 98.7461V95.6602C583.379 96.1289 581.953 96.5846 579.766 97.0273C577.982 97.418 576.699 97.8997 575.918 98.4727C575.15 99.0456 574.766 99.8398 574.766 100.855C574.766 102.809 575.898 103.785 578.164 103.785ZM592.656 77.9062H596.855V94.2539L605.176 86.0508H610.352L602.578 93.668L611.191 106.5H606.152L599.707 96.4219L596.855 99.0977V106.5H592.656V77.9062ZM620.84 103.668C621.66 103.668 622.402 103.551 623.066 103.316C623.73 103.082 624.258 102.783 624.648 102.418C625.052 102.053 625.365 101.695 625.586 101.344C625.82 100.979 625.99 100.621 626.094 100.27H630.293C629.746 102.327 628.678 103.98 627.09 105.23C625.501 106.48 623.457 107.105 620.957 107.105C617.806 107.105 615.312 106.116 613.477 104.137C611.641 102.158 610.723 99.5469 610.723 96.3047C610.723 92.9844 611.628 90.3542 613.438 88.4141C615.247 86.474 617.689 85.5039 620.762 85.5039C623.991 85.5039 626.439 86.5521 628.105 88.6484C629.772 90.7448 630.605 93.6549 630.605 97.3789H614.922C614.922 99.1628 615.456 100.66 616.523 101.871C617.604 103.069 619.043 103.668 620.84 103.668ZM620.762 88.8242C619.056 88.8242 617.656 89.3385 616.562 90.3672C615.469 91.3828 614.922 92.6784 614.922 94.2539H626.406C626.406 92.6654 625.885 91.3633 624.844 90.3477C623.815 89.332 622.454 88.8242 620.762 88.8242ZM663.652 85.5039C665.697 85.5039 667.246 86.0964 668.301 87.2812C669.368 88.4661 669.902 90.1654 669.902 92.3789V106.5H665.664V93.5703C665.664 92.0469 665.423 90.9141 664.941 90.1719C664.473 89.4297 663.568 89.0586 662.227 89.0586C660.807 89.0586 659.681 89.5143 658.848 90.4258C658.027 91.3242 657.617 92.5352 657.617 94.0586V106.5H653.379V93.5703C653.379 92.0469 653.138 90.9141 652.656 90.1719C652.188 89.4297 651.27 89.0586 649.902 89.0586C648.509 89.0586 647.389 89.5143 646.543 90.4258C645.71 91.3242 645.293 92.5352 645.293 94.0586V106.5H641.094V86.0508H645.293V88.707H645.391C646.823 86.5716 648.848 85.5039 651.465 85.5039C654.199 85.5039 656.009 86.6758 656.895 89.0195H656.973C658.796 86.6758 661.022 85.5039 663.652 85.5039ZM686.152 91.4219C686.152 89.6901 684.928 88.8242 682.48 88.8242C680.814 88.8242 679.622 89.1042 678.906 89.6641C678.19 90.224 677.78 91.168 677.676 92.4961H673.594C673.698 90.3867 674.473 88.694 675.918 87.418C677.376 86.1419 679.564 85.5039 682.48 85.5039C687.728 85.5039 690.352 87.8867 690.352 92.6523V102.379C690.352 103.16 690.482 103.72 690.742 104.059C691.016 104.384 691.543 104.508 692.324 104.43V106.422C691.543 106.708 690.729 106.852 689.883 106.852C688.763 106.852 687.917 106.637 687.344 106.207C686.771 105.777 686.387 105.061 686.191 104.059H686.113C685.436 104.996 684.518 105.738 683.359 106.285C682.214 106.832 680.879 107.105 679.355 107.105C677.298 107.105 675.664 106.572 674.453 105.504C673.242 104.423 672.637 103.01 672.637 101.266C672.637 100.393 672.767 99.6185 673.027 98.9414C673.301 98.2513 673.665 97.6719 674.121 97.2031C674.577 96.7214 675.169 96.2982 675.898 95.9336C676.641 95.569 677.409 95.276 678.203 95.0547C679.01 94.8203 679.967 94.5924 681.074 94.3711C681.634 94.2669 682.064 94.1823 682.363 94.1172C682.663 94.0521 683.021 93.9674 683.438 93.8633C683.867 93.7591 684.193 93.6615 684.414 93.5703C684.635 93.4792 684.876 93.362 685.137 93.2188C685.397 93.0755 685.586 92.9258 685.703 92.7695C685.833 92.6003 685.938 92.4049 686.016 92.1836C686.107 91.9492 686.152 91.6953 686.152 91.4219ZM680.273 103.785C682.057 103.785 683.483 103.349 684.551 102.477C685.618 101.604 686.152 100.361 686.152 98.7461V95.6602C685.488 96.1289 684.062 96.5846 681.875 97.0273C680.091 97.418 678.809 97.8997 678.027 98.4727C677.259 99.0456 676.875 99.8398 676.875 100.855C676.875 102.809 678.008 103.785 680.273 103.785ZM705.781 85.5039C707.786 85.5039 709.421 86.0898 710.684 87.2617C711.947 88.4206 712.578 90.1263 712.578 92.3789V106.5H708.34V93.5703C708.34 90.5625 706.992 89.0586 704.297 89.0586C702.669 89.0586 701.374 89.5143 700.41 90.4258C699.447 91.3242 698.965 92.5352 698.965 94.0586V106.5H694.766V86.0508H698.965V88.707H699.062C699.674 87.7956 700.54 87.0339 701.66 86.4219C702.793 85.8099 704.167 85.5039 705.781 85.5039ZM728.77 91.4219C728.77 89.6901 727.546 88.8242 725.098 88.8242C723.431 88.8242 722.24 89.1042 721.523 89.6641C720.807 90.224 720.397 91.168 720.293 92.4961H716.211C716.315 90.3867 717.09 88.694 718.535 87.418C719.993 86.1419 722.181 85.5039 725.098 85.5039C730.345 85.5039 732.969 87.8867 732.969 92.6523V102.379C732.969 103.16 733.099 103.72 733.359 104.059C733.633 104.384 734.16 104.508 734.941 104.43V106.422C734.16 106.708 733.346 106.852 732.5 106.852C731.38 106.852 730.534 106.637 729.961 106.207C729.388 105.777 729.004 105.061 728.809 104.059H728.73C728.053 104.996 727.135 105.738 725.977 106.285C724.831 106.832 723.496 107.105 721.973 107.105C719.915 107.105 718.281 106.572 717.07 105.504C715.859 104.423 715.254 103.01 715.254 101.266C715.254 100.393 715.384 99.6185 715.645 98.9414C715.918 98.2513 716.283 97.6719 716.738 97.2031C717.194 96.7214 717.786 96.2982 718.516 95.9336C719.258 95.569 720.026 95.276 720.82 95.0547C721.628 94.8203 722.585 94.5924 723.691 94.3711C724.251 94.2669 724.681 94.1823 724.98 94.1172C725.28 94.0521 725.638 93.9674 726.055 93.8633C726.484 93.7591 726.81 93.6615 727.031 93.5703C727.253 93.4792 727.493 93.362 727.754 93.2188C728.014 93.0755 728.203 92.9258 728.32 92.7695C728.451 92.6003 728.555 92.4049 728.633 92.1836C728.724 91.9492 728.77 91.6953 728.77 91.4219ZM722.891 103.785C724.674 103.785 726.1 103.349 727.168 102.477C728.236 101.604 728.77 100.361 728.77 98.7461V95.6602C728.105 96.1289 726.68 96.5846 724.492 97.0273C722.708 97.418 721.426 97.8997 720.645 98.4727C719.876 99.0456 719.492 99.8398 719.492 100.855C719.492 102.809 720.625 103.785 722.891 103.785ZM751.543 86.0508H755.742V105.094C755.742 107.958 754.928 110.087 753.301 111.48C751.673 112.874 749.368 113.57 746.387 113.57C743.587 113.57 741.354 112.945 739.688 111.695C738.021 110.445 737.07 108.902 736.836 107.066H741.074C741.53 109.163 743.249 110.211 746.23 110.211C748.014 110.211 749.342 109.781 750.215 108.922C751.1 108.076 751.543 106.747 751.543 104.938V102.457H751.465C750.033 104.488 747.969 105.504 745.273 105.504C742.63 105.504 740.475 104.625 738.809 102.867C737.142 101.096 736.309 98.6419 736.309 95.5039C736.309 92.3529 737.142 89.8984 738.809 88.1406C740.475 86.3828 742.63 85.5039 745.273 85.5039C747.943 85.5039 750.007 86.487 751.465 88.4531H751.543V86.0508ZM746.074 102.066C747.793 102.066 749.128 101.507 750.078 100.387C751.029 99.2669 751.504 97.6393 751.504 95.5039C751.504 93.3685 751.029 91.7409 750.078 90.6211C749.128 89.5013 747.793 88.9414 746.074 88.9414C744.29 88.9414 742.917 89.5469 741.953 90.7578C740.99 91.9557 740.508 93.5378 740.508 95.5039C740.508 97.457 740.99 99.0391 741.953 100.25C742.917 101.461 744.29 102.066 746.074 102.066ZM762.09 82.6133C761.465 82.6133 760.911 82.4115 760.43 82.0078C759.961 81.6042 759.727 81.0638 759.727 80.3867C759.727 79.7096 759.961 79.1758 760.43 78.7852C760.911 78.3815 761.465 78.1797 762.09 78.1797C762.754 78.1797 763.32 78.375 763.789 78.7656C764.258 79.1562 764.492 79.6966 764.492 80.3867C764.492 81.0768 764.251 81.6237 763.77 82.0273C763.301 82.418 762.741 82.6133 762.09 82.6133ZM760.02 86.0508H764.219V106.5H760.02V86.0508ZM779.492 85.5039C781.497 85.5039 783.132 86.0898 784.395 87.2617C785.658 88.4206 786.289 90.1263 786.289 92.3789V106.5H782.051V93.5703C782.051 90.5625 780.703 89.0586 778.008 89.0586C776.38 89.0586 775.085 89.5143 774.121 90.4258C773.158 91.3242 772.676 92.5352 772.676 94.0586V106.5H768.477V86.0508H772.676V88.707H772.773C773.385 87.7956 774.251 87.0339 775.371 86.4219C776.504 85.8099 777.878 85.5039 779.492 85.5039ZM804.277 86.0508H808.477V105.094C808.477 107.958 807.663 110.087 806.035 111.48C804.408 112.874 802.103 113.57 799.121 113.57C796.322 113.57 794.089 112.945 792.422 111.695C790.755 110.445 789.805 108.902 789.57 107.066H793.809C794.264 109.163 795.983 110.211 798.965 110.211C800.749 110.211 802.077 109.781 802.949 108.922C803.835 108.076 804.277 106.747 804.277 104.938V102.457H804.199C802.767 104.488 800.703 105.504 798.008 105.504C795.365 105.504 793.21 104.625 791.543 102.867C789.876 101.096 789.043 98.6419 789.043 95.5039C789.043 92.3529 789.876 89.8984 791.543 88.1406C793.21 86.3828 795.365 85.5039 798.008 85.5039C800.677 85.5039 802.741 86.487 804.199 88.4531H804.277V86.0508ZM798.809 102.066C800.527 102.066 801.862 101.507 802.812 100.387C803.763 99.2669 804.238 97.6393 804.238 95.5039C804.238 93.3685 803.763 91.7409 802.812 90.6211C801.862 89.5013 800.527 88.9414 798.809 88.9414C797.025 88.9414 795.651 89.5469 794.688 90.7578C793.724 91.9557 793.242 93.5378 793.242 95.5039C793.242 97.457 793.724 99.0391 794.688 100.25C795.651 101.461 797.025 102.066 798.809 102.066ZM309.551 143.504C311.595 143.504 313.145 144.096 314.199 145.281C315.267 146.466 315.801 148.165 315.801 150.379V164.5H311.562V151.57C311.562 150.047 311.322 148.914 310.84 148.172C310.371 147.43 309.466 147.059 308.125 147.059C306.706 147.059 305.579 147.514 304.746 148.426C303.926 149.324 303.516 150.535 303.516 152.059V164.5H299.277V151.57C299.277 150.047 299.036 148.914 298.555 148.172C298.086 147.43 297.168 147.059 295.801 147.059C294.408 147.059 293.288 147.514 292.441 148.426C291.608 149.324 291.191 150.535 291.191 152.059V164.5H286.992V144.051H291.191V146.707H291.289C292.721 144.572 294.746 143.504 297.363 143.504C300.098 143.504 301.908 144.676 302.793 147.02H302.871C304.694 144.676 306.921 143.504 309.551 143.504ZM333.145 144.051H337.344V164.5H333.145V161.863H333.047C332.435 162.775 331.562 163.536 330.43 164.148C329.31 164.76 327.943 165.066 326.328 165.066C324.323 165.066 322.689 164.48 321.426 163.309C320.163 162.137 319.531 160.424 319.531 158.172V144.051H323.77V156.98C323.77 159.988 325.117 161.492 327.812 161.492C329.44 161.492 330.736 161.043 331.699 160.145C332.663 159.233 333.145 158.016 333.145 156.492V144.051ZM341.406 135.906H345.664V164.5H341.406V135.906ZM359.492 147.508H355.664V158.582C355.664 159.155 355.736 159.617 355.879 159.969C356.022 160.307 356.25 160.561 356.562 160.73C356.875 160.9 357.272 161.004 357.754 161.043C358.236 161.069 358.815 161.062 359.492 161.023V164.461C358.594 164.669 357.637 164.773 356.621 164.773C354.876 164.773 353.568 164.324 352.695 163.426C351.836 162.527 351.406 161.03 351.406 158.934V147.508H348.457V144.051H351.406V137.625H355.664V144.051H359.492V147.508ZM364.902 140.613C364.277 140.613 363.724 140.411 363.242 140.008C362.773 139.604 362.539 139.064 362.539 138.387C362.539 137.71 362.773 137.176 363.242 136.785C363.724 136.382 364.277 136.18 364.902 136.18C365.566 136.18 366.133 136.375 366.602 136.766C367.07 137.156 367.305 137.697 367.305 138.387C367.305 139.077 367.064 139.624 366.582 140.027C366.113 140.418 365.553 140.613 364.902 140.613ZM362.832 144.051H367.031V164.5H362.832V144.051ZM381.895 143.504C384.551 143.504 386.725 144.48 388.418 146.434C390.124 148.387 390.977 151.01 390.977 154.305C390.977 157.599 390.124 160.223 388.418 162.176C386.725 164.129 384.551 165.105 381.895 165.105C380.423 165.105 379.16 164.819 378.105 164.246C377.064 163.66 376.237 162.931 375.625 162.059H375.527V171.453H371.289V144.051H375.527V146.453H375.625C376.25 145.607 377.083 144.904 378.125 144.344C379.167 143.784 380.423 143.504 381.895 143.504ZM381.094 161.668C382.865 161.668 384.245 160.965 385.234 159.559C386.237 158.152 386.738 156.401 386.738 154.305C386.738 152.208 386.237 150.457 385.234 149.051C384.245 147.645 382.865 146.941 381.094 146.941C379.388 146.941 378.04 147.599 377.051 148.914C376.074 150.229 375.586 152.026 375.586 154.305C375.586 156.57 376.081 158.367 377.07 159.695C378.06 161.01 379.401 161.668 381.094 161.668ZM394.102 135.906H398.359V164.5H394.102V135.906ZM411.465 161.668C412.285 161.668 413.027 161.551 413.691 161.316C414.355 161.082 414.883 160.783 415.273 160.418C415.677 160.053 415.99 159.695 416.211 159.344C416.445 158.979 416.615 158.621 416.719 158.27H420.918C420.371 160.327 419.303 161.98 417.715 163.23C416.126 164.48 414.082 165.105 411.582 165.105C408.431 165.105 405.938 164.116 404.102 162.137C402.266 160.158 401.348 157.547 401.348 154.305C401.348 150.984 402.253 148.354 404.062 146.414C405.872 144.474 408.314 143.504 411.387 143.504C414.616 143.504 417.064 144.552 418.73 146.648C420.397 148.745 421.23 151.655 421.23 155.379H405.547C405.547 157.163 406.081 158.66 407.148 159.871C408.229 161.069 409.668 161.668 411.465 161.668ZM411.387 146.824C409.681 146.824 408.281 147.339 407.188 148.367C406.094 149.383 405.547 150.678 405.547 152.254H417.031C417.031 150.665 416.51 149.363 415.469 148.348C414.44 147.332 413.079 146.824 411.387 146.824ZM444.082 149.422C444.082 147.69 442.858 146.824 440.41 146.824C438.743 146.824 437.552 147.104 436.836 147.664C436.12 148.224 435.71 149.168 435.605 150.496H431.523C431.628 148.387 432.402 146.694 433.848 145.418C435.306 144.142 437.493 143.504 440.41 143.504C445.658 143.504 448.281 145.887 448.281 150.652V160.379C448.281 161.16 448.411 161.72 448.672 162.059C448.945 162.384 449.473 162.508 450.254 162.43V164.422C449.473 164.708 448.659 164.852 447.812 164.852C446.693 164.852 445.846 164.637 445.273 164.207C444.701 163.777 444.316 163.061 444.121 162.059H444.043C443.366 162.996 442.448 163.738 441.289 164.285C440.143 164.832 438.809 165.105 437.285 165.105C435.228 165.105 433.594 164.572 432.383 163.504C431.172 162.423 430.566 161.01 430.566 159.266C430.566 158.393 430.697 157.618 430.957 156.941C431.23 156.251 431.595 155.672 432.051 155.203C432.507 154.721 433.099 154.298 433.828 153.934C434.57 153.569 435.339 153.276 436.133 153.055C436.94 152.82 437.897 152.592 439.004 152.371C439.564 152.267 439.993 152.182 440.293 152.117C440.592 152.052 440.951 151.967 441.367 151.863C441.797 151.759 442.122 151.661 442.344 151.57C442.565 151.479 442.806 151.362 443.066 151.219C443.327 151.076 443.516 150.926 443.633 150.77C443.763 150.6 443.867 150.405 443.945 150.184C444.036 149.949 444.082 149.695 444.082 149.422ZM438.203 161.785C439.987 161.785 441.413 161.349 442.48 160.477C443.548 159.604 444.082 158.361 444.082 156.746V153.66C443.418 154.129 441.992 154.585 439.805 155.027C438.021 155.418 436.738 155.9 435.957 156.473C435.189 157.046 434.805 157.84 434.805 158.855C434.805 160.809 435.938 161.785 438.203 161.785ZM466.777 151.531C466.738 150.971 466.615 150.438 466.406 149.93C466.211 149.422 465.918 148.94 465.527 148.484C465.15 148.016 464.629 147.645 463.965 147.371C463.314 147.085 462.559 146.941 461.699 146.941C460.71 146.941 459.824 147.143 459.043 147.547C458.275 147.951 457.663 148.497 457.207 149.188C456.751 149.878 456.406 150.659 456.172 151.531C455.938 152.391 455.82 153.315 455.82 154.305C455.82 155.294 455.931 156.225 456.152 157.098C456.387 157.957 456.732 158.732 457.188 159.422C457.643 160.112 458.255 160.659 459.023 161.062C459.805 161.466 460.697 161.668 461.699 161.668C462.559 161.668 463.314 161.531 463.965 161.258C464.629 160.984 465.15 160.613 465.527 160.145C465.918 159.663 466.211 159.155 466.406 158.621C466.615 158.087 466.738 157.514 466.777 156.902H470.977C470.82 159.298 469.889 161.264 468.184 162.801C466.478 164.337 464.316 165.105 461.699 165.105C458.652 165.105 456.211 164.109 454.375 162.117C452.539 160.125 451.621 157.521 451.621 154.305C451.621 151.089 452.539 148.484 454.375 146.492C456.211 144.5 458.639 143.504 461.66 143.504C464.264 143.504 466.4 144.253 468.066 145.75C469.733 147.234 470.703 149.161 470.977 151.531H466.777ZM487.832 151.531C487.793 150.971 487.669 150.438 487.461 149.93C487.266 149.422 486.973 148.94 486.582 148.484C486.204 148.016 485.684 147.645 485.02 147.371C484.368 147.085 483.613 146.941 482.754 146.941C481.764 146.941 480.879 147.143 480.098 147.547C479.329 147.951 478.717 148.497 478.262 149.188C477.806 149.878 477.461 150.659 477.227 151.531C476.992 152.391 476.875 153.315 476.875 154.305C476.875 155.294 476.986 156.225 477.207 157.098C477.441 157.957 477.786 158.732 478.242 159.422C478.698 160.112 479.31 160.659 480.078 161.062C480.859 161.466 481.751 161.668 482.754 161.668C483.613 161.668 484.368 161.531 485.02 161.258C485.684 160.984 486.204 160.613 486.582 160.145C486.973 159.663 487.266 159.155 487.461 158.621C487.669 158.087 487.793 157.514 487.832 156.902H492.031C491.875 159.298 490.944 161.264 489.238 162.801C487.533 164.337 485.371 165.105 482.754 165.105C479.707 165.105 477.266 164.109 475.43 162.117C473.594 160.125 472.676 157.521 472.676 154.305C472.676 151.089 473.594 148.484 475.43 146.492C477.266 144.5 479.694 143.504 482.715 143.504C485.319 143.504 487.454 144.253 489.121 145.75C490.788 147.234 491.758 149.161 492.031 151.531H487.832ZM496.484 162.137C498.333 164.116 500.84 165.105 504.004 165.105C507.168 165.105 509.674 164.116 511.523 162.137C513.372 160.145 514.297 157.534 514.297 154.305C514.297 151.076 513.372 148.471 511.523 146.492C509.674 144.5 507.168 143.504 504.004 143.504C500.84 143.504 498.333 144.5 496.484 146.492C494.648 148.471 493.73 151.076 493.73 154.305C493.73 157.534 494.648 160.145 496.484 162.137ZM508.496 159.617C507.441 160.984 505.944 161.668 504.004 161.668C502.064 161.668 500.566 160.984 499.512 159.617C498.457 158.25 497.93 156.479 497.93 154.305C497.93 152.104 498.457 150.327 499.512 148.973C500.566 147.618 502.064 146.941 504.004 146.941C505.944 146.941 507.441 147.625 508.496 148.992C509.564 150.346 510.098 152.117 510.098 154.305C510.098 156.479 509.564 158.25 508.496 159.617ZM530.645 144.051H534.844V164.5H530.645V161.863H530.547C529.935 162.775 529.062 163.536 527.93 164.148C526.81 164.76 525.443 165.066 523.828 165.066C521.823 165.066 520.189 164.48 518.926 163.309C517.663 162.137 517.031 160.424 517.031 158.172V144.051H521.27V156.98C521.27 159.988 522.617 161.492 525.312 161.492C526.94 161.492 528.236 161.043 529.199 160.145C530.163 159.233 530.645 158.016 530.645 156.492V144.051ZM549.844 143.504C551.849 143.504 553.483 144.09 554.746 145.262C556.009 146.421 556.641 148.126 556.641 150.379V164.5H552.402V151.57C552.402 148.562 551.055 147.059 548.359 147.059C546.732 147.059 545.436 147.514 544.473 148.426C543.509 149.324 543.027 150.535 543.027 152.059V164.5H538.828V144.051H543.027V146.707H543.125C543.737 145.796 544.603 145.034 545.723 144.422C546.855 143.81 548.229 143.504 549.844 143.504ZM569.844 147.508H566.016V158.582C566.016 159.155 566.087 159.617 566.23 159.969C566.374 160.307 566.602 160.561 566.914 160.73C567.227 160.9 567.624 161.004 568.105 161.043C568.587 161.069 569.167 161.062 569.844 161.023V164.461C568.945 164.669 567.988 164.773 566.973 164.773C565.228 164.773 563.919 164.324 563.047 163.426C562.188 162.527 561.758 161.03 561.758 158.934V147.508H558.809V144.051H561.758V137.625H566.016V144.051H569.844V147.508ZM581.855 152.137C583.952 152.632 585.417 153.068 586.25 153.445C588.164 154.318 589.277 155.672 589.59 157.508C589.655 157.898 589.688 158.309 589.688 158.738C589.688 160.691 588.926 162.241 587.402 163.387C585.879 164.533 583.867 165.105 581.367 165.105C578.203 165.105 575.833 164.441 574.258 163.113C572.682 161.785 571.842 159.982 571.738 157.703H575.82C575.872 158.315 575.983 158.842 576.152 159.285C576.335 159.728 576.615 160.151 576.992 160.555C577.383 160.958 577.936 161.264 578.652 161.473C579.368 161.681 580.247 161.785 581.289 161.785C582.643 161.785 583.672 161.512 584.375 160.965C585.091 160.418 585.449 159.78 585.449 159.051C585.449 158.777 585.423 158.523 585.371 158.289C585.319 158.055 585.228 157.846 585.098 157.664C584.967 157.482 584.837 157.319 584.707 157.176C584.59 157.033 584.408 156.902 584.16 156.785C583.926 156.668 583.717 156.57 583.535 156.492C583.353 156.401 583.092 156.31 582.754 156.219C582.415 156.128 582.135 156.056 581.914 156.004C581.706 155.952 581.393 155.88 580.977 155.789C580.573 155.698 580.254 155.626 580.02 155.574C578.158 155.132 576.992 154.832 576.523 154.676C574.479 153.986 573.197 152.905 572.676 151.434C572.48 150.874 572.383 150.242 572.383 149.539C572.383 147.807 573.105 146.368 574.551 145.223C575.996 144.077 577.962 143.504 580.449 143.504C583.092 143.504 585.13 144.122 586.562 145.359C588.008 146.596 588.802 148.165 588.945 150.066H584.863C584.785 149.611 584.668 149.214 584.512 148.875C584.355 148.523 584.121 148.185 583.809 147.859C583.496 147.521 583.06 147.267 582.5 147.098C581.94 146.915 581.27 146.824 580.488 146.824C579.251 146.824 578.294 147.039 577.617 147.469C576.953 147.898 576.621 148.484 576.621 149.227C576.621 149.513 576.66 149.773 576.738 150.008C576.816 150.229 576.953 150.424 577.148 150.594C577.357 150.763 577.546 150.906 577.715 151.023C577.897 151.141 578.184 151.258 578.574 151.375C578.965 151.479 579.271 151.564 579.492 151.629C579.727 151.681 580.111 151.766 580.645 151.883C581.178 151.987 581.582 152.072 581.855 152.137ZM622.676 143.504C624.72 143.504 626.27 144.096 627.324 145.281C628.392 146.466 628.926 148.165 628.926 150.379V164.5H624.688V151.57C624.688 150.047 624.447 148.914 623.965 148.172C623.496 147.43 622.591 147.059 621.25 147.059C619.831 147.059 618.704 147.514 617.871 148.426C617.051 149.324 616.641 150.535 616.641 152.059V164.5H612.402V151.57C612.402 150.047 612.161 148.914 611.68 148.172C611.211 147.43 610.293 147.059 608.926 147.059C607.533 147.059 606.413 147.514 605.566 148.426C604.733 149.324 604.316 150.535 604.316 152.059V164.5H600.117V144.051H604.316V146.707H604.414C605.846 144.572 607.871 143.504 610.488 143.504C613.223 143.504 615.033 144.676 615.918 147.02H615.996C617.819 144.676 620.046 143.504 622.676 143.504ZM634.492 162.137C636.341 164.116 638.848 165.105 642.012 165.105C645.176 165.105 647.682 164.116 649.531 162.137C651.38 160.145 652.305 157.534 652.305 154.305C652.305 151.076 651.38 148.471 649.531 146.492C647.682 144.5 645.176 143.504 642.012 143.504C638.848 143.504 636.341 144.5 634.492 146.492C632.656 148.471 631.738 151.076 631.738 154.305C631.738 157.534 632.656 160.145 634.492 162.137ZM646.504 159.617C645.449 160.984 643.952 161.668 642.012 161.668C640.072 161.668 638.574 160.984 637.52 159.617C636.465 158.25 635.938 156.479 635.938 154.305C635.938 152.104 636.465 150.327 637.52 148.973C638.574 147.618 640.072 146.941 642.012 146.941C643.952 146.941 645.449 147.625 646.504 148.992C647.572 150.346 648.105 152.117 648.105 154.305C648.105 156.479 647.572 158.25 646.504 159.617ZM664.922 143.582C665.547 143.582 666.159 143.621 666.758 143.699V147.664H666.68C664.648 147.326 662.923 147.768 661.504 148.992C660.098 150.203 659.395 151.889 659.395 154.051V164.5H655.195V144.051H659.395V147.898H659.492C660.703 145.021 662.513 143.582 664.922 143.582ZM677.793 161.668C678.613 161.668 679.355 161.551 680.02 161.316C680.684 161.082 681.211 160.783 681.602 160.418C682.005 160.053 682.318 159.695 682.539 159.344C682.773 158.979 682.943 158.621 683.047 158.27H687.246C686.699 160.327 685.632 161.98 684.043 163.23C682.454 164.48 680.41 165.105 677.91 165.105C674.759 165.105 672.266 164.116 670.43 162.137C668.594 160.158 667.676 157.547 667.676 154.305C667.676 150.984 668.581 148.354 670.391 146.414C672.201 144.474 674.642 143.504 677.715 143.504C680.944 143.504 683.392 144.552 685.059 146.648C686.725 148.745 687.559 151.655 687.559 155.379H671.875C671.875 157.163 672.409 158.66 673.477 159.871C674.557 161.069 675.996 161.668 677.793 161.668ZM677.715 146.824C676.009 146.824 674.609 147.339 673.516 148.367C672.422 149.383 671.875 150.678 671.875 152.254H683.359C683.359 150.665 682.839 149.363 681.797 148.348C680.768 147.332 679.408 146.824 677.715 146.824ZM712.129 151.531C712.09 150.971 711.966 150.438 711.758 149.93C711.562 149.422 711.27 148.94 710.879 148.484C710.501 148.016 709.98 147.645 709.316 147.371C708.665 147.085 707.91 146.941 707.051 146.941C706.061 146.941 705.176 147.143 704.395 147.547C703.626 147.951 703.014 148.497 702.559 149.188C702.103 149.878 701.758 150.659 701.523 151.531C701.289 152.391 701.172 153.315 701.172 154.305C701.172 155.294 701.283 156.225 701.504 157.098C701.738 157.957 702.083 158.732 702.539 159.422C702.995 160.112 703.607 160.659 704.375 161.062C705.156 161.466 706.048 161.668 707.051 161.668C707.91 161.668 708.665 161.531 709.316 161.258C709.98 160.984 710.501 160.613 710.879 160.145C711.27 159.663 711.562 159.155 711.758 158.621C711.966 158.087 712.09 157.514 712.129 156.902H716.328C716.172 159.298 715.241 161.264 713.535 162.801C711.829 164.337 709.668 165.105 707.051 165.105C704.004 165.105 701.562 164.109 699.727 162.117C697.891 160.125 696.973 157.521 696.973 154.305C696.973 151.089 697.891 148.484 699.727 146.492C701.562 144.5 703.991 143.504 707.012 143.504C709.616 143.504 711.751 144.253 713.418 145.75C715.085 147.234 716.055 149.161 716.328 151.531H712.129ZM720.781 162.137C722.63 164.116 725.137 165.105 728.301 165.105C731.465 165.105 733.971 164.116 735.82 162.137C737.669 160.145 738.594 157.534 738.594 154.305C738.594 151.076 737.669 148.471 735.82 146.492C733.971 144.5 731.465 143.504 728.301 143.504C725.137 143.504 722.63 144.5 720.781 146.492C718.945 148.471 718.027 151.076 718.027 154.305C718.027 157.534 718.945 160.145 720.781 162.137ZM732.793 159.617C731.738 160.984 730.241 161.668 728.301 161.668C726.361 161.668 724.863 160.984 723.809 159.617C722.754 158.25 722.227 156.479 722.227 154.305C722.227 152.104 722.754 150.327 723.809 148.973C724.863 147.618 726.361 146.941 728.301 146.941C730.241 146.941 731.738 147.625 732.793 148.992C733.861 150.346 734.395 152.117 734.395 154.305C734.395 156.479 733.861 158.25 732.793 159.617ZM752.5 143.504C754.505 143.504 756.139 144.09 757.402 145.262C758.665 146.421 759.297 148.126 759.297 150.379V164.5H755.059V151.57C755.059 148.562 753.711 147.059 751.016 147.059C749.388 147.059 748.092 147.514 747.129 148.426C746.165 149.324 745.684 150.535 745.684 152.059V164.5H741.484V144.051H745.684V146.707H745.781C746.393 145.796 747.259 145.034 748.379 144.422C749.512 143.81 750.885 143.504 752.5 143.504ZM760.742 144.051H765.176L770.352 160.066H770.391L775.547 144.051H779.98L772.734 164.5H767.988L760.742 144.051ZM790.488 161.668C791.309 161.668 792.051 161.551 792.715 161.316C793.379 161.082 793.906 160.783 794.297 160.418C794.701 160.053 795.013 159.695 795.234 159.344C795.469 158.979 795.638 158.621 795.742 158.27H799.941C799.395 160.327 798.327 161.98 796.738 163.23C795.15 164.48 793.105 165.105 790.605 165.105C787.454 165.105 784.961 164.116 783.125 162.137C781.289 160.158 780.371 157.547 780.371 154.305C780.371 150.984 781.276 148.354 783.086 146.414C784.896 144.474 787.337 143.504 790.41 143.504C793.639 143.504 796.087 144.552 797.754 146.648C799.421 148.745 800.254 151.655 800.254 155.379H784.57C784.57 157.163 785.104 158.66 786.172 159.871C787.253 161.069 788.691 161.668 790.488 161.668ZM790.41 146.824C788.704 146.824 787.305 147.339 786.211 148.367C785.117 149.383 784.57 150.678 784.57 152.254H796.055C796.055 150.665 795.534 149.363 794.492 148.348C793.464 147.332 792.103 146.824 790.41 146.824ZM814.141 143.504C816.146 143.504 817.78 144.09 819.043 145.262C820.306 146.421 820.938 148.126 820.938 150.379V164.5H816.699V151.57C816.699 148.562 815.352 147.059 812.656 147.059C811.029 147.059 809.733 147.514 808.77 148.426C807.806 149.324 807.324 150.535 807.324 152.059V164.5H803.125V144.051H807.324V146.707H807.422C808.034 145.796 808.9 145.034 810.02 144.422C811.152 143.81 812.526 143.504 814.141 143.504ZM827.129 140.613C826.504 140.613 825.951 140.411 825.469 140.008C825 139.604 824.766 139.064 824.766 138.387C824.766 137.71 825 137.176 825.469 136.785C825.951 136.382 826.504 136.18 827.129 136.18C827.793 136.18 828.359 136.375 828.828 136.766C829.297 137.156 829.531 137.697 829.531 138.387C829.531 139.077 829.29 139.624 828.809 140.027C828.34 140.418 827.78 140.613 827.129 140.613ZM825.059 144.051H829.258V164.5H825.059V144.051ZM842.559 161.668C843.379 161.668 844.121 161.551 844.785 161.316C845.449 161.082 845.977 160.783 846.367 160.418C846.771 160.053 847.083 159.695 847.305 159.344C847.539 158.979 847.708 158.621 847.812 158.27H852.012C851.465 160.327 850.397 161.98 848.809 163.23C847.22 164.48 845.176 165.105 842.676 165.105C839.525 165.105 837.031 164.116 835.195 162.137C833.359 160.158 832.441 157.547 832.441 154.305C832.441 150.984 833.346 148.354 835.156 146.414C836.966 144.474 839.408 143.504 842.48 143.504C845.71 143.504 848.158 144.552 849.824 146.648C851.491 148.745 852.324 151.655 852.324 155.379H836.641C836.641 157.163 837.174 158.66 838.242 159.871C839.323 161.069 840.762 161.668 842.559 161.668ZM842.48 146.824C840.775 146.824 839.375 147.339 838.281 148.367C837.188 149.383 836.641 150.678 836.641 152.254H848.125C848.125 150.665 847.604 149.363 846.562 148.348C845.534 147.332 844.173 146.824 842.48 146.824ZM866.211 143.504C868.216 143.504 869.85 144.09 871.113 145.262C872.376 146.421 873.008 148.126 873.008 150.379V164.5H868.77V151.57C868.77 148.562 867.422 147.059 864.727 147.059C863.099 147.059 861.803 147.514 860.84 148.426C859.876 149.324 859.395 150.535 859.395 152.059V164.5H855.195V144.051H859.395V146.707H859.492C860.104 145.796 860.97 145.034 862.09 144.422C863.223 143.81 864.596 143.504 866.211 143.504ZM886.211 147.508H882.383V158.582C882.383 159.155 882.454 159.617 882.598 159.969C882.741 160.307 882.969 160.561 883.281 160.73C883.594 160.9 883.991 161.004 884.473 161.043C884.954 161.069 885.534 161.062 886.211 161.023V164.461C885.312 164.669 884.355 164.773 883.34 164.773C881.595 164.773 880.286 164.324 879.414 163.426C878.555 162.527 878.125 161.03 878.125 158.934V147.508H875.176V144.051H878.125V137.625H882.383V144.051H886.211V147.508ZM299.355 207.422C299.355 205.69 298.132 204.824 295.684 204.824C294.017 204.824 292.826 205.104 292.109 205.664C291.393 206.224 290.983 207.168 290.879 208.496H286.797C286.901 206.387 287.676 204.694 289.121 203.418C290.579 202.142 292.767 201.504 295.684 201.504C300.931 201.504 303.555 203.887 303.555 208.652V218.379C303.555 219.16 303.685 219.72 303.945 220.059C304.219 220.384 304.746 220.508 305.527 220.43V222.422C304.746 222.708 303.932 222.852 303.086 222.852C301.966 222.852 301.12 222.637 300.547 222.207C299.974 221.777 299.59 221.061 299.395 220.059H299.316C298.639 220.996 297.721 221.738 296.562 222.285C295.417 222.832 294.082 223.105 292.559 223.105C290.501 223.105 288.867 222.572 287.656 221.504C286.445 220.423 285.84 219.01 285.84 217.266C285.84 216.393 285.97 215.618 286.23 214.941C286.504 214.251 286.868 213.672 287.324 213.203C287.78 212.721 288.372 212.298 289.102 211.934C289.844 211.569 290.612 211.276 291.406 211.055C292.214 210.82 293.171 210.592 294.277 210.371C294.837 210.267 295.267 210.182 295.566 210.117C295.866 210.052 296.224 209.967 296.641 209.863C297.07 209.759 297.396 209.661 297.617 209.57C297.839 209.479 298.079 209.362 298.34 209.219C298.6 209.076 298.789 208.926 298.906 208.77C299.036 208.6 299.141 208.405 299.219 208.184C299.31 207.949 299.355 207.695 299.355 207.422ZM293.477 219.785C295.26 219.785 296.686 219.349 297.754 218.477C298.822 217.604 299.355 216.361 299.355 214.746V211.66C298.691 212.129 297.266 212.585 295.078 213.027C293.294 213.418 292.012 213.9 291.23 214.473C290.462 215.046 290.078 215.84 290.078 216.855C290.078 218.809 291.211 219.785 293.477 219.785ZM318.984 201.504C320.99 201.504 322.624 202.09 323.887 203.262C325.15 204.421 325.781 206.126 325.781 208.379V222.5H321.543V209.57C321.543 206.562 320.195 205.059 317.5 205.059C315.872 205.059 314.577 205.514 313.613 206.426C312.65 207.324 312.168 208.535 312.168 210.059V222.5H307.969V202.051H312.168V204.707H312.266C312.878 203.796 313.743 203.034 314.863 202.422C315.996 201.81 317.37 201.504 318.984 201.504ZM343.984 193.906H348.184V222.5H343.984V220.137H343.906C343.268 220.97 342.428 221.673 341.387 222.246C340.345 222.819 339.102 223.105 337.656 223.105C334.987 223.105 332.799 222.129 331.094 220.176C329.388 218.223 328.535 215.599 328.535 212.305C328.535 209.01 329.388 206.387 331.094 204.434C332.799 202.48 334.987 201.504 337.656 201.504C339.128 201.504 340.384 201.79 341.426 202.363C342.48 202.923 343.307 203.646 343.906 204.531H343.984V193.906ZM338.379 219.668C340.098 219.668 341.452 219.01 342.441 217.695C343.444 216.367 343.945 214.57 343.945 212.305C343.945 210.026 343.444 208.229 342.441 206.914C341.452 205.599 340.098 204.941 338.379 204.941C336.608 204.941 335.221 205.645 334.219 207.051C333.229 208.457 332.734 210.208 332.734 212.305C332.734 214.401 333.229 216.152 334.219 217.559C335.221 218.965 336.608 219.668 338.379 219.668ZM368.652 210.137C370.749 210.632 372.214 211.068 373.047 211.445C374.961 212.318 376.074 213.672 376.387 215.508C376.452 215.898 376.484 216.309 376.484 216.738C376.484 218.691 375.723 220.241 374.199 221.387C372.676 222.533 370.664 223.105 368.164 223.105C365 223.105 362.63 222.441 361.055 221.113C359.479 219.785 358.639 217.982 358.535 215.703H362.617C362.669 216.315 362.78 216.842 362.949 217.285C363.132 217.728 363.411 218.151 363.789 218.555C364.18 218.958 364.733 219.264 365.449 219.473C366.165 219.681 367.044 219.785 368.086 219.785C369.44 219.785 370.469 219.512 371.172 218.965C371.888 218.418 372.246 217.78 372.246 217.051C372.246 216.777 372.22 216.523 372.168 216.289C372.116 216.055 372.025 215.846 371.895 215.664C371.764 215.482 371.634 215.319 371.504 215.176C371.387 215.033 371.204 214.902 370.957 214.785C370.723 214.668 370.514 214.57 370.332 214.492C370.15 214.401 369.889 214.31 369.551 214.219C369.212 214.128 368.932 214.056 368.711 214.004C368.503 213.952 368.19 213.88 367.773 213.789C367.37 213.698 367.051 213.626 366.816 213.574C364.954 213.132 363.789 212.832 363.32 212.676C361.276 211.986 359.993 210.905 359.473 209.434C359.277 208.874 359.18 208.242 359.18 207.539C359.18 205.807 359.902 204.368 361.348 203.223C362.793 202.077 364.759 201.504 367.246 201.504C369.889 201.504 371.927 202.122 373.359 203.359C374.805 204.596 375.599 206.165 375.742 208.066H371.66C371.582 207.611 371.465 207.214 371.309 206.875C371.152 206.523 370.918 206.185 370.605 205.859C370.293 205.521 369.857 205.267 369.297 205.098C368.737 204.915 368.066 204.824 367.285 204.824C366.048 204.824 365.091 205.039 364.414 205.469C363.75 205.898 363.418 206.484 363.418 207.227C363.418 207.513 363.457 207.773 363.535 208.008C363.613 208.229 363.75 208.424 363.945 208.594C364.154 208.763 364.342 208.906 364.512 209.023C364.694 209.141 364.98 209.258 365.371 209.375C365.762 209.479 366.068 209.564 366.289 209.629C366.523 209.681 366.908 209.766 367.441 209.883C367.975 209.987 368.379 210.072 368.652 210.137ZM388.652 219.668C389.473 219.668 390.215 219.551 390.879 219.316C391.543 219.082 392.07 218.783 392.461 218.418C392.865 218.053 393.177 217.695 393.398 217.344C393.633 216.979 393.802 216.621 393.906 216.27H398.105C397.559 218.327 396.491 219.98 394.902 221.23C393.314 222.48 391.27 223.105 388.77 223.105C385.618 223.105 383.125 222.116 381.289 220.137C379.453 218.158 378.535 215.547 378.535 212.305C378.535 208.984 379.44 206.354 381.25 204.414C383.06 202.474 385.501 201.504 388.574 201.504C391.803 201.504 394.251 202.552 395.918 204.648C397.585 206.745 398.418 209.655 398.418 213.379H382.734C382.734 215.163 383.268 216.66 384.336 217.871C385.417 219.069 386.855 219.668 388.652 219.668ZM388.574 204.824C386.868 204.824 385.469 205.339 384.375 206.367C383.281 207.383 382.734 208.678 382.734 210.254H394.219C394.219 208.665 393.698 207.363 392.656 206.348C391.628 205.332 390.267 204.824 388.574 204.824ZM413.652 207.422C413.652 205.69 412.428 204.824 409.98 204.824C408.314 204.824 407.122 205.104 406.406 205.664C405.69 206.224 405.28 207.168 405.176 208.496H401.094C401.198 206.387 401.973 204.694 403.418 203.418C404.876 202.142 407.064 201.504 409.98 201.504C415.228 201.504 417.852 203.887 417.852 208.652V218.379C417.852 219.16 417.982 219.72 418.242 220.059C418.516 220.384 419.043 220.508 419.824 220.43V222.422C419.043 222.708 418.229 222.852 417.383 222.852C416.263 222.852 415.417 222.637 414.844 222.207C414.271 221.777 413.887 221.061 413.691 220.059H413.613C412.936 220.996 412.018 221.738 410.859 222.285C409.714 222.832 408.379 223.105 406.855 223.105C404.798 223.105 403.164 222.572 401.953 221.504C400.742 220.423 400.137 219.01 400.137 217.266C400.137 216.393 400.267 215.618 400.527 214.941C400.801 214.251 401.165 213.672 401.621 213.203C402.077 212.721 402.669 212.298 403.398 211.934C404.141 211.569 404.909 211.276 405.703 211.055C406.51 210.82 407.467 210.592 408.574 210.371C409.134 210.267 409.564 210.182 409.863 210.117C410.163 210.052 410.521 209.967 410.938 209.863C411.367 209.759 411.693 209.661 411.914 209.57C412.135 209.479 412.376 209.362 412.637 209.219C412.897 209.076 413.086 208.926 413.203 208.77C413.333 208.6 413.438 208.405 413.516 208.184C413.607 207.949 413.652 207.695 413.652 207.422ZM407.773 219.785C409.557 219.785 410.983 219.349 412.051 218.477C413.118 217.604 413.652 216.361 413.652 214.746V211.66C412.988 212.129 411.562 212.585 409.375 213.027C407.591 213.418 406.309 213.9 405.527 214.473C404.759 215.046 404.375 215.84 404.375 216.855C404.375 218.809 405.508 219.785 407.773 219.785ZM444.824 201.504C446.868 201.504 448.418 202.096 449.473 203.281C450.54 204.466 451.074 206.165 451.074 208.379V222.5H446.836V209.57C446.836 208.047 446.595 206.914 446.113 206.172C445.645 205.43 444.74 205.059 443.398 205.059C441.979 205.059 440.853 205.514 440.02 206.426C439.199 207.324 438.789 208.535 438.789 210.059V222.5H434.551V209.57C434.551 208.047 434.31 206.914 433.828 206.172C433.359 205.43 432.441 205.059 431.074 205.059C429.681 205.059 428.561 205.514 427.715 206.426C426.882 207.324 426.465 208.535 426.465 210.059V222.5H422.266V202.051H426.465V204.707H426.562C427.995 202.572 430.02 201.504 432.637 201.504C435.371 201.504 437.181 202.676 438.066 205.02H438.145C439.967 202.676 442.194 201.504 444.824 201.504ZM455.039 193.906H459.297V222.5H455.039V193.906ZM472.402 219.668C473.223 219.668 473.965 219.551 474.629 219.316C475.293 219.082 475.82 218.783 476.211 218.418C476.615 218.053 476.927 217.695 477.148 217.344C477.383 216.979 477.552 216.621 477.656 216.27H481.855C481.309 218.327 480.241 219.98 478.652 221.23C477.064 222.48 475.02 223.105 472.52 223.105C469.368 223.105 466.875 222.116 465.039 220.137C463.203 218.158 462.285 215.547 462.285 212.305C462.285 208.984 463.19 206.354 465 204.414C466.81 202.474 469.251 201.504 472.324 201.504C475.553 201.504 478.001 202.552 479.668 204.648C481.335 206.745 482.168 209.655 482.168 213.379H466.484C466.484 215.163 467.018 216.66 468.086 217.871C469.167 219.069 470.605 219.668 472.402 219.668ZM472.324 204.824C470.618 204.824 469.219 205.339 468.125 206.367C467.031 207.383 466.484 208.678 466.484 210.254H477.969C477.969 208.665 477.448 207.363 476.406 206.348C475.378 205.332 474.017 204.824 472.324 204.824ZM493.887 210.137C495.983 210.632 497.448 211.068 498.281 211.445C500.195 212.318 501.309 213.672 501.621 215.508C501.686 215.898 501.719 216.309 501.719 216.738C501.719 218.691 500.957 220.241 499.434 221.387C497.91 222.533 495.898 223.105 493.398 223.105C490.234 223.105 487.865 222.441 486.289 221.113C484.714 219.785 483.874 217.982 483.77 215.703H487.852C487.904 216.315 488.014 216.842 488.184 217.285C488.366 217.728 488.646 218.151 489.023 218.555C489.414 218.958 489.967 219.264 490.684 219.473C491.4 219.681 492.279 219.785 493.32 219.785C494.674 219.785 495.703 219.512 496.406 218.965C497.122 218.418 497.48 217.78 497.48 217.051C497.48 216.777 497.454 216.523 497.402 216.289C497.35 216.055 497.259 215.846 497.129 215.664C496.999 215.482 496.868 215.319 496.738 215.176C496.621 215.033 496.439 214.902 496.191 214.785C495.957 214.668 495.749 214.57 495.566 214.492C495.384 214.401 495.124 214.31 494.785 214.219C494.447 214.128 494.167 214.056 493.945 214.004C493.737 213.952 493.424 213.88 493.008 213.789C492.604 213.698 492.285 213.626 492.051 213.574C490.189 213.132 489.023 212.832 488.555 212.676C486.51 211.986 485.228 210.905 484.707 209.434C484.512 208.874 484.414 208.242 484.414 207.539C484.414 205.807 485.137 204.368 486.582 203.223C488.027 202.077 489.993 201.504 492.48 201.504C495.124 201.504 497.161 202.122 498.594 203.359C500.039 204.596 500.833 206.165 500.977 208.066H496.895C496.816 207.611 496.699 207.214 496.543 206.875C496.387 206.523 496.152 206.185 495.84 205.859C495.527 205.521 495.091 205.267 494.531 205.098C493.971 204.915 493.301 204.824 492.52 204.824C491.283 204.824 490.326 205.039 489.648 205.469C488.984 205.898 488.652 206.484 488.652 207.227C488.652 207.513 488.691 207.773 488.77 208.008C488.848 208.229 488.984 208.424 489.18 208.594C489.388 208.763 489.577 208.906 489.746 209.023C489.928 209.141 490.215 209.258 490.605 209.375C490.996 209.479 491.302 209.564 491.523 209.629C491.758 209.681 492.142 209.766 492.676 209.883C493.21 209.987 493.613 210.072 493.887 210.137ZM513.457 210.137C515.553 210.632 517.018 211.068 517.852 211.445C519.766 212.318 520.879 213.672 521.191 215.508C521.257 215.898 521.289 216.309 521.289 216.738C521.289 218.691 520.527 220.241 519.004 221.387C517.48 222.533 515.469 223.105 512.969 223.105C509.805 223.105 507.435 222.441 505.859 221.113C504.284 219.785 503.444 217.982 503.34 215.703H507.422C507.474 216.315 507.585 216.842 507.754 217.285C507.936 217.728 508.216 218.151 508.594 218.555C508.984 218.958 509.538 219.264 510.254 219.473C510.97 219.681 511.849 219.785 512.891 219.785C514.245 219.785 515.273 219.512 515.977 218.965C516.693 218.418 517.051 217.78 517.051 217.051C517.051 216.777 517.025 216.523 516.973 216.289C516.921 216.055 516.829 215.846 516.699 215.664C516.569 215.482 516.439 215.319 516.309 215.176C516.191 215.033 516.009 214.902 515.762 214.785C515.527 214.668 515.319 214.57 515.137 214.492C514.954 214.401 514.694 214.31 514.355 214.219C514.017 214.128 513.737 214.056 513.516 214.004C513.307 213.952 512.995 213.88 512.578 213.789C512.174 213.698 511.855 213.626 511.621 213.574C509.759 213.132 508.594 212.832 508.125 212.676C506.081 211.986 504.798 210.905 504.277 209.434C504.082 208.874 503.984 208.242 503.984 207.539C503.984 205.807 504.707 204.368 506.152 203.223C507.598 202.077 509.564 201.504 512.051 201.504C514.694 201.504 516.732 202.122 518.164 203.359C519.609 204.596 520.404 206.165 520.547 208.066H516.465C516.387 207.611 516.27 207.214 516.113 206.875C515.957 206.523 515.723 206.185 515.41 205.859C515.098 205.521 514.661 205.267 514.102 205.098C513.542 204.915 512.871 204.824 512.09 204.824C510.853 204.824 509.896 205.039 509.219 205.469C508.555 205.898 508.223 206.484 508.223 207.227C508.223 207.513 508.262 207.773 508.34 208.008C508.418 208.229 508.555 208.424 508.75 208.594C508.958 208.763 509.147 208.906 509.316 209.023C509.499 209.141 509.785 209.258 510.176 209.375C510.566 209.479 510.872 209.564 511.094 209.629C511.328 209.681 511.712 209.766 512.246 209.883C512.78 209.987 513.184 210.072 513.457 210.137ZM526.387 222.812C525.632 222.812 525.007 222.578 524.512 222.109C524.03 221.628 523.789 220.996 523.789 220.215C523.789 219.447 524.03 218.822 524.512 218.34C525.007 217.858 525.632 217.617 526.387 217.617C527.116 217.617 527.721 217.858 528.203 218.34C528.698 218.822 528.945 219.447 528.945 220.215C528.945 220.996 528.704 221.628 528.223 222.109C527.741 222.578 527.129 222.812 526.387 222.812Z" fill="#DBB639" fill-opacity="0.8"/>
</g>
<defs>
<clipPath id="clip0_681_1428">
<rect width="973" height="299" rx="12" fill="white"/>
</clipPath>
</defs>
</svg>
