<svg width="946" height="1193" viewBox="0 0 946 1193" fill="none" xmlns="http://www.w3.org/2000/svg">
<path d="M454.542 435.542C458.96 435.542 462.542 431.96 462.542 427.542V383.792C462.542 379.373 466.123 375.792 470.542 375.792H474.458C478.877 375.792 482.458 379.373 482.458 383.792V427.542C482.458 431.96 486.04 435.542 490.458 435.542H534.208C538.627 435.542 542.208 439.123 542.208 443.542V447.458C542.208 451.877 538.627 455.458 534.208 455.458H490.458C486.04 455.458 482.458 459.04 482.458 463.458V507.208C482.458 511.627 478.877 515.208 474.458 515.208H470.542C466.123 515.208 462.542 511.627 462.542 507.208V463.458C462.542 459.04 458.96 455.458 454.542 455.458H410.792C406.373 455.458 402.792 451.877 402.792 447.458V443.542C402.792 439.123 406.373 435.542 410.792 435.542H454.542Z" fill="#BCBCBC"/>
<path d="M257.676 668V639.406H262.07L276.367 662.961H276.445V639.406H280.039V668H275.645L261.367 644.523H261.289V668H257.676ZM294.004 665.754C294.785 665.754 295.501 665.656 296.152 665.461C296.803 665.266 297.337 665.025 297.754 664.738C298.184 664.452 298.555 664.12 298.867 663.742C299.193 663.365 299.434 663.013 299.59 662.688C299.759 662.349 299.883 662.023 299.961 661.711H303.164C302.604 663.755 301.556 665.409 300.02 666.672C298.496 667.935 296.53 668.566 294.121 668.566C291.061 668.566 288.633 667.583 286.836 665.617C285.052 663.651 284.16 661.047 284.16 657.805C284.16 654.432 285.039 651.796 286.797 649.895C288.568 647.993 290.957 647.043 293.965 647.043C297.116 647.043 299.486 648.052 301.074 650.07C302.676 652.089 303.477 654.947 303.477 658.645H287.363C287.363 659.908 287.598 661.066 288.066 662.121C288.548 663.176 289.303 664.048 290.332 664.738C291.361 665.415 292.585 665.754 294.004 665.754ZM293.965 649.836C292.064 649.836 290.488 650.422 289.238 651.594C287.988 652.753 287.363 654.165 287.363 655.832H300.293C300.293 654.152 299.707 652.733 298.535 651.574C297.363 650.415 295.84 649.836 293.965 649.836ZM304.219 647.609H307.734L312.383 664.523H312.461L317.031 647.609H320.43L325.02 664.523H325.098L329.746 647.609H333.262L326.738 668H323.34L318.75 651.164H318.672L314.141 668H310.742L304.219 647.609ZM344.121 668V639.406H355.488C356.842 639.406 358.066 639.562 359.16 639.875C360.254 640.188 361.224 640.669 362.07 641.32C362.93 641.958 363.594 642.824 364.062 643.918C364.531 644.999 364.766 646.268 364.766 647.727C364.766 649.185 364.531 650.461 364.062 651.555C363.594 652.635 362.93 653.501 362.07 654.152C361.224 654.79 360.254 655.266 359.16 655.578C358.066 655.891 356.842 656.047 355.488 656.047H347.734V668H344.121ZM347.734 642.609V652.844H355.879C357.663 652.844 358.991 652.427 359.863 651.594C360.736 650.747 361.172 649.458 361.172 647.727C361.172 645.995 360.736 644.712 359.863 643.879C358.991 643.033 357.663 642.609 355.879 642.609H347.734ZM376.66 647.043C377.35 647.043 377.982 647.082 378.555 647.16V650.363H378.477C376.302 650.012 374.499 650.5 373.066 651.828C371.647 653.143 370.938 654.908 370.938 657.121V668H367.754V647.609H370.938V651.633H371.035C371.621 650.174 372.357 649.048 373.242 648.254C374.141 647.447 375.28 647.043 376.66 647.043ZM389.473 668.566C392.533 668.566 394.954 667.577 396.738 665.598C398.535 663.618 399.434 661.021 399.434 657.805C399.434 654.589 398.535 651.991 396.738 650.012C394.954 648.033 392.533 647.043 389.473 647.043C386.4 647.043 383.965 648.033 382.168 650.012C380.371 651.978 379.473 654.576 379.473 657.805C379.473 661.034 380.371 663.638 382.168 665.617C383.965 667.583 386.4 668.566 389.473 668.566ZM389.473 665.754C387.272 665.754 385.586 665.005 384.414 663.508C383.255 662.01 382.676 660.109 382.676 657.805C382.676 655.5 383.255 653.599 384.414 652.102C385.586 650.591 387.272 649.836 389.473 649.836C391.647 649.836 393.314 650.591 394.473 652.102C395.645 653.599 396.23 655.5 396.23 657.805C396.23 660.109 395.645 662.01 394.473 663.508C393.314 665.005 391.647 665.754 389.473 665.754ZM404.316 643.645C403.822 643.645 403.359 643.469 402.93 643.117C402.513 642.753 402.305 642.284 402.305 641.711C402.305 641.138 402.513 640.676 402.93 640.324C403.359 639.973 403.822 639.797 404.316 639.797C404.824 639.797 405.28 639.973 405.684 640.324C406.1 640.676 406.309 641.138 406.309 641.711C406.309 642.284 406.1 642.753 405.684 643.117C405.28 643.469 404.824 643.645 404.316 643.645ZM402.715 647.609H405.918V669.406C405.918 671.203 405.638 672.564 405.078 673.488C404.531 674.413 403.607 674.875 402.305 674.875C401.393 674.875 400.41 674.732 399.355 674.445V672.043C400.762 672.147 401.673 672.069 402.09 671.809C402.507 671.548 402.715 670.852 402.715 669.719V647.609ZM419.395 665.754C420.176 665.754 420.892 665.656 421.543 665.461C422.194 665.266 422.728 665.025 423.145 664.738C423.574 664.452 423.945 664.12 424.258 663.742C424.583 663.365 424.824 663.013 424.98 662.688C425.15 662.349 425.273 662.023 425.352 661.711H428.555C427.995 663.755 426.947 665.409 425.41 666.672C423.887 667.935 421.921 668.566 419.512 668.566C416.452 668.566 414.023 667.583 412.227 665.617C410.443 663.651 409.551 661.047 409.551 657.805C409.551 654.432 410.43 651.796 412.188 649.895C413.958 647.993 416.348 647.043 419.355 647.043C422.507 647.043 424.876 648.052 426.465 650.07C428.066 652.089 428.867 654.947 428.867 658.645H412.754C412.754 659.908 412.988 661.066 413.457 662.121C413.939 663.176 414.694 664.048 415.723 664.738C416.751 665.415 417.975 665.754 419.395 665.754ZM419.355 649.836C417.454 649.836 415.879 650.422 414.629 651.594C413.379 652.753 412.754 654.165 412.754 655.832H425.684C425.684 654.152 425.098 652.733 423.926 651.574C422.754 650.415 421.23 649.836 419.355 649.836ZM446.523 654.953C446.484 654.354 446.348 653.768 446.113 653.195C445.892 652.622 445.56 652.076 445.117 651.555C444.688 651.034 444.095 650.617 443.34 650.305C442.598 649.992 441.738 649.836 440.762 649.836C439.824 649.836 438.971 649.992 438.203 650.305C437.448 650.604 436.816 651.014 436.309 651.535C435.814 652.043 435.391 652.648 435.039 653.352C434.701 654.042 434.453 654.758 434.297 655.5C434.154 656.242 434.082 657.01 434.082 657.805C434.082 658.807 434.206 659.764 434.453 660.676C434.701 661.587 435.078 662.434 435.586 663.215C436.094 663.983 436.79 664.602 437.676 665.07C438.574 665.526 439.603 665.754 440.762 665.754C441.751 665.754 442.617 665.598 443.359 665.285C444.115 664.973 444.707 664.556 445.137 664.035C445.566 663.501 445.892 662.941 446.113 662.355C446.348 661.757 446.484 661.132 446.523 660.48H449.727C449.583 662.824 448.678 664.758 447.012 666.281C445.345 667.805 443.262 668.566 440.762 668.566C437.793 668.566 435.404 667.577 433.594 665.598C431.784 663.618 430.879 661.021 430.879 657.805C430.879 654.589 431.784 651.991 433.594 650.012C435.404 648.033 437.793 647.043 440.762 647.043C443.236 647.043 445.286 647.785 446.914 649.27C448.542 650.741 449.479 652.635 449.727 654.953H446.523ZM461.66 650.402H457.656V662.688C457.656 663.794 457.962 664.517 458.574 664.855C459.186 665.194 460.215 665.311 461.66 665.207V668C460.944 668.156 460.143 668.234 459.258 668.234C457.747 668.234 456.569 667.85 455.723 667.082C454.889 666.301 454.473 664.94 454.473 663V650.402H451.465V647.609H454.473V640.793H457.656V647.609H461.66V650.402ZM487.5 654.953C487.461 654.354 487.324 653.768 487.09 653.195C486.868 652.622 486.536 652.076 486.094 651.555C485.664 651.034 485.072 650.617 484.316 650.305C483.574 649.992 482.715 649.836 481.738 649.836C480.801 649.836 479.948 649.992 479.18 650.305C478.424 650.604 477.793 651.014 477.285 651.535C476.79 652.043 476.367 652.648 476.016 653.352C475.677 654.042 475.43 654.758 475.273 655.5C475.13 656.242 475.059 657.01 475.059 657.805C475.059 658.807 475.182 659.764 475.43 660.676C475.677 661.587 476.055 662.434 476.562 663.215C477.07 663.983 477.767 664.602 478.652 665.07C479.551 665.526 480.579 665.754 481.738 665.754C482.728 665.754 483.594 665.598 484.336 665.285C485.091 664.973 485.684 664.556 486.113 664.035C486.543 663.501 486.868 662.941 487.09 662.355C487.324 661.757 487.461 661.132 487.5 660.48H490.703C490.56 662.824 489.655 664.758 487.988 666.281C486.322 667.805 484.238 668.566 481.738 668.566C478.77 668.566 476.38 667.577 474.57 665.598C472.76 663.618 471.855 661.021 471.855 657.805C471.855 654.589 472.76 651.991 474.57 650.012C476.38 648.033 478.77 647.043 481.738 647.043C484.212 647.043 486.263 647.785 487.891 649.27C489.518 650.741 490.456 652.635 490.703 654.953H487.5ZM502.598 668.566C505.658 668.566 508.079 667.577 509.863 665.598C511.66 663.618 512.559 661.021 512.559 657.805C512.559 654.589 511.66 651.991 509.863 650.012C508.079 648.033 505.658 647.043 502.598 647.043C499.525 647.043 497.09 648.033 495.293 650.012C493.496 651.978 492.598 654.576 492.598 657.805C492.598 661.034 493.496 663.638 495.293 665.617C497.09 667.583 499.525 668.566 502.598 668.566ZM502.598 665.754C500.397 665.754 498.711 665.005 497.539 663.508C496.38 662.01 495.801 660.109 495.801 657.805C495.801 655.5 496.38 653.599 497.539 652.102C498.711 650.591 500.397 649.836 502.598 649.836C504.772 649.836 506.439 650.591 507.598 652.102C508.77 653.599 509.355 655.5 509.355 657.805C509.355 660.109 508.77 662.01 507.598 663.508C506.439 665.005 504.772 665.754 502.598 665.754ZM537.109 647.043C539.141 647.043 540.671 647.622 541.699 648.781C542.728 649.927 543.242 651.587 543.242 653.762V668H540.039V654.562C540.039 653.833 539.993 653.215 539.902 652.707C539.811 652.186 539.635 651.698 539.375 651.242C539.128 650.773 538.743 650.422 538.223 650.188C537.715 649.953 537.077 649.836 536.309 649.836C534.733 649.836 533.47 650.344 532.52 651.359C531.582 652.375 531.113 653.684 531.113 655.285V668H527.91V654.562C527.91 653.833 527.865 653.215 527.773 652.707C527.682 652.186 527.513 651.698 527.266 651.242C527.018 650.773 526.634 650.422 526.113 650.188C525.605 649.953 524.967 649.836 524.199 649.836C522.624 649.836 521.361 650.344 520.41 651.359C519.46 652.375 518.984 653.684 518.984 655.285V668H515.801V647.609H518.984V650.031H519.082C520.566 648.039 522.539 647.043 525 647.043C527.76 647.043 529.57 648.215 530.43 650.559H530.508C532.227 648.215 534.427 647.043 537.109 647.043ZM549.512 643.645C549.03 643.645 548.574 643.469 548.145 643.117C547.728 642.753 547.52 642.284 547.52 641.711C547.52 641.138 547.728 640.676 548.145 640.324C548.561 639.973 549.017 639.797 549.512 639.797C550.02 639.797 550.475 639.973 550.879 640.324C551.296 640.676 551.504 641.138 551.504 641.711C551.504 642.284 551.296 642.753 550.879 643.117C550.475 643.469 550.02 643.645 549.512 643.645ZM547.91 647.609H551.113V668H547.91V647.609ZM565.918 647.043C566.868 647.043 567.747 647.18 568.555 647.453C569.362 647.714 570.085 648.111 570.723 648.645C571.361 649.165 571.855 649.868 572.207 650.754C572.572 651.626 572.754 652.629 572.754 653.762V668H569.551V654.562C569.551 653.143 569.193 652.004 568.477 651.145C567.76 650.272 566.641 649.836 565.117 649.836C563.333 649.836 561.882 650.35 560.762 651.379C559.655 652.395 559.102 653.697 559.102 655.285V668H555.918V647.609H559.102V650.031H559.199C559.824 649.185 560.697 648.475 561.816 647.902C562.949 647.329 564.316 647.043 565.918 647.043ZM591.562 647.609H594.766V666.887C594.766 669.569 593.971 671.6 592.383 672.98C590.794 674.374 588.574 675.07 585.723 675.07C583.027 675.07 580.853 674.452 579.199 673.215C577.559 671.991 576.654 670.467 576.484 668.645H579.688C579.896 669.764 580.475 670.65 581.426 671.301C582.376 671.952 583.757 672.277 585.566 672.277C589.564 672.277 591.562 670.467 591.562 666.848V663.762H591.484C590.039 665.897 587.878 666.965 585 666.965C583.724 666.965 582.539 666.757 581.445 666.34C580.352 665.923 579.388 665.318 578.555 664.523C577.721 663.716 577.064 662.674 576.582 661.398C576.113 660.109 575.879 658.645 575.879 657.004C575.879 655.363 576.113 653.905 576.582 652.629C577.064 651.34 577.721 650.298 578.555 649.504C579.388 648.697 580.352 648.085 581.445 647.668C582.539 647.251 583.724 647.043 585 647.043C587.76 647.043 589.922 648.072 591.484 650.129H591.562V647.609ZM585.41 664.152C587.35 664.152 588.861 663.553 589.941 662.355C591.022 661.145 591.562 659.361 591.562 657.004C591.562 654.647 591.022 652.863 589.941 651.652C588.861 650.441 587.35 649.836 585.41 649.836C583.392 649.836 581.829 650.507 580.723 651.848C579.629 653.189 579.082 654.908 579.082 657.004C579.082 659.1 579.629 660.819 580.723 662.16C581.829 663.488 583.392 664.152 585.41 664.152ZM615.449 655.871C615.605 655.91 615.853 655.969 616.191 656.047C617.103 656.268 617.793 656.444 618.262 656.574C618.743 656.704 619.355 656.939 620.098 657.277C620.84 657.603 621.393 657.967 621.758 658.371C622.135 658.762 622.467 659.309 622.754 660.012C623.053 660.702 623.203 661.496 623.203 662.395C623.203 664.23 622.448 665.721 620.938 666.867C619.427 668 617.5 668.566 615.156 668.566C612.148 668.566 609.87 667.915 608.32 666.613C606.771 665.298 605.944 663.495 605.84 661.203H609.043C609.082 661.724 609.154 662.18 609.258 662.57C609.362 662.948 609.544 663.352 609.805 663.781C610.078 664.211 610.423 664.562 610.84 664.836C611.27 665.096 611.849 665.318 612.578 665.5C613.307 665.669 614.167 665.754 615.156 665.754C616.745 665.754 617.949 665.428 618.77 664.777C619.59 664.126 620 663.404 620 662.609C620 662.245 619.954 661.913 619.863 661.613C619.772 661.314 619.661 661.06 619.531 660.852C619.414 660.643 619.232 660.454 618.984 660.285C618.737 660.103 618.509 659.96 618.301 659.855C618.105 659.738 617.819 659.628 617.441 659.523C617.064 659.406 616.751 659.322 616.504 659.27C616.27 659.204 615.918 659.12 615.449 659.016C614.993 658.911 614.642 658.827 614.395 658.762C614.147 658.697 613.737 658.605 613.164 658.488C612.604 658.371 612.161 658.273 611.836 658.195C611.523 658.117 611.107 657.993 610.586 657.824C610.065 657.655 609.648 657.486 609.336 657.316C609.023 657.147 608.672 656.919 608.281 656.633C607.904 656.346 607.611 656.034 607.402 655.695C607.194 655.357 607.012 654.947 606.855 654.465C606.712 653.97 606.641 653.43 606.641 652.844C606.641 651.19 607.331 649.81 608.711 648.703C610.091 647.596 611.947 647.043 614.277 647.043C616.712 647.043 618.633 647.648 620.039 648.859C621.445 650.057 622.233 651.587 622.402 653.449H619.199C619.121 653.072 619.03 652.746 618.926 652.473C618.835 652.186 618.672 651.867 618.438 651.516C618.203 651.164 617.917 650.878 617.578 650.656C617.253 650.422 616.803 650.227 616.23 650.07C615.671 649.914 615.02 649.836 614.277 649.836C612.884 649.836 611.797 650.096 611.016 650.617C610.234 651.125 609.844 651.789 609.844 652.609C609.844 653 609.922 653.345 610.078 653.645C610.247 653.944 610.43 654.185 610.625 654.367C610.833 654.549 611.159 654.725 611.602 654.895C612.057 655.064 612.422 655.188 612.695 655.266C612.982 655.331 613.444 655.435 614.082 655.578C614.72 655.708 615.176 655.806 615.449 655.871ZM635.527 668.566C638.587 668.566 641.009 667.577 642.793 665.598C644.59 663.618 645.488 661.021 645.488 657.805C645.488 654.589 644.59 651.991 642.793 650.012C641.009 648.033 638.587 647.043 635.527 647.043C632.454 647.043 630.02 648.033 628.223 650.012C626.426 651.978 625.527 654.576 625.527 657.805C625.527 661.034 626.426 663.638 628.223 665.617C630.02 667.583 632.454 668.566 635.527 668.566ZM635.527 665.754C633.327 665.754 631.641 665.005 630.469 663.508C629.31 662.01 628.73 660.109 628.73 657.805C628.73 655.5 629.31 653.599 630.469 652.102C631.641 650.591 633.327 649.836 635.527 649.836C637.702 649.836 639.368 650.591 640.527 652.102C641.699 653.599 642.285 655.5 642.285 657.805C642.285 660.109 641.699 662.01 640.527 663.508C639.368 665.005 637.702 665.754 635.527 665.754ZM657.559 668.566C660.618 668.566 663.04 667.577 664.824 665.598C666.621 663.618 667.52 661.021 667.52 657.805C667.52 654.589 666.621 651.991 664.824 650.012C663.04 648.033 660.618 647.043 657.559 647.043C654.486 647.043 652.051 648.033 650.254 650.012C648.457 651.978 647.559 654.576 647.559 657.805C647.559 661.034 648.457 663.638 650.254 665.617C652.051 667.583 654.486 668.566 657.559 668.566ZM657.559 665.754C655.358 665.754 653.672 665.005 652.5 663.508C651.341 662.01 650.762 660.109 650.762 657.805C650.762 655.5 651.341 653.599 652.5 652.102C653.672 650.591 655.358 649.836 657.559 649.836C659.733 649.836 661.4 650.591 662.559 652.102C663.73 653.599 664.316 655.5 664.316 657.805C664.316 660.109 663.73 662.01 662.559 663.508C661.4 665.005 659.733 665.754 657.559 665.754ZM680.762 647.043C681.712 647.043 682.591 647.18 683.398 647.453C684.206 647.714 684.928 648.111 685.566 648.645C686.204 649.165 686.699 649.868 687.051 650.754C687.415 651.626 687.598 652.629 687.598 653.762V668H684.395V654.562C684.395 653.143 684.036 652.004 683.32 651.145C682.604 650.272 681.484 649.836 679.961 649.836C678.177 649.836 676.725 650.35 675.605 651.379C674.499 652.395 673.945 653.697 673.945 655.285V668H670.762V647.609H673.945V650.031H674.043C674.668 649.185 675.54 648.475 676.66 647.902C677.793 647.329 679.16 647.043 680.762 647.043Z" fill="#BCBCBC"/>
<rect x="3" y="3" width="940" height="1187" rx="35" stroke="#BCBCBC" stroke-width="6" stroke-dasharray="40 40"/>
</svg>
