<svg width="973" height="299" viewBox="0 0 973 299" fill="none" xmlns="http://www.w3.org/2000/svg">
<rect width="973" height="299" rx="12" fill="#F5F5F5"/>
<circle cx="146.5" cy="149.5" r="98.5" fill="#5645F5"/>
<path d="M183.792 186.751C171.667 186.751 155.5 182.709 155.5 154.418V122.084C155.5 117.032 158.556 113.932 163.583 114.001H179.75C184.802 114.001 187.833 117.032 187.833 121.971V146.334C187.833 151.387 184.802 154.418 179.75 154.418C175.708 154.418 175.708 154.418 175.708 158.459V162.501C175.708 166.543 179.75 170.584 183.792 170.584C187.833 170.584 187.833 170.617 187.833 174.751V182.709C187.833 186.751 187.833 186.751 183.792 186.751Z" stroke="white" stroke-opacity="0.8" stroke-width="2" stroke-linecap="round" stroke-linejoin="round"/>
<path d="M135.292 186.751C123.167 186.751 107 182.709 107 154.418V122.084C107 117.032 110.06 113.932 115.083 114.001H131.25C136.302 114.001 139.333 117.032 139.333 121.971V146.334C139.333 151.387 136.302 154.418 131.25 154.418H128.219C128.219 163.512 127.208 170.584 139.333 170.584V182.709C139.333 186.751 139.333 186.751 135.292 186.751Z" stroke="white" stroke-opacity="0.8" stroke-width="2" stroke-linecap="round" stroke-linejoin="round"/>
<path d="M287.441 77.9062H292.207V89.7422H305.723V77.9062H310.488V106.5H305.723V93.8242H292.207V106.5H287.441V77.9062ZM316.992 104.137C318.841 106.116 321.348 107.105 324.512 107.105C327.676 107.105 330.182 106.116 332.031 104.137C333.88 102.145 334.805 99.5339 334.805 96.3047C334.805 93.0755 333.88 90.4714 332.031 88.4922C330.182 86.5 327.676 85.5039 324.512 85.5039C321.348 85.5039 318.841 86.5 316.992 88.4922C315.156 90.4714 314.238 93.0755 314.238 96.3047C314.238 99.5339 315.156 102.145 316.992 104.137ZM329.004 101.617C327.949 102.984 326.452 103.668 324.512 103.668C322.572 103.668 321.074 102.984 320.02 101.617C318.965 100.25 318.438 98.4792 318.438 96.3047C318.438 94.1042 318.965 92.3268 320.02 90.9727C321.074 89.6185 322.572 88.9414 324.512 88.9414C326.452 88.9414 327.949 89.625 329.004 90.9922C330.072 92.3464 330.605 94.1172 330.605 96.3047C330.605 98.4792 330.072 100.25 329.004 101.617ZM335.234 86.0508H339.668L343.828 101.578H343.926L348.086 86.0508H352.188L356.387 101.578H356.484L360.605 86.0508H365.039L358.789 106.5H354.551L350.156 90.8945H350.078L345.723 106.5H341.523L335.234 86.0508ZM375.215 106.5V77.9062H381.367L389.375 99.8984H389.453L397.422 77.9062H403.574V106.5H398.926V84.8203H398.848L391.289 106.5H387.5L379.941 84.8203H379.844V106.5H375.215ZM410.371 82.6133C409.746 82.6133 409.193 82.4115 408.711 82.0078C408.242 81.6042 408.008 81.0638 408.008 80.3867C408.008 79.7096 408.242 79.1758 408.711 78.7852C409.193 78.3815 409.746 78.1797 410.371 78.1797C411.035 78.1797 411.602 78.375 412.07 78.7656C412.539 79.1562 412.773 79.6966 412.773 80.3867C412.773 81.0768 412.533 81.6237 412.051 82.0273C411.582 82.418 411.022 82.6133 410.371 82.6133ZM408.301 86.0508H412.5V106.5H408.301V86.0508ZM430.918 86.0508H435.117V105.094C435.117 107.958 434.303 110.087 432.676 111.48C431.048 112.874 428.743 113.57 425.762 113.57C422.962 113.57 420.729 112.945 419.062 111.695C417.396 110.445 416.445 108.902 416.211 107.066H420.449C420.905 109.163 422.624 110.211 425.605 110.211C427.389 110.211 428.717 109.781 429.59 108.922C430.475 108.076 430.918 106.747 430.918 104.938V102.457H430.84C429.408 104.488 427.344 105.504 424.648 105.504C422.005 105.504 419.85 104.625 418.184 102.867C416.517 101.096 415.684 98.6419 415.684 95.5039C415.684 92.3529 416.517 89.8984 418.184 88.1406C419.85 86.3828 422.005 85.5039 424.648 85.5039C427.318 85.5039 429.382 86.487 430.84 88.4531H430.918V86.0508ZM425.449 102.066C427.168 102.066 428.503 101.507 429.453 100.387C430.404 99.2669 430.879 97.6393 430.879 95.5039C430.879 93.3685 430.404 91.7409 429.453 90.6211C428.503 89.5013 427.168 88.9414 425.449 88.9414C423.665 88.9414 422.292 89.5469 421.328 90.7578C420.365 91.9557 419.883 93.5378 419.883 95.5039C419.883 97.457 420.365 99.0391 421.328 100.25C422.292 101.461 423.665 102.066 425.449 102.066ZM450.039 85.5039C452.083 85.5039 453.737 86.0898 455 87.2617C456.276 88.4206 456.914 90.1263 456.914 92.3789V106.5H452.676V93.5703C452.676 90.5625 451.315 89.0586 448.594 89.0586C447.031 89.0586 445.755 89.5143 444.766 90.4258C443.789 91.3372 443.301 92.5482 443.301 94.0586V106.5H439.102V77.9062H443.301V88.707H443.398C444.01 87.7956 444.87 87.0339 445.977 86.4219C447.096 85.8099 448.451 85.5039 450.039 85.5039ZM470.117 89.5078H466.289V100.582C466.289 101.155 466.361 101.617 466.504 101.969C466.647 102.307 466.875 102.561 467.188 102.73C467.5 102.9 467.897 103.004 468.379 103.043C468.861 103.069 469.44 103.062 470.117 103.023V106.461C469.219 106.669 468.262 106.773 467.246 106.773C465.501 106.773 464.193 106.324 463.32 105.426C462.461 104.527 462.031 103.03 462.031 100.934V89.5078H459.082V86.0508H462.031V79.625H466.289V86.0508H470.117V89.5078ZM479.18 77.9062H484.062L488.945 100.055H489.023L494.785 77.9062H499.668L505.469 100.055H505.547L510.43 77.9062H515.312L508.145 106.5H503.145L497.266 84.0977H497.188L491.348 106.5H486.309L479.18 77.9062ZM524.551 103.668C525.371 103.668 526.113 103.551 526.777 103.316C527.441 103.082 527.969 102.783 528.359 102.418C528.763 102.053 529.076 101.695 529.297 101.344C529.531 100.979 529.701 100.621 529.805 100.27H534.004C533.457 102.327 532.389 103.98 530.801 105.23C529.212 106.48 527.168 107.105 524.668 107.105C521.517 107.105 519.023 106.116 517.188 104.137C515.352 102.158 514.434 99.5469 514.434 96.3047C514.434 92.9844 515.339 90.3542 517.148 88.4141C518.958 86.474 521.4 85.5039 524.473 85.5039C527.702 85.5039 530.15 86.5521 531.816 88.6484C533.483 90.7448 534.316 93.6549 534.316 97.3789H518.633C518.633 99.1628 519.167 100.66 520.234 101.871C521.315 103.069 522.754 103.668 524.551 103.668ZM524.473 88.8242C522.767 88.8242 521.367 89.3385 520.273 90.3672C519.18 91.3828 518.633 92.6784 518.633 94.2539H530.117C530.117 92.6654 529.596 91.3633 528.555 90.3477C527.526 89.332 526.165 88.8242 524.473 88.8242ZM559.18 77.9062H563.379V106.5H559.18V104.137H559.102C558.464 104.97 557.624 105.673 556.582 106.246C555.54 106.819 554.297 107.105 552.852 107.105C550.182 107.105 547.995 106.129 546.289 104.176C544.583 102.223 543.73 99.599 543.73 96.3047C543.73 93.0104 544.583 90.3867 546.289 88.4336C547.995 86.4805 550.182 85.5039 552.852 85.5039C554.323 85.5039 555.579 85.7904 556.621 86.3633C557.676 86.9232 558.503 87.6458 559.102 88.5312H559.18V77.9062ZM553.574 103.668C555.293 103.668 556.647 103.01 557.637 101.695C558.639 100.367 559.141 98.5703 559.141 96.3047C559.141 94.026 558.639 92.2292 557.637 90.9141C556.647 89.599 555.293 88.9414 553.574 88.9414C551.803 88.9414 550.417 89.6445 549.414 91.0508C548.424 92.457 547.93 94.2083 547.93 96.3047C547.93 98.401 548.424 100.152 549.414 101.559C550.417 102.965 551.803 103.668 553.574 103.668ZM576.426 103.668C577.246 103.668 577.988 103.551 578.652 103.316C579.316 103.082 579.844 102.783 580.234 102.418C580.638 102.053 580.951 101.695 581.172 101.344C581.406 100.979 581.576 100.621 581.68 100.27H585.879C585.332 102.327 584.264 103.98 582.676 105.23C581.087 106.48 579.043 107.105 576.543 107.105C573.392 107.105 570.898 106.116 569.062 104.137C567.227 102.158 566.309 99.5469 566.309 96.3047C566.309 92.9844 567.214 90.3542 569.023 88.4141C570.833 86.474 573.275 85.5039 576.348 85.5039C579.577 85.5039 582.025 86.5521 583.691 88.6484C585.358 90.7448 586.191 93.6549 586.191 97.3789H570.508C570.508 99.1628 571.042 100.66 572.109 101.871C573.19 103.069 574.629 103.668 576.426 103.668ZM576.348 88.8242C574.642 88.8242 573.242 89.3385 572.148 90.3672C571.055 91.3828 570.508 92.6784 570.508 94.2539H581.992C581.992 92.6654 581.471 91.3633 580.43 90.3477C579.401 89.332 578.04 88.8242 576.348 88.8242ZM597.91 94.1367C600.007 94.6315 601.471 95.0677 602.305 95.4453C604.219 96.3177 605.332 97.6719 605.645 99.5078C605.71 99.8984 605.742 100.309 605.742 100.738C605.742 102.691 604.98 104.241 603.457 105.387C601.934 106.533 599.922 107.105 597.422 107.105C594.258 107.105 591.888 106.441 590.312 105.113C588.737 103.785 587.897 101.982 587.793 99.7031H591.875C591.927 100.315 592.038 100.842 592.207 101.285C592.389 101.728 592.669 102.151 593.047 102.555C593.438 102.958 593.991 103.264 594.707 103.473C595.423 103.681 596.302 103.785 597.344 103.785C598.698 103.785 599.727 103.512 600.43 102.965C601.146 102.418 601.504 101.78 601.504 101.051C601.504 100.777 601.478 100.523 601.426 100.289C601.374 100.055 601.283 99.8464 601.152 99.6641C601.022 99.4818 600.892 99.319 600.762 99.1758C600.645 99.0326 600.462 98.9023 600.215 98.7852C599.98 98.668 599.772 98.5703 599.59 98.4922C599.408 98.401 599.147 98.3099 598.809 98.2188C598.47 98.1276 598.19 98.056 597.969 98.0039C597.76 97.9518 597.448 97.8802 597.031 97.7891C596.628 97.6979 596.309 97.6263 596.074 97.5742C594.212 97.1315 593.047 96.832 592.578 96.6758C590.534 95.9857 589.251 94.9049 588.73 93.4336C588.535 92.8737 588.438 92.2422 588.438 91.5391C588.438 89.8073 589.16 88.3685 590.605 87.2227C592.051 86.0768 594.017 85.5039 596.504 85.5039C599.147 85.5039 601.185 86.1224 602.617 87.3594C604.062 88.5964 604.857 90.1654 605 92.0664H600.918C600.84 91.6107 600.723 91.2135 600.566 90.875C600.41 90.5234 600.176 90.1849 599.863 89.8594C599.551 89.5208 599.115 89.2669 598.555 89.0977C597.995 88.9154 597.324 88.8242 596.543 88.8242C595.306 88.8242 594.349 89.0391 593.672 89.4688C593.008 89.8984 592.676 90.4844 592.676 91.2266C592.676 91.513 592.715 91.7734 592.793 92.0078C592.871 92.2292 593.008 92.4245 593.203 92.5938C593.411 92.763 593.6 92.9062 593.77 93.0234C593.952 93.1406 594.238 93.2578 594.629 93.375C595.02 93.4792 595.326 93.5638 595.547 93.6289C595.781 93.681 596.165 93.7656 596.699 93.8828C597.233 93.987 597.637 94.0716 597.91 94.1367ZM610.918 82.6133C610.293 82.6133 609.74 82.4115 609.258 82.0078C608.789 81.6042 608.555 81.0638 608.555 80.3867C608.555 79.7096 608.789 79.1758 609.258 78.7852C609.74 78.3815 610.293 78.1797 610.918 78.1797C611.582 78.1797 612.148 78.375 612.617 78.7656C613.086 79.1562 613.32 79.6966 613.32 80.3867C613.32 81.0768 613.079 81.6237 612.598 82.0273C612.129 82.418 611.569 82.6133 610.918 82.6133ZM608.848 86.0508H613.047V106.5H608.848V86.0508ZM631.465 86.0508H635.664V105.094C635.664 107.958 634.85 110.087 633.223 111.48C631.595 112.874 629.29 113.57 626.309 113.57C623.509 113.57 621.276 112.945 619.609 111.695C617.943 110.445 616.992 108.902 616.758 107.066H620.996C621.452 109.163 623.171 110.211 626.152 110.211C627.936 110.211 629.264 109.781 630.137 108.922C631.022 108.076 631.465 106.747 631.465 104.938V102.457H631.387C629.954 104.488 627.891 105.504 625.195 105.504C622.552 105.504 620.397 104.625 618.73 102.867C617.064 101.096 616.23 98.6419 616.23 95.5039C616.23 92.3529 617.064 89.8984 618.73 88.1406C620.397 86.3828 622.552 85.5039 625.195 85.5039C627.865 85.5039 629.928 86.487 631.387 88.4531H631.465V86.0508ZM625.996 102.066C627.715 102.066 629.049 101.507 630 100.387C630.951 99.2669 631.426 97.6393 631.426 95.5039C631.426 93.3685 630.951 91.7409 630 90.6211C629.049 89.5013 627.715 88.9414 625.996 88.9414C624.212 88.9414 622.839 89.5469 621.875 90.7578C620.911 91.9557 620.43 93.5378 620.43 95.5039C620.43 97.457 620.911 99.0391 621.875 100.25C622.839 101.461 624.212 102.066 625.996 102.066ZM650.664 85.5039C652.669 85.5039 654.303 86.0898 655.566 87.2617C656.829 88.4206 657.461 90.1263 657.461 92.3789V106.5H653.223V93.5703C653.223 90.5625 651.875 89.0586 649.18 89.0586C647.552 89.0586 646.257 89.5143 645.293 90.4258C644.329 91.3242 643.848 92.5352 643.848 94.0586V106.5H639.648V86.0508H643.848V88.707H643.945C644.557 87.7956 645.423 87.0339 646.543 86.4219C647.676 85.8099 649.049 85.5039 650.664 85.5039ZM679.434 85.5039C682.103 85.5039 684.29 86.4805 685.996 88.4336C687.702 90.3867 688.555 93.0104 688.555 96.3047C688.555 99.599 687.702 102.223 685.996 104.176C684.29 106.129 682.103 107.105 679.434 107.105C677.988 107.105 676.745 106.819 675.703 106.246C674.674 105.673 673.841 104.97 673.203 104.137H673.105V106.5H668.906V77.9062H673.105V88.5312H673.203C673.815 87.6458 674.635 86.9232 675.664 86.3633C676.706 85.7904 677.962 85.5039 679.434 85.5039ZM678.711 103.668C680.482 103.668 681.862 102.965 682.852 101.559C683.854 100.152 684.355 98.401 684.355 96.3047C684.355 94.2083 683.854 92.457 682.852 91.0508C681.862 89.6445 680.482 88.9414 678.711 88.9414C676.992 88.9414 675.632 89.599 674.629 90.9141C673.639 92.2292 673.145 94.026 673.145 96.3047C673.145 98.5703 673.639 100.367 674.629 101.695C675.632 103.01 676.992 103.668 678.711 103.668ZM700.527 103.668C701.348 103.668 702.09 103.551 702.754 103.316C703.418 103.082 703.945 102.783 704.336 102.418C704.74 102.053 705.052 101.695 705.273 101.344C705.508 100.979 705.677 100.621 705.781 100.27H709.98C709.434 102.327 708.366 103.98 706.777 105.23C705.189 106.48 703.145 107.105 700.645 107.105C697.493 107.105 695 106.116 693.164 104.137C691.328 102.158 690.41 99.5469 690.41 96.3047C690.41 92.9844 691.315 90.3542 693.125 88.4141C694.935 86.474 697.376 85.5039 700.449 85.5039C703.678 85.5039 706.126 86.5521 707.793 88.6484C709.46 90.7448 710.293 93.6549 710.293 97.3789H694.609C694.609 99.1628 695.143 100.66 696.211 101.871C697.292 103.069 698.73 103.668 700.527 103.668ZM700.449 88.8242C698.743 88.8242 697.344 89.3385 696.25 90.3672C695.156 91.3828 694.609 92.6784 694.609 94.2539H706.094C706.094 92.6654 705.573 91.3633 704.531 90.3477C703.503 89.332 702.142 88.8242 700.449 88.8242ZM722.539 89.5078H718.711V100.582C718.711 101.155 718.783 101.617 718.926 101.969C719.069 102.307 719.297 102.561 719.609 102.73C719.922 102.9 720.319 103.004 720.801 103.043C721.283 103.069 721.862 103.062 722.539 103.023V106.461C721.641 106.669 720.684 106.773 719.668 106.773C717.923 106.773 716.615 106.324 715.742 105.426C714.883 104.527 714.453 103.03 714.453 100.934V89.5078H711.504V86.0508H714.453V79.625H718.711V86.0508H722.539V89.5078ZM734.844 89.5078H731.016V100.582C731.016 101.155 731.087 101.617 731.23 101.969C731.374 102.307 731.602 102.561 731.914 102.73C732.227 102.9 732.624 103.004 733.105 103.043C733.587 103.069 734.167 103.062 734.844 103.023V106.461C733.945 106.669 732.988 106.773 731.973 106.773C730.228 106.773 728.919 106.324 728.047 105.426C727.188 104.527 726.758 103.03 726.758 100.934V89.5078H723.809V86.0508H726.758V79.625H731.016V86.0508H734.844V89.5078ZM746.738 103.668C747.559 103.668 748.301 103.551 748.965 103.316C749.629 103.082 750.156 102.783 750.547 102.418C750.951 102.053 751.263 101.695 751.484 101.344C751.719 100.979 751.888 100.621 751.992 100.27H756.191C755.645 102.327 754.577 103.98 752.988 105.23C751.4 106.48 749.355 107.105 746.855 107.105C743.704 107.105 741.211 106.116 739.375 104.137C737.539 102.158 736.621 99.5469 736.621 96.3047C736.621 92.9844 737.526 90.3542 739.336 88.4141C741.146 86.474 743.587 85.5039 746.66 85.5039C749.889 85.5039 752.337 86.5521 754.004 88.6484C755.671 90.7448 756.504 93.6549 756.504 97.3789H740.82C740.82 99.1628 741.354 100.66 742.422 101.871C743.503 103.069 744.941 103.668 746.738 103.668ZM746.66 88.8242C744.954 88.8242 743.555 89.3385 742.461 90.3672C741.367 91.3828 740.82 92.6784 740.82 94.2539H752.305C752.305 92.6654 751.784 91.3633 750.742 90.3477C749.714 89.332 748.353 88.8242 746.66 88.8242ZM769.102 85.582C769.727 85.582 770.339 85.6211 770.938 85.6992V89.6641H770.859C768.828 89.3255 767.103 89.7682 765.684 90.9922C764.277 92.2031 763.574 93.8893 763.574 96.0508V106.5H759.375V86.0508H763.574V89.8984H763.672C764.883 87.0208 766.693 85.582 769.102 85.582ZM779.336 86.0508H783.77L787.93 101.578H788.027L792.188 86.0508H796.289L800.488 101.578H800.586L804.707 86.0508H809.141L802.891 106.5H798.652L794.258 90.8945H794.18L789.824 106.5H785.625L779.336 86.0508ZM822.91 91.4219C822.91 89.6901 821.686 88.8242 819.238 88.8242C817.572 88.8242 816.38 89.1042 815.664 89.6641C814.948 90.224 814.538 91.168 814.434 92.4961H810.352C810.456 90.3867 811.23 88.694 812.676 87.418C814.134 86.1419 816.322 85.5039 819.238 85.5039C824.486 85.5039 827.109 87.8867 827.109 92.6523V102.379C827.109 103.16 827.24 103.72 827.5 104.059C827.773 104.384 828.301 104.508 829.082 104.43V106.422C828.301 106.708 827.487 106.852 826.641 106.852C825.521 106.852 824.674 106.637 824.102 106.207C823.529 105.777 823.145 105.061 822.949 104.059H822.871C822.194 104.996 821.276 105.738 820.117 106.285C818.971 106.832 817.637 107.105 816.113 107.105C814.056 107.105 812.422 106.572 811.211 105.504C810 104.423 809.395 103.01 809.395 101.266C809.395 100.393 809.525 99.6185 809.785 98.9414C810.059 98.2513 810.423 97.6719 810.879 97.2031C811.335 96.7214 811.927 96.2982 812.656 95.9336C813.398 95.569 814.167 95.276 814.961 95.0547C815.768 94.8203 816.725 94.5924 817.832 94.3711C818.392 94.2669 818.822 94.1823 819.121 94.1172C819.421 94.0521 819.779 93.9674 820.195 93.8633C820.625 93.7591 820.951 93.6615 821.172 93.5703C821.393 93.4792 821.634 93.362 821.895 93.2188C822.155 93.0755 822.344 92.9258 822.461 92.7695C822.591 92.6003 822.695 92.4049 822.773 92.1836C822.865 91.9492 822.91 91.6953 822.91 91.4219ZM817.031 103.785C818.815 103.785 820.241 103.349 821.309 102.477C822.376 101.604 822.91 100.361 822.91 98.7461V95.6602C822.246 96.1289 820.82 96.5846 818.633 97.0273C816.849 97.418 815.566 97.8997 814.785 98.4727C814.017 99.0456 813.633 99.8398 813.633 100.855C813.633 102.809 814.766 103.785 817.031 103.785ZM849.023 86.0508L840.859 107.789C840.599 108.505 840.352 109.111 840.117 109.605C839.896 110.1 839.603 110.608 839.238 111.129C838.887 111.663 838.503 112.079 838.086 112.379C837.669 112.691 837.155 112.945 836.543 113.141C835.931 113.349 835.241 113.453 834.473 113.453C833.535 113.453 832.533 113.323 831.465 113.062V109.859H831.816C832.663 110.003 833.431 110.003 834.121 109.859C834.824 109.716 835.391 109.384 835.82 108.863C836.094 108.525 836.315 108.147 836.484 107.73C836.654 107.314 836.738 106.812 836.738 106.227C836.738 105.628 836.621 105.029 836.387 104.43L828.984 86.0508H833.496L839.219 101.695H839.297L844.551 86.0508H849.023ZM859.707 94.1367C861.803 94.6315 863.268 95.0677 864.102 95.4453C866.016 96.3177 867.129 97.6719 867.441 99.5078C867.507 99.8984 867.539 100.309 867.539 100.738C867.539 102.691 866.777 104.241 865.254 105.387C863.73 106.533 861.719 107.105 859.219 107.105C856.055 107.105 853.685 106.441 852.109 105.113C850.534 103.785 849.694 101.982 849.59 99.7031H853.672C853.724 100.315 853.835 100.842 854.004 101.285C854.186 101.728 854.466 102.151 854.844 102.555C855.234 102.958 855.788 103.264 856.504 103.473C857.22 103.681 858.099 103.785 859.141 103.785C860.495 103.785 861.523 103.512 862.227 102.965C862.943 102.418 863.301 101.78 863.301 101.051C863.301 100.777 863.275 100.523 863.223 100.289C863.171 100.055 863.079 99.8464 862.949 99.6641C862.819 99.4818 862.689 99.319 862.559 99.1758C862.441 99.0326 862.259 98.9023 862.012 98.7852C861.777 98.668 861.569 98.5703 861.387 98.4922C861.204 98.401 860.944 98.3099 860.605 98.2188C860.267 98.1276 859.987 98.056 859.766 98.0039C859.557 97.9518 859.245 97.8802 858.828 97.7891C858.424 97.6979 858.105 97.6263 857.871 97.5742C856.009 97.1315 854.844 96.832 854.375 96.6758C852.331 95.9857 851.048 94.9049 850.527 93.4336C850.332 92.8737 850.234 92.2422 850.234 91.5391C850.234 89.8073 850.957 88.3685 852.402 87.2227C853.848 86.0768 855.814 85.5039 858.301 85.5039C860.944 85.5039 862.982 86.1224 864.414 87.3594C865.859 88.5964 866.654 90.1654 866.797 92.0664H862.715C862.637 91.6107 862.52 91.2135 862.363 90.875C862.207 90.5234 861.973 90.1849 861.66 89.8594C861.348 89.5208 860.911 89.2669 860.352 89.0977C859.792 88.9154 859.121 88.8242 858.34 88.8242C857.103 88.8242 856.146 89.0391 855.469 89.4688C854.805 89.8984 854.473 90.4844 854.473 91.2266C854.473 91.513 854.512 91.7734 854.59 92.0078C854.668 92.2292 854.805 92.4245 855 92.5938C855.208 92.763 855.397 92.9062 855.566 93.0234C855.749 93.1406 856.035 93.2578 856.426 93.375C856.816 93.4792 857.122 93.5638 857.344 93.6289C857.578 93.681 857.962 93.7656 858.496 93.8828C859.03 93.987 859.434 94.0716 859.707 94.1367ZM887.734 89.5078H883.906V100.582C883.906 101.155 883.978 101.617 884.121 101.969C884.264 102.307 884.492 102.561 884.805 102.73C885.117 102.9 885.514 103.004 885.996 103.043C886.478 103.069 887.057 103.062 887.734 103.023V106.461C886.836 106.669 885.879 106.773 884.863 106.773C883.118 106.773 881.81 106.324 880.938 105.426C880.078 104.527 879.648 103.03 879.648 100.934V89.5078H876.699V86.0508H879.648V79.625H883.906V86.0508H887.734V89.5078ZM892.266 104.137C894.115 106.116 896.621 107.105 899.785 107.105C902.949 107.105 905.456 106.116 907.305 104.137C909.154 102.145 910.078 99.5339 910.078 96.3047C910.078 93.0755 909.154 90.4714 907.305 88.4922C905.456 86.5 902.949 85.5039 899.785 85.5039C896.621 85.5039 894.115 86.5 892.266 88.4922C890.43 90.4714 889.512 93.0755 889.512 96.3047C889.512 99.5339 890.43 102.145 892.266 104.137ZM904.277 101.617C903.223 102.984 901.725 103.668 899.785 103.668C897.845 103.668 896.348 102.984 895.293 101.617C894.238 100.25 893.711 98.4792 893.711 96.3047C893.711 94.1042 894.238 92.3268 895.293 90.9727C896.348 89.6185 897.845 88.9414 899.785 88.9414C901.725 88.9414 903.223 89.625 904.277 90.9922C905.345 92.3464 905.879 94.1172 905.879 96.3047C905.879 98.4792 905.345 100.25 904.277 101.617ZM298.008 143.504C300.013 143.504 301.647 144.09 302.91 145.262C304.173 146.421 304.805 148.126 304.805 150.379V164.5H300.566V151.57C300.566 148.562 299.219 147.059 296.523 147.059C294.896 147.059 293.6 147.514 292.637 148.426C291.673 149.324 291.191 150.535 291.191 152.059V164.5H286.992V144.051H291.191V146.707H291.289C291.901 145.796 292.767 145.034 293.887 144.422C295.02 143.81 296.393 143.504 298.008 143.504ZM320.996 149.422C320.996 147.69 319.772 146.824 317.324 146.824C315.658 146.824 314.466 147.104 313.75 147.664C313.034 148.224 312.624 149.168 312.52 150.496H308.438C308.542 148.387 309.316 146.694 310.762 145.418C312.22 144.142 314.408 143.504 317.324 143.504C322.572 143.504 325.195 145.887 325.195 150.652V160.379C325.195 161.16 325.326 161.72 325.586 162.059C325.859 162.384 326.387 162.508 327.168 162.43V164.422C326.387 164.708 325.573 164.852 324.727 164.852C323.607 164.852 322.76 164.637 322.188 164.207C321.615 163.777 321.23 163.061 321.035 162.059H320.957C320.28 162.996 319.362 163.738 318.203 164.285C317.057 164.832 315.723 165.105 314.199 165.105C312.142 165.105 310.508 164.572 309.297 163.504C308.086 162.423 307.48 161.01 307.48 159.266C307.48 158.393 307.611 157.618 307.871 156.941C308.145 156.251 308.509 155.672 308.965 155.203C309.421 154.721 310.013 154.298 310.742 153.934C311.484 153.569 312.253 153.276 313.047 153.055C313.854 152.82 314.811 152.592 315.918 152.371C316.478 152.267 316.908 152.182 317.207 152.117C317.507 152.052 317.865 151.967 318.281 151.863C318.711 151.759 319.036 151.661 319.258 151.57C319.479 151.479 319.72 151.362 319.98 151.219C320.241 151.076 320.43 150.926 320.547 150.77C320.677 150.6 320.781 150.405 320.859 150.184C320.951 149.949 320.996 149.695 320.996 149.422ZM315.117 161.785C316.901 161.785 318.327 161.349 319.395 160.477C320.462 159.604 320.996 158.361 320.996 156.746V153.66C320.332 154.129 318.906 154.585 316.719 155.027C314.935 155.418 313.652 155.9 312.871 156.473C312.103 157.046 311.719 157.84 311.719 158.855C311.719 160.809 312.852 161.785 315.117 161.785ZM327.227 144.051H331.66L336.836 160.066H336.875L342.031 144.051H346.465L339.219 164.5H334.473L327.227 144.051ZM350.84 140.613C350.215 140.613 349.661 140.411 349.18 140.008C348.711 139.604 348.477 139.064 348.477 138.387C348.477 137.71 348.711 137.176 349.18 136.785C349.661 136.382 350.215 136.18 350.84 136.18C351.504 136.18 352.07 136.375 352.539 136.766C353.008 137.156 353.242 137.697 353.242 138.387C353.242 139.077 353.001 139.624 352.52 140.027C352.051 140.418 351.491 140.613 350.84 140.613ZM348.77 144.051H352.969V164.5H348.77V144.051ZM371.387 144.051H375.586V163.094C375.586 165.958 374.772 168.087 373.145 169.48C371.517 170.874 369.212 171.57 366.23 171.57C363.431 171.57 361.198 170.945 359.531 169.695C357.865 168.445 356.914 166.902 356.68 165.066H360.918C361.374 167.163 363.092 168.211 366.074 168.211C367.858 168.211 369.186 167.781 370.059 166.922C370.944 166.076 371.387 164.747 371.387 162.938V160.457H371.309C369.876 162.488 367.812 163.504 365.117 163.504C362.474 163.504 360.319 162.625 358.652 160.867C356.986 159.096 356.152 156.642 356.152 153.504C356.152 150.353 356.986 147.898 358.652 146.141C360.319 144.383 362.474 143.504 365.117 143.504C367.786 143.504 369.85 144.487 371.309 146.453H371.387V144.051ZM365.918 160.066C367.637 160.066 368.971 159.507 369.922 158.387C370.872 157.267 371.348 155.639 371.348 153.504C371.348 151.368 370.872 149.741 369.922 148.621C368.971 147.501 367.637 146.941 365.918 146.941C364.134 146.941 362.76 147.547 361.797 148.758C360.833 149.956 360.352 151.538 360.352 153.504C360.352 155.457 360.833 157.039 361.797 158.25C362.76 159.461 364.134 160.066 365.918 160.066ZM391.934 149.422C391.934 147.69 390.71 146.824 388.262 146.824C386.595 146.824 385.404 147.104 384.688 147.664C383.971 148.224 383.561 149.168 383.457 150.496H379.375C379.479 148.387 380.254 146.694 381.699 145.418C383.158 144.142 385.345 143.504 388.262 143.504C393.509 143.504 396.133 145.887 396.133 150.652V160.379C396.133 161.16 396.263 161.72 396.523 162.059C396.797 162.384 397.324 162.508 398.105 162.43V164.422C397.324 164.708 396.51 164.852 395.664 164.852C394.544 164.852 393.698 164.637 393.125 164.207C392.552 163.777 392.168 163.061 391.973 162.059H391.895C391.217 162.996 390.299 163.738 389.141 164.285C387.995 164.832 386.66 165.105 385.137 165.105C383.079 165.105 381.445 164.572 380.234 163.504C379.023 162.423 378.418 161.01 378.418 159.266C378.418 158.393 378.548 157.618 378.809 156.941C379.082 156.251 379.447 155.672 379.902 155.203C380.358 154.721 380.951 154.298 381.68 153.934C382.422 153.569 383.19 153.276 383.984 153.055C384.792 152.82 385.749 152.592 386.855 152.371C387.415 152.267 387.845 152.182 388.145 152.117C388.444 152.052 388.802 151.967 389.219 151.863C389.648 151.759 389.974 151.661 390.195 151.57C390.417 151.479 390.658 151.362 390.918 151.219C391.178 151.076 391.367 150.926 391.484 150.77C391.615 150.6 391.719 150.405 391.797 150.184C391.888 149.949 391.934 149.695 391.934 149.422ZM386.055 161.785C387.839 161.785 389.264 161.349 390.332 160.477C391.4 159.604 391.934 158.361 391.934 156.746V153.66C391.27 154.129 389.844 154.585 387.656 155.027C385.872 155.418 384.59 155.9 383.809 156.473C383.04 157.046 382.656 157.84 382.656 158.855C382.656 160.809 383.789 161.785 386.055 161.785ZM409.922 147.508H406.094V158.582C406.094 159.155 406.165 159.617 406.309 159.969C406.452 160.307 406.68 160.561 406.992 160.73C407.305 160.9 407.702 161.004 408.184 161.043C408.665 161.069 409.245 161.062 409.922 161.023V164.461C409.023 164.669 408.066 164.773 407.051 164.773C405.306 164.773 403.997 164.324 403.125 163.426C402.266 162.527 401.836 161.03 401.836 158.934V147.508H398.887V144.051H401.836V137.625H406.094V144.051H409.922V147.508ZM421.816 161.668C422.637 161.668 423.379 161.551 424.043 161.316C424.707 161.082 425.234 160.783 425.625 160.418C426.029 160.053 426.341 159.695 426.562 159.344C426.797 158.979 426.966 158.621 427.07 158.27H431.27C430.723 160.327 429.655 161.98 428.066 163.23C426.478 164.48 424.434 165.105 421.934 165.105C418.783 165.105 416.289 164.116 414.453 162.137C412.617 160.158 411.699 157.547 411.699 154.305C411.699 150.984 412.604 148.354 414.414 146.414C416.224 144.474 418.665 143.504 421.738 143.504C424.967 143.504 427.415 144.552 429.082 146.648C430.749 148.745 431.582 151.655 431.582 155.379H415.898C415.898 157.163 416.432 158.66 417.5 159.871C418.581 161.069 420.02 161.668 421.816 161.668ZM421.738 146.824C420.033 146.824 418.633 147.339 417.539 148.367C416.445 149.383 415.898 150.678 415.898 152.254H427.383C427.383 150.665 426.862 149.363 425.82 148.348C424.792 147.332 423.431 146.824 421.738 146.824ZM442.52 164.5V135.906H453.633C457.604 135.906 460.716 137.156 462.969 139.656C465.234 142.143 466.367 145.665 466.367 150.223C466.367 154.793 465.26 158.315 463.047 160.789C460.833 163.263 457.734 164.5 453.75 164.5H442.52ZM447.285 139.949V160.457H453.398C458.867 160.457 461.602 157.046 461.602 150.223C461.602 143.374 458.867 139.949 453.398 139.949H447.285ZM478.77 161.668C479.59 161.668 480.332 161.551 480.996 161.316C481.66 161.082 482.188 160.783 482.578 160.418C482.982 160.053 483.294 159.695 483.516 159.344C483.75 158.979 483.919 158.621 484.023 158.27H488.223C487.676 160.327 486.608 161.98 485.02 163.23C483.431 164.48 481.387 165.105 478.887 165.105C475.736 165.105 473.242 164.116 471.406 162.137C469.57 160.158 468.652 157.547 468.652 154.305C468.652 150.984 469.557 148.354 471.367 146.414C473.177 144.474 475.618 143.504 478.691 143.504C481.921 143.504 484.368 144.552 486.035 146.648C487.702 148.745 488.535 151.655 488.535 155.379H472.852C472.852 157.163 473.385 158.66 474.453 159.871C475.534 161.069 476.973 161.668 478.77 161.668ZM478.691 146.824C476.986 146.824 475.586 147.339 474.492 148.367C473.398 149.383 472.852 150.678 472.852 152.254H484.336C484.336 150.665 483.815 149.363 482.773 148.348C481.745 147.332 480.384 146.824 478.691 146.824ZM490.859 152.371H501.621V156.297H490.859V152.371ZM510.254 148.27H522.598V152.332H510.254V164.5H505.488V135.906H525.488V139.949H510.254V148.27ZM530.84 140.613C530.215 140.613 529.661 140.411 529.18 140.008C528.711 139.604 528.477 139.064 528.477 138.387C528.477 137.71 528.711 137.176 529.18 136.785C529.661 136.382 530.215 136.18 530.84 136.18C531.504 136.18 532.07 136.375 532.539 136.766C533.008 137.156 533.242 137.697 533.242 138.387C533.242 139.077 533.001 139.624 532.52 140.027C532.051 140.418 531.491 140.613 530.84 140.613ZM528.77 144.051H532.969V164.5H528.77V144.051ZM542.93 144.051H547.363L551.523 159.578H551.621L555.781 144.051H559.883L564.082 159.578H564.18L568.301 144.051H572.734L566.484 164.5H562.246L557.852 148.895H557.773L553.418 164.5H549.219L542.93 144.051ZM586.504 149.422C586.504 147.69 585.28 146.824 582.832 146.824C581.165 146.824 579.974 147.104 579.258 147.664C578.542 148.224 578.132 149.168 578.027 150.496H573.945C574.049 148.387 574.824 146.694 576.27 145.418C577.728 144.142 579.915 143.504 582.832 143.504C588.079 143.504 590.703 145.887 590.703 150.652V160.379C590.703 161.16 590.833 161.72 591.094 162.059C591.367 162.384 591.895 162.508 592.676 162.43V164.422C591.895 164.708 591.081 164.852 590.234 164.852C589.115 164.852 588.268 164.637 587.695 164.207C587.122 163.777 586.738 163.061 586.543 162.059H586.465C585.788 162.996 584.87 163.738 583.711 164.285C582.565 164.832 581.23 165.105 579.707 165.105C577.65 165.105 576.016 164.572 574.805 163.504C573.594 162.423 572.988 161.01 572.988 159.266C572.988 158.393 573.118 157.618 573.379 156.941C573.652 156.251 574.017 155.672 574.473 155.203C574.928 154.721 575.521 154.298 576.25 153.934C576.992 153.569 577.76 153.276 578.555 153.055C579.362 152.82 580.319 152.592 581.426 152.371C581.986 152.267 582.415 152.182 582.715 152.117C583.014 152.052 583.372 151.967 583.789 151.863C584.219 151.759 584.544 151.661 584.766 151.57C584.987 151.479 585.228 151.362 585.488 151.219C585.749 151.076 585.938 150.926 586.055 150.77C586.185 150.6 586.289 150.405 586.367 150.184C586.458 149.949 586.504 149.695 586.504 149.422ZM580.625 161.785C582.409 161.785 583.835 161.349 584.902 160.477C585.97 159.604 586.504 158.361 586.504 156.746V153.66C585.84 154.129 584.414 154.585 582.227 155.027C580.443 155.418 579.16 155.9 578.379 156.473C577.611 157.046 577.227 157.84 577.227 158.855C577.227 160.809 578.359 161.785 580.625 161.785ZM595.195 135.906H599.453V164.5H595.195V135.906ZM603.281 135.906H607.539V164.5H603.281V135.906ZM620.645 161.668C621.465 161.668 622.207 161.551 622.871 161.316C623.535 161.082 624.062 160.783 624.453 160.418C624.857 160.053 625.169 159.695 625.391 159.344C625.625 158.979 625.794 158.621 625.898 158.27H630.098C629.551 160.327 628.483 161.98 626.895 163.23C625.306 164.48 623.262 165.105 620.762 165.105C617.611 165.105 615.117 164.116 613.281 162.137C611.445 160.158 610.527 157.547 610.527 154.305C610.527 150.984 611.432 148.354 613.242 146.414C615.052 144.474 617.493 143.504 620.566 143.504C623.796 143.504 626.243 144.552 627.91 146.648C629.577 148.745 630.41 151.655 630.41 155.379H614.727C614.727 157.163 615.26 158.66 616.328 159.871C617.409 161.069 618.848 161.668 620.645 161.668ZM620.566 146.824C618.861 146.824 617.461 147.339 616.367 148.367C615.273 149.383 614.727 150.678 614.727 152.254H626.211C626.211 150.665 625.69 149.363 624.648 148.348C623.62 147.332 622.259 146.824 620.566 146.824ZM642.656 147.508H638.828V158.582C638.828 159.155 638.9 159.617 639.043 159.969C639.186 160.307 639.414 160.561 639.727 160.73C640.039 160.9 640.436 161.004 640.918 161.043C641.4 161.069 641.979 161.062 642.656 161.023V164.461C641.758 164.669 640.801 164.773 639.785 164.773C638.04 164.773 636.732 164.324 635.859 163.426C635 162.527 634.57 161.03 634.57 158.934V147.508H631.621V144.051H634.57V137.625H638.828V144.051H642.656V147.508ZM654.668 152.137C656.764 152.632 658.229 153.068 659.062 153.445C660.977 154.318 662.09 155.672 662.402 157.508C662.467 157.898 662.5 158.309 662.5 158.738C662.5 160.691 661.738 162.241 660.215 163.387C658.691 164.533 656.68 165.105 654.18 165.105C651.016 165.105 648.646 164.441 647.07 163.113C645.495 161.785 644.655 159.982 644.551 157.703H648.633C648.685 158.315 648.796 158.842 648.965 159.285C649.147 159.728 649.427 160.151 649.805 160.555C650.195 160.958 650.749 161.264 651.465 161.473C652.181 161.681 653.06 161.785 654.102 161.785C655.456 161.785 656.484 161.512 657.188 160.965C657.904 160.418 658.262 159.78 658.262 159.051C658.262 158.777 658.236 158.523 658.184 158.289C658.132 158.055 658.04 157.846 657.91 157.664C657.78 157.482 657.65 157.319 657.52 157.176C657.402 157.033 657.22 156.902 656.973 156.785C656.738 156.668 656.53 156.57 656.348 156.492C656.165 156.401 655.905 156.31 655.566 156.219C655.228 156.128 654.948 156.056 654.727 156.004C654.518 155.952 654.206 155.88 653.789 155.789C653.385 155.698 653.066 155.626 652.832 155.574C650.97 155.132 649.805 154.832 649.336 154.676C647.292 153.986 646.009 152.905 645.488 151.434C645.293 150.874 645.195 150.242 645.195 149.539C645.195 147.807 645.918 146.368 647.363 145.223C648.809 144.077 650.775 143.504 653.262 143.504C655.905 143.504 657.943 144.122 659.375 145.359C660.82 146.596 661.615 148.165 661.758 150.066H657.676C657.598 149.611 657.48 149.214 657.324 148.875C657.168 148.523 656.934 148.185 656.621 147.859C656.309 147.521 655.872 147.267 655.312 147.098C654.753 146.915 654.082 146.824 653.301 146.824C652.064 146.824 651.107 147.039 650.43 147.469C649.766 147.898 649.434 148.484 649.434 149.227C649.434 149.513 649.473 149.773 649.551 150.008C649.629 150.229 649.766 150.424 649.961 150.594C650.169 150.763 650.358 150.906 650.527 151.023C650.71 151.141 650.996 151.258 651.387 151.375C651.777 151.479 652.083 151.564 652.305 151.629C652.539 151.681 652.923 151.766 653.457 151.883C653.991 151.987 654.395 152.072 654.668 152.137ZM682.695 147.508H678.867V158.582C678.867 159.155 678.939 159.617 679.082 159.969C679.225 160.307 679.453 160.561 679.766 160.73C680.078 160.9 680.475 161.004 680.957 161.043C681.439 161.069 682.018 161.062 682.695 161.023V164.461C681.797 164.669 680.84 164.773 679.824 164.773C678.079 164.773 676.771 164.324 675.898 163.426C675.039 162.527 674.609 161.03 674.609 158.934V147.508H671.66V144.051H674.609V137.625H678.867V144.051H682.695V147.508ZM696.68 143.504C698.724 143.504 700.378 144.09 701.641 145.262C702.917 146.421 703.555 148.126 703.555 150.379V164.5H699.316V151.57C699.316 148.562 697.956 147.059 695.234 147.059C693.672 147.059 692.396 147.514 691.406 148.426C690.43 149.337 689.941 150.548 689.941 152.059V164.5H685.742V135.906H689.941V146.707H690.039C690.651 145.796 691.51 145.034 692.617 144.422C693.737 143.81 695.091 143.504 696.68 143.504ZM719.746 149.422C719.746 147.69 718.522 146.824 716.074 146.824C714.408 146.824 713.216 147.104 712.5 147.664C711.784 148.224 711.374 149.168 711.27 150.496H707.188C707.292 148.387 708.066 146.694 709.512 145.418C710.97 144.142 713.158 143.504 716.074 143.504C721.322 143.504 723.945 145.887 723.945 150.652V160.379C723.945 161.16 724.076 161.72 724.336 162.059C724.609 162.384 725.137 162.508 725.918 162.43V164.422C725.137 164.708 724.323 164.852 723.477 164.852C722.357 164.852 721.51 164.637 720.938 164.207C720.365 163.777 719.98 163.061 719.785 162.059H719.707C719.03 162.996 718.112 163.738 716.953 164.285C715.807 164.832 714.473 165.105 712.949 165.105C710.892 165.105 709.258 164.572 708.047 163.504C706.836 162.423 706.23 161.01 706.23 159.266C706.23 158.393 706.361 157.618 706.621 156.941C706.895 156.251 707.259 155.672 707.715 155.203C708.171 154.721 708.763 154.298 709.492 153.934C710.234 153.569 711.003 153.276 711.797 153.055C712.604 152.82 713.561 152.592 714.668 152.371C715.228 152.267 715.658 152.182 715.957 152.117C716.257 152.052 716.615 151.967 717.031 151.863C717.461 151.759 717.786 151.661 718.008 151.57C718.229 151.479 718.47 151.362 718.73 151.219C718.991 151.076 719.18 150.926 719.297 150.77C719.427 150.6 719.531 150.405 719.609 150.184C719.701 149.949 719.746 149.695 719.746 149.422ZM713.867 161.785C715.651 161.785 717.077 161.349 718.145 160.477C719.212 159.604 719.746 158.361 719.746 156.746V153.66C719.082 154.129 717.656 154.585 715.469 155.027C713.685 155.418 712.402 155.9 711.621 156.473C710.853 157.046 710.469 157.84 710.469 158.855C710.469 160.809 711.602 161.785 713.867 161.785ZM737.734 147.508H733.906V158.582C733.906 159.155 733.978 159.617 734.121 159.969C734.264 160.307 734.492 160.561 734.805 160.73C735.117 160.9 735.514 161.004 735.996 161.043C736.478 161.069 737.057 161.062 737.734 161.023V164.461C736.836 164.669 735.879 164.773 734.863 164.773C733.118 164.773 731.81 164.324 730.938 163.426C730.078 162.527 729.648 161.03 729.648 158.934V147.508H726.699V144.051H729.648V137.625H733.906V144.051H737.734V147.508ZM758.926 143.504C761.595 143.504 763.783 144.48 765.488 146.434C767.194 148.387 768.047 151.01 768.047 154.305C768.047 157.599 767.194 160.223 765.488 162.176C763.783 164.129 761.595 165.105 758.926 165.105C757.48 165.105 756.237 164.819 755.195 164.246C754.167 163.673 753.333 162.97 752.695 162.137H752.598V164.5H748.398V135.906H752.598V146.531H752.695C753.307 145.646 754.128 144.923 755.156 144.363C756.198 143.79 757.454 143.504 758.926 143.504ZM758.203 161.668C759.974 161.668 761.354 160.965 762.344 159.559C763.346 158.152 763.848 156.401 763.848 154.305C763.848 152.208 763.346 150.457 762.344 149.051C761.354 147.645 759.974 146.941 758.203 146.941C756.484 146.941 755.124 147.599 754.121 148.914C753.132 150.229 752.637 152.026 752.637 154.305C752.637 156.57 753.132 158.367 754.121 159.695C755.124 161.01 756.484 161.668 758.203 161.668ZM783.34 149.422C783.34 147.69 782.116 146.824 779.668 146.824C778.001 146.824 776.81 147.104 776.094 147.664C775.378 148.224 774.967 149.168 774.863 150.496H770.781C770.885 148.387 771.66 146.694 773.105 145.418C774.564 144.142 776.751 143.504 779.668 143.504C784.915 143.504 787.539 145.887 787.539 150.652V160.379C787.539 161.16 787.669 161.72 787.93 162.059C788.203 162.384 788.73 162.508 789.512 162.43V164.422C788.73 164.708 787.917 164.852 787.07 164.852C785.951 164.852 785.104 164.637 784.531 164.207C783.958 163.777 783.574 163.061 783.379 162.059H783.301C782.624 162.996 781.706 163.738 780.547 164.285C779.401 164.832 778.066 165.105 776.543 165.105C774.486 165.105 772.852 164.572 771.641 163.504C770.43 162.423 769.824 161.01 769.824 159.266C769.824 158.393 769.954 157.618 770.215 156.941C770.488 156.251 770.853 155.672 771.309 155.203C771.764 154.721 772.357 154.298 773.086 153.934C773.828 153.569 774.596 153.276 775.391 153.055C776.198 152.82 777.155 152.592 778.262 152.371C778.822 152.267 779.251 152.182 779.551 152.117C779.85 152.052 780.208 151.967 780.625 151.863C781.055 151.759 781.38 151.661 781.602 151.57C781.823 151.479 782.064 151.362 782.324 151.219C782.585 151.076 782.773 150.926 782.891 150.77C783.021 150.6 783.125 150.405 783.203 150.184C783.294 149.949 783.34 149.695 783.34 149.422ZM777.461 161.785C779.245 161.785 780.671 161.349 781.738 160.477C782.806 159.604 783.34 158.361 783.34 156.746V153.66C782.676 154.129 781.25 154.585 779.062 155.027C777.279 155.418 775.996 155.9 775.215 156.473C774.447 157.046 774.062 157.84 774.062 158.855C774.062 160.809 775.195 161.785 777.461 161.785ZM792.031 135.906H796.289V164.5H792.031V135.906ZM812.715 149.422C812.715 147.69 811.491 146.824 809.043 146.824C807.376 146.824 806.185 147.104 805.469 147.664C804.753 148.224 804.342 149.168 804.238 150.496H800.156C800.26 148.387 801.035 146.694 802.48 145.418C803.939 144.142 806.126 143.504 809.043 143.504C814.29 143.504 816.914 145.887 816.914 150.652V160.379C816.914 161.16 817.044 161.72 817.305 162.059C817.578 162.384 818.105 162.508 818.887 162.43V164.422C818.105 164.708 817.292 164.852 816.445 164.852C815.326 164.852 814.479 164.637 813.906 164.207C813.333 163.777 812.949 163.061 812.754 162.059H812.676C811.999 162.996 811.081 163.738 809.922 164.285C808.776 164.832 807.441 165.105 805.918 165.105C803.861 165.105 802.227 164.572 801.016 163.504C799.805 162.423 799.199 161.01 799.199 159.266C799.199 158.393 799.329 157.618 799.59 156.941C799.863 156.251 800.228 155.672 800.684 155.203C801.139 154.721 801.732 154.298 802.461 153.934C803.203 153.569 803.971 153.276 804.766 153.055C805.573 152.82 806.53 152.592 807.637 152.371C808.197 152.267 808.626 152.182 808.926 152.117C809.225 152.052 809.583 151.967 810 151.863C810.43 151.759 810.755 151.661 810.977 151.57C811.198 151.479 811.439 151.362 811.699 151.219C811.96 151.076 812.148 150.926 812.266 150.77C812.396 150.6 812.5 150.405 812.578 150.184C812.669 149.949 812.715 149.695 812.715 149.422ZM806.836 161.785C808.62 161.785 810.046 161.349 811.113 160.477C812.181 159.604 812.715 158.361 812.715 156.746V153.66C812.051 154.129 810.625 154.585 808.438 155.027C806.654 155.418 805.371 155.9 804.59 156.473C803.822 157.046 803.438 157.84 803.438 158.855C803.438 160.809 804.57 161.785 806.836 161.785ZM832.344 143.504C834.349 143.504 835.983 144.09 837.246 145.262C838.509 146.421 839.141 148.126 839.141 150.379V164.5H834.902V151.57C834.902 148.562 833.555 147.059 830.859 147.059C829.232 147.059 827.936 147.514 826.973 148.426C826.009 149.324 825.527 150.535 825.527 152.059V164.5H821.328V144.051H825.527V146.707H825.625C826.237 145.796 827.103 145.034 828.223 144.422C829.355 143.81 830.729 143.504 832.344 143.504ZM857.051 151.531C857.012 150.971 856.888 150.438 856.68 149.93C856.484 149.422 856.191 148.94 855.801 148.484C855.423 148.016 854.902 147.645 854.238 147.371C853.587 147.085 852.832 146.941 851.973 146.941C850.983 146.941 850.098 147.143 849.316 147.547C848.548 147.951 847.936 148.497 847.48 149.188C847.025 149.878 846.68 150.659 846.445 151.531C846.211 152.391 846.094 153.315 846.094 154.305C846.094 155.294 846.204 156.225 846.426 157.098C846.66 157.957 847.005 158.732 847.461 159.422C847.917 160.112 848.529 160.659 849.297 161.062C850.078 161.466 850.97 161.668 851.973 161.668C852.832 161.668 853.587 161.531 854.238 161.258C854.902 160.984 855.423 160.613 855.801 160.145C856.191 159.663 856.484 159.155 856.68 158.621C856.888 158.087 857.012 157.514 857.051 156.902H861.25C861.094 159.298 860.163 161.264 858.457 162.801C856.751 164.337 854.59 165.105 851.973 165.105C848.926 165.105 846.484 164.109 844.648 162.117C842.812 160.125 841.895 157.521 841.895 154.305C841.895 151.089 842.812 148.484 844.648 146.492C846.484 144.5 848.913 143.504 851.934 143.504C854.538 143.504 856.673 144.253 858.34 145.75C860.007 147.234 860.977 149.161 861.25 151.531H857.051ZM873.066 161.668C873.887 161.668 874.629 161.551 875.293 161.316C875.957 161.082 876.484 160.783 876.875 160.418C877.279 160.053 877.591 159.695 877.812 159.344C878.047 158.979 878.216 158.621 878.32 158.27H882.52C881.973 160.327 880.905 161.98 879.316 163.23C877.728 164.48 875.684 165.105 873.184 165.105C870.033 165.105 867.539 164.116 865.703 162.137C863.867 160.158 862.949 157.547 862.949 154.305C862.949 150.984 863.854 148.354 865.664 146.414C867.474 144.474 869.915 143.504 872.988 143.504C876.217 143.504 878.665 144.552 880.332 146.648C881.999 148.745 882.832 151.655 882.832 155.379H867.148C867.148 157.163 867.682 158.66 868.75 159.871C869.831 161.069 871.27 161.668 873.066 161.668ZM872.988 146.824C871.283 146.824 869.883 147.339 868.789 148.367C867.695 149.383 867.148 150.678 867.148 152.254H878.633C878.633 150.665 878.112 149.363 877.07 148.348C876.042 147.332 874.681 146.824 872.988 146.824ZM894.551 152.137C896.647 152.632 898.112 153.068 898.945 153.445C900.859 154.318 901.973 155.672 902.285 157.508C902.35 157.898 902.383 158.309 902.383 158.738C902.383 160.691 901.621 162.241 900.098 163.387C898.574 164.533 896.562 165.105 894.062 165.105C890.898 165.105 888.529 164.441 886.953 163.113C885.378 161.785 884.538 159.982 884.434 157.703H888.516C888.568 158.315 888.678 158.842 888.848 159.285C889.03 159.728 889.31 160.151 889.688 160.555C890.078 160.958 890.632 161.264 891.348 161.473C892.064 161.681 892.943 161.785 893.984 161.785C895.339 161.785 896.367 161.512 897.07 160.965C897.786 160.418 898.145 159.78 898.145 159.051C898.145 158.777 898.118 158.523 898.066 158.289C898.014 158.055 897.923 157.846 897.793 157.664C897.663 157.482 897.533 157.319 897.402 157.176C897.285 157.033 897.103 156.902 896.855 156.785C896.621 156.668 896.413 156.57 896.23 156.492C896.048 156.401 895.788 156.31 895.449 156.219C895.111 156.128 894.831 156.056 894.609 156.004C894.401 155.952 894.089 155.88 893.672 155.789C893.268 155.698 892.949 155.626 892.715 155.574C890.853 155.132 889.688 154.832 889.219 154.676C887.174 153.986 885.892 152.905 885.371 151.434C885.176 150.874 885.078 150.242 885.078 149.539C885.078 147.807 885.801 146.368 887.246 145.223C888.691 144.077 890.658 143.504 893.145 143.504C895.788 143.504 897.826 144.122 899.258 145.359C900.703 146.596 901.497 148.165 901.641 150.066H897.559C897.48 149.611 897.363 149.214 897.207 148.875C897.051 148.523 896.816 148.185 896.504 147.859C896.191 147.521 895.755 147.267 895.195 147.098C894.635 146.915 893.965 146.824 893.184 146.824C891.947 146.824 890.99 147.039 890.312 147.469C889.648 147.898 889.316 148.484 889.316 149.227C889.316 149.513 889.355 149.773 889.434 150.008C889.512 150.229 889.648 150.424 889.844 150.594C890.052 150.763 890.241 150.906 890.41 151.023C890.592 151.141 890.879 151.258 891.27 151.375C891.66 151.479 891.966 151.564 892.188 151.629C892.422 151.681 892.806 151.766 893.34 151.883C893.874 151.987 894.277 152.072 894.551 152.137ZM296.641 197.344C295.195 197.279 294.206 197.402 293.672 197.715C293.138 198.014 292.871 198.717 292.871 199.824V202.051H296.641V205.508H292.871V222.5H288.633V205.508H285.723V202.051H288.633V199.453C288.633 197.357 289.062 195.859 289.922 194.961C290.794 194.062 292.103 193.613 293.848 193.613C294.655 193.613 295.586 193.711 296.641 193.906V197.344ZM312.871 202.051H317.07V222.5H312.871V219.863H312.773C312.161 220.775 311.289 221.536 310.156 222.148C309.036 222.76 307.669 223.066 306.055 223.066C304.049 223.066 302.415 222.48 301.152 221.309C299.889 220.137 299.258 218.424 299.258 216.172V202.051H303.496V214.98C303.496 217.988 304.844 219.492 307.539 219.492C309.167 219.492 310.462 219.043 311.426 218.145C312.389 217.233 312.871 216.016 312.871 214.492V202.051ZM332.07 201.504C334.076 201.504 335.71 202.09 336.973 203.262C338.236 204.421 338.867 206.126 338.867 208.379V222.5H334.629V209.57C334.629 206.562 333.281 205.059 330.586 205.059C328.958 205.059 327.663 205.514 326.699 206.426C325.736 207.324 325.254 208.535 325.254 210.059V222.5H321.055V202.051H325.254V204.707H325.352C325.964 203.796 326.829 203.034 327.949 202.422C329.082 201.81 330.456 201.504 332.07 201.504ZM356.777 209.531C356.738 208.971 356.615 208.438 356.406 207.93C356.211 207.422 355.918 206.94 355.527 206.484C355.15 206.016 354.629 205.645 353.965 205.371C353.314 205.085 352.559 204.941 351.699 204.941C350.71 204.941 349.824 205.143 349.043 205.547C348.275 205.951 347.663 206.497 347.207 207.188C346.751 207.878 346.406 208.659 346.172 209.531C345.938 210.391 345.82 211.315 345.82 212.305C345.82 213.294 345.931 214.225 346.152 215.098C346.387 215.957 346.732 216.732 347.188 217.422C347.643 218.112 348.255 218.659 349.023 219.062C349.805 219.466 350.697 219.668 351.699 219.668C352.559 219.668 353.314 219.531 353.965 219.258C354.629 218.984 355.15 218.613 355.527 218.145C355.918 217.663 356.211 217.155 356.406 216.621C356.615 216.087 356.738 215.514 356.777 214.902H360.977C360.82 217.298 359.889 219.264 358.184 220.801C356.478 222.337 354.316 223.105 351.699 223.105C348.652 223.105 346.211 222.109 344.375 220.117C342.539 218.125 341.621 215.521 341.621 212.305C341.621 209.089 342.539 206.484 344.375 204.492C346.211 202.5 348.639 201.504 351.66 201.504C354.264 201.504 356.4 202.253 358.066 203.75C359.733 205.234 360.703 207.161 360.977 209.531H356.777ZM373.516 205.508H369.688V216.582C369.688 217.155 369.759 217.617 369.902 217.969C370.046 218.307 370.273 218.561 370.586 218.73C370.898 218.9 371.296 219.004 371.777 219.043C372.259 219.069 372.839 219.062 373.516 219.023V222.461C372.617 222.669 371.66 222.773 370.645 222.773C368.9 222.773 367.591 222.324 366.719 221.426C365.859 220.527 365.43 219.03 365.43 216.934V205.508H362.48V202.051H365.43V195.625H369.688V202.051H373.516V205.508ZM378.926 198.613C378.301 198.613 377.747 198.411 377.266 198.008C376.797 197.604 376.562 197.064 376.562 196.387C376.562 195.71 376.797 195.176 377.266 194.785C377.747 194.382 378.301 194.18 378.926 194.18C379.59 194.18 380.156 194.375 380.625 194.766C381.094 195.156 381.328 195.697 381.328 196.387C381.328 197.077 381.087 197.624 380.605 198.027C380.137 198.418 379.577 198.613 378.926 198.613ZM376.855 202.051H381.055V222.5H376.855V202.051ZM386.992 220.137C388.841 222.116 391.348 223.105 394.512 223.105C397.676 223.105 400.182 222.116 402.031 220.137C403.88 218.145 404.805 215.534 404.805 212.305C404.805 209.076 403.88 206.471 402.031 204.492C400.182 202.5 397.676 201.504 394.512 201.504C391.348 201.504 388.841 202.5 386.992 204.492C385.156 206.471 384.238 209.076 384.238 212.305C384.238 215.534 385.156 218.145 386.992 220.137ZM399.004 217.617C397.949 218.984 396.452 219.668 394.512 219.668C392.572 219.668 391.074 218.984 390.02 217.617C388.965 216.25 388.438 214.479 388.438 212.305C388.438 210.104 388.965 208.327 390.02 206.973C391.074 205.618 392.572 204.941 394.512 204.941C396.452 204.941 397.949 205.625 399.004 206.992C400.072 208.346 400.605 210.117 400.605 212.305C400.605 214.479 400.072 216.25 399.004 217.617ZM418.711 201.504C420.716 201.504 422.35 202.09 423.613 203.262C424.876 204.421 425.508 206.126 425.508 208.379V222.5H421.27V209.57C421.27 206.562 419.922 205.059 417.227 205.059C415.599 205.059 414.303 205.514 413.34 206.426C412.376 207.324 411.895 208.535 411.895 210.059V222.5H407.695V202.051H411.895V204.707H411.992C412.604 203.796 413.47 203.034 414.59 202.422C415.723 201.81 417.096 201.504 418.711 201.504ZM441.699 207.422C441.699 205.69 440.475 204.824 438.027 204.824C436.361 204.824 435.169 205.104 434.453 205.664C433.737 206.224 433.327 207.168 433.223 208.496H429.141C429.245 206.387 430.02 204.694 431.465 203.418C432.923 202.142 435.111 201.504 438.027 201.504C443.275 201.504 445.898 203.887 445.898 208.652V218.379C445.898 219.16 446.029 219.72 446.289 220.059C446.562 220.384 447.09 220.508 447.871 220.43V222.422C447.09 222.708 446.276 222.852 445.43 222.852C444.31 222.852 443.464 222.637 442.891 222.207C442.318 221.777 441.934 221.061 441.738 220.059H441.66C440.983 220.996 440.065 221.738 438.906 222.285C437.76 222.832 436.426 223.105 434.902 223.105C432.845 223.105 431.211 222.572 430 221.504C428.789 220.423 428.184 219.01 428.184 217.266C428.184 216.393 428.314 215.618 428.574 214.941C428.848 214.251 429.212 213.672 429.668 213.203C430.124 212.721 430.716 212.298 431.445 211.934C432.188 211.569 432.956 211.276 433.75 211.055C434.557 210.82 435.514 210.592 436.621 210.371C437.181 210.267 437.611 210.182 437.91 210.117C438.21 210.052 438.568 209.967 438.984 209.863C439.414 209.759 439.74 209.661 439.961 209.57C440.182 209.479 440.423 209.362 440.684 209.219C440.944 209.076 441.133 208.926 441.25 208.77C441.38 208.6 441.484 208.405 441.562 208.184C441.654 207.949 441.699 207.695 441.699 207.422ZM435.82 219.785C437.604 219.785 439.03 219.349 440.098 218.477C441.165 217.604 441.699 216.361 441.699 214.746V211.66C441.035 212.129 439.609 212.585 437.422 213.027C435.638 213.418 434.355 213.9 433.574 214.473C432.806 215.046 432.422 215.84 432.422 216.855C432.422 218.809 433.555 219.785 435.82 219.785ZM450.391 193.906H454.648V222.5H450.391V193.906ZM460.762 198.613C460.137 198.613 459.583 198.411 459.102 198.008C458.633 197.604 458.398 197.064 458.398 196.387C458.398 195.71 458.633 195.176 459.102 194.785C459.583 194.382 460.137 194.18 460.762 194.18C461.426 194.18 461.992 194.375 462.461 194.766C462.93 195.156 463.164 195.697 463.164 196.387C463.164 197.077 462.923 197.624 462.441 198.027C461.973 198.418 461.413 198.613 460.762 198.613ZM458.691 202.051H462.891V222.5H458.691V202.051ZM476.914 205.508H473.086V216.582C473.086 217.155 473.158 217.617 473.301 217.969C473.444 218.307 473.672 218.561 473.984 218.73C474.297 218.9 474.694 219.004 475.176 219.043C475.658 219.069 476.237 219.062 476.914 219.023V222.461C476.016 222.669 475.059 222.773 474.043 222.773C472.298 222.773 470.99 222.324 470.117 221.426C469.258 220.527 468.828 219.03 468.828 216.934V205.508H465.879V202.051H468.828V195.625H473.086V202.051H476.914V205.508ZM498.203 202.051L490.039 223.789C489.779 224.505 489.531 225.111 489.297 225.605C489.076 226.1 488.783 226.608 488.418 227.129C488.066 227.663 487.682 228.079 487.266 228.379C486.849 228.691 486.335 228.945 485.723 229.141C485.111 229.349 484.421 229.453 483.652 229.453C482.715 229.453 481.712 229.323 480.645 229.062V225.859H480.996C481.842 226.003 482.611 226.003 483.301 225.859C484.004 225.716 484.57 225.384 485 224.863C485.273 224.525 485.495 224.147 485.664 223.73C485.833 223.314 485.918 222.812 485.918 222.227C485.918 221.628 485.801 221.029 485.566 220.43L478.164 202.051H482.676L488.398 217.695H488.477L493.73 202.051H498.203ZM520.215 207.422C520.215 205.69 518.991 204.824 516.543 204.824C514.876 204.824 513.685 205.104 512.969 205.664C512.253 206.224 511.842 207.168 511.738 208.496H507.656C507.76 206.387 508.535 204.694 509.98 203.418C511.439 202.142 513.626 201.504 516.543 201.504C521.79 201.504 524.414 203.887 524.414 208.652V218.379C524.414 219.16 524.544 219.72 524.805 220.059C525.078 220.384 525.605 220.508 526.387 220.43V222.422C525.605 222.708 524.792 222.852 523.945 222.852C522.826 222.852 521.979 222.637 521.406 222.207C520.833 221.777 520.449 221.061 520.254 220.059H520.176C519.499 220.996 518.581 221.738 517.422 222.285C516.276 222.832 514.941 223.105 513.418 223.105C511.361 223.105 509.727 222.572 508.516 221.504C507.305 220.423 506.699 219.01 506.699 217.266C506.699 216.393 506.829 215.618 507.09 214.941C507.363 214.251 507.728 213.672 508.184 213.203C508.639 212.721 509.232 212.298 509.961 211.934C510.703 211.569 511.471 211.276 512.266 211.055C513.073 210.82 514.03 210.592 515.137 210.371C515.697 210.267 516.126 210.182 516.426 210.117C516.725 210.052 517.083 209.967 517.5 209.863C517.93 209.759 518.255 209.661 518.477 209.57C518.698 209.479 518.939 209.362 519.199 209.219C519.46 209.076 519.648 208.926 519.766 208.77C519.896 208.6 520 208.405 520.078 208.184C520.169 207.949 520.215 207.695 520.215 207.422ZM514.336 219.785C516.12 219.785 517.546 219.349 518.613 218.477C519.681 217.604 520.215 216.361 520.215 214.746V211.66C519.551 212.129 518.125 212.585 515.938 213.027C514.154 213.418 512.871 213.9 512.09 214.473C511.322 215.046 510.938 215.84 510.938 216.855C510.938 218.809 512.07 219.785 514.336 219.785ZM539.844 201.504C541.849 201.504 543.483 202.09 544.746 203.262C546.009 204.421 546.641 206.126 546.641 208.379V222.5H542.402V209.57C542.402 206.562 541.055 205.059 538.359 205.059C536.732 205.059 535.436 205.514 534.473 206.426C533.509 207.324 533.027 208.535 533.027 210.059V222.5H528.828V202.051H533.027V204.707H533.125C533.737 203.796 534.603 203.034 535.723 202.422C536.855 201.81 538.229 201.504 539.844 201.504ZM564.844 193.906H569.043V222.5H564.844V220.137H564.766C564.128 220.97 563.288 221.673 562.246 222.246C561.204 222.819 559.961 223.105 558.516 223.105C555.846 223.105 553.659 222.129 551.953 220.176C550.247 218.223 549.395 215.599 549.395 212.305C549.395 209.01 550.247 206.387 551.953 204.434C553.659 202.48 555.846 201.504 558.516 201.504C559.987 201.504 561.243 201.79 562.285 202.363C563.34 202.923 564.167 203.646 564.766 204.531H564.844V193.906ZM559.238 219.668C560.957 219.668 562.311 219.01 563.301 217.695C564.303 216.367 564.805 214.57 564.805 212.305C564.805 210.026 564.303 208.229 563.301 206.914C562.311 205.599 560.957 204.941 559.238 204.941C557.467 204.941 556.081 205.645 555.078 207.051C554.089 208.457 553.594 210.208 553.594 212.305C553.594 214.401 554.089 216.152 555.078 217.559C556.081 218.965 557.467 219.668 559.238 219.668ZM589.707 219.668C590.527 219.668 591.27 219.551 591.934 219.316C592.598 219.082 593.125 218.783 593.516 218.418C593.919 218.053 594.232 217.695 594.453 217.344C594.688 216.979 594.857 216.621 594.961 216.27H599.16C598.613 218.327 597.546 219.98 595.957 221.23C594.368 222.48 592.324 223.105 589.824 223.105C586.673 223.105 584.18 222.116 582.344 220.137C580.508 218.158 579.59 215.547 579.59 212.305C579.59 208.984 580.495 206.354 582.305 204.414C584.115 202.474 586.556 201.504 589.629 201.504C592.858 201.504 595.306 202.552 596.973 204.648C598.639 206.745 599.473 209.655 599.473 213.379H583.789C583.789 215.163 584.323 216.66 585.391 217.871C586.471 219.069 587.91 219.668 589.707 219.668ZM589.629 204.824C587.923 204.824 586.523 205.339 585.43 206.367C584.336 207.383 583.789 208.678 583.789 210.254H595.273C595.273 208.665 594.753 207.363 593.711 206.348C592.682 205.332 591.322 204.824 589.629 204.824ZM614.707 207.422C614.707 205.69 613.483 204.824 611.035 204.824C609.368 204.824 608.177 205.104 607.461 205.664C606.745 206.224 606.335 207.168 606.23 208.496H602.148C602.253 206.387 603.027 204.694 604.473 203.418C605.931 202.142 608.118 201.504 611.035 201.504C616.283 201.504 618.906 203.887 618.906 208.652V218.379C618.906 219.16 619.036 219.72 619.297 220.059C619.57 220.384 620.098 220.508 620.879 220.43V222.422C620.098 222.708 619.284 222.852 618.438 222.852C617.318 222.852 616.471 222.637 615.898 222.207C615.326 221.777 614.941 221.061 614.746 220.059H614.668C613.991 220.996 613.073 221.738 611.914 222.285C610.768 222.832 609.434 223.105 607.91 223.105C605.853 223.105 604.219 222.572 603.008 221.504C601.797 220.423 601.191 219.01 601.191 217.266C601.191 216.393 601.322 215.618 601.582 214.941C601.855 214.251 602.22 213.672 602.676 213.203C603.132 212.721 603.724 212.298 604.453 211.934C605.195 211.569 605.964 211.276 606.758 211.055C607.565 210.82 608.522 210.592 609.629 210.371C610.189 210.267 610.618 210.182 610.918 210.117C611.217 210.052 611.576 209.967 611.992 209.863C612.422 209.759 612.747 209.661 612.969 209.57C613.19 209.479 613.431 209.362 613.691 209.219C613.952 209.076 614.141 208.926 614.258 208.77C614.388 208.6 614.492 208.405 614.57 208.184C614.661 207.949 614.707 207.695 614.707 207.422ZM608.828 219.785C610.612 219.785 612.038 219.349 613.105 218.477C614.173 217.604 614.707 216.361 614.707 214.746V211.66C614.043 212.129 612.617 212.585 610.43 213.027C608.646 213.418 607.363 213.9 606.582 214.473C605.814 215.046 605.43 215.84 605.43 216.855C605.43 218.809 606.562 219.785 608.828 219.785ZM632.168 210.137C634.264 210.632 635.729 211.068 636.562 211.445C638.477 212.318 639.59 213.672 639.902 215.508C639.967 215.898 640 216.309 640 216.738C640 218.691 639.238 220.241 637.715 221.387C636.191 222.533 634.18 223.105 631.68 223.105C628.516 223.105 626.146 222.441 624.57 221.113C622.995 219.785 622.155 217.982 622.051 215.703H626.133C626.185 216.315 626.296 216.842 626.465 217.285C626.647 217.728 626.927 218.151 627.305 218.555C627.695 218.958 628.249 219.264 628.965 219.473C629.681 219.681 630.56 219.785 631.602 219.785C632.956 219.785 633.984 219.512 634.688 218.965C635.404 218.418 635.762 217.78 635.762 217.051C635.762 216.777 635.736 216.523 635.684 216.289C635.632 216.055 635.54 215.846 635.41 215.664C635.28 215.482 635.15 215.319 635.02 215.176C634.902 215.033 634.72 214.902 634.473 214.785C634.238 214.668 634.03 214.57 633.848 214.492C633.665 214.401 633.405 214.31 633.066 214.219C632.728 214.128 632.448 214.056 632.227 214.004C632.018 213.952 631.706 213.88 631.289 213.789C630.885 213.698 630.566 213.626 630.332 213.574C628.47 213.132 627.305 212.832 626.836 212.676C624.792 211.986 623.509 210.905 622.988 209.434C622.793 208.874 622.695 208.242 622.695 207.539C622.695 205.807 623.418 204.368 624.863 203.223C626.309 202.077 628.275 201.504 630.762 201.504C633.405 201.504 635.443 202.122 636.875 203.359C638.32 204.596 639.115 206.165 639.258 208.066H635.176C635.098 207.611 634.98 207.214 634.824 206.875C634.668 206.523 634.434 206.185 634.121 205.859C633.809 205.521 633.372 205.267 632.812 205.098C632.253 204.915 631.582 204.824 630.801 204.824C629.564 204.824 628.607 205.039 627.93 205.469C627.266 205.898 626.934 206.484 626.934 207.227C626.934 207.513 626.973 207.773 627.051 208.008C627.129 208.229 627.266 208.424 627.461 208.594C627.669 208.763 627.858 208.906 628.027 209.023C628.21 209.141 628.496 209.258 628.887 209.375C629.277 209.479 629.583 209.564 629.805 209.629C630.039 209.681 630.423 209.766 630.957 209.883C631.491 209.987 631.895 210.072 632.168 210.137ZM652.168 219.668C652.988 219.668 653.73 219.551 654.395 219.316C655.059 219.082 655.586 218.783 655.977 218.418C656.38 218.053 656.693 217.695 656.914 217.344C657.148 216.979 657.318 216.621 657.422 216.27H661.621C661.074 218.327 660.007 219.98 658.418 221.23C656.829 222.48 654.785 223.105 652.285 223.105C649.134 223.105 646.641 222.116 644.805 220.137C642.969 218.158 642.051 215.547 642.051 212.305C642.051 208.984 642.956 206.354 644.766 204.414C646.576 202.474 649.017 201.504 652.09 201.504C655.319 201.504 657.767 202.552 659.434 204.648C661.1 206.745 661.934 209.655 661.934 213.379H646.25C646.25 215.163 646.784 216.66 647.852 217.871C648.932 219.069 650.371 219.668 652.168 219.668ZM652.09 204.824C650.384 204.824 648.984 205.339 647.891 206.367C646.797 207.383 646.25 208.678 646.25 210.254H657.734C657.734 208.665 657.214 207.363 656.172 206.348C655.143 205.332 653.783 204.824 652.09 204.824ZM674.102 220.137C675.951 222.116 678.457 223.105 681.621 223.105C684.785 223.105 687.292 222.116 689.141 220.137C690.99 218.145 691.914 215.534 691.914 212.305C691.914 209.076 690.99 206.471 689.141 204.492C687.292 202.5 684.785 201.504 681.621 201.504C678.457 201.504 675.951 202.5 674.102 204.492C672.266 206.471 671.348 209.076 671.348 212.305C671.348 215.534 672.266 218.145 674.102 220.137ZM686.113 217.617C685.059 218.984 683.561 219.668 681.621 219.668C679.681 219.668 678.184 218.984 677.129 217.617C676.074 216.25 675.547 214.479 675.547 212.305C675.547 210.104 676.074 208.327 677.129 206.973C678.184 205.618 679.681 204.941 681.621 204.941C683.561 204.941 685.059 205.625 686.113 206.992C687.181 208.346 687.715 210.117 687.715 212.305C687.715 214.479 687.181 216.25 686.113 217.617ZM704.062 197.344C702.617 197.279 701.628 197.402 701.094 197.715C700.56 198.014 700.293 198.717 700.293 199.824V202.051H704.062V205.508H700.293V222.5H696.055V205.508H693.145V202.051H696.055V199.453C696.055 197.357 696.484 195.859 697.344 194.961C698.216 194.062 699.525 193.613 701.27 193.613C702.077 193.613 703.008 193.711 704.062 193.906V197.344ZM727.91 202.051H732.109V222.5H727.91V219.863H727.812C727.201 220.775 726.328 221.536 725.195 222.148C724.076 222.76 722.708 223.066 721.094 223.066C719.089 223.066 717.454 222.48 716.191 221.309C714.928 220.137 714.297 218.424 714.297 216.172V202.051H718.535V214.98C718.535 217.988 719.883 219.492 722.578 219.492C724.206 219.492 725.501 219.043 726.465 218.145C727.428 217.233 727.91 216.016 727.91 214.492V202.051ZM744.941 210.137C747.038 210.632 748.503 211.068 749.336 211.445C751.25 212.318 752.363 213.672 752.676 215.508C752.741 215.898 752.773 216.309 752.773 216.738C752.773 218.691 752.012 220.241 750.488 221.387C748.965 222.533 746.953 223.105 744.453 223.105C741.289 223.105 738.919 222.441 737.344 221.113C735.768 219.785 734.928 217.982 734.824 215.703H738.906C738.958 216.315 739.069 216.842 739.238 217.285C739.421 217.728 739.701 218.151 740.078 218.555C740.469 218.958 741.022 219.264 741.738 219.473C742.454 219.681 743.333 219.785 744.375 219.785C745.729 219.785 746.758 219.512 747.461 218.965C748.177 218.418 748.535 217.78 748.535 217.051C748.535 216.777 748.509 216.523 748.457 216.289C748.405 216.055 748.314 215.846 748.184 215.664C748.053 215.482 747.923 215.319 747.793 215.176C747.676 215.033 747.493 214.902 747.246 214.785C747.012 214.668 746.803 214.57 746.621 214.492C746.439 214.401 746.178 214.31 745.84 214.219C745.501 214.128 745.221 214.056 745 214.004C744.792 213.952 744.479 213.88 744.062 213.789C743.659 213.698 743.34 213.626 743.105 213.574C741.243 213.132 740.078 212.832 739.609 212.676C737.565 211.986 736.283 210.905 735.762 209.434C735.566 208.874 735.469 208.242 735.469 207.539C735.469 205.807 736.191 204.368 737.637 203.223C739.082 202.077 741.048 201.504 743.535 201.504C746.178 201.504 748.216 202.122 749.648 203.359C751.094 204.596 751.888 206.165 752.031 208.066H747.949C747.871 207.611 747.754 207.214 747.598 206.875C747.441 206.523 747.207 206.185 746.895 205.859C746.582 205.521 746.146 205.267 745.586 205.098C745.026 204.915 744.355 204.824 743.574 204.824C742.337 204.824 741.38 205.039 740.703 205.469C740.039 205.898 739.707 206.484 739.707 207.227C739.707 207.513 739.746 207.773 739.824 208.008C739.902 208.229 740.039 208.424 740.234 208.594C740.443 208.763 740.632 208.906 740.801 209.023C740.983 209.141 741.27 209.258 741.66 209.375C742.051 209.479 742.357 209.564 742.578 209.629C742.812 209.681 743.197 209.766 743.73 209.883C744.264 209.987 744.668 210.072 744.941 210.137ZM764.941 219.668C765.762 219.668 766.504 219.551 767.168 219.316C767.832 219.082 768.359 218.783 768.75 218.418C769.154 218.053 769.466 217.695 769.688 217.344C769.922 216.979 770.091 216.621 770.195 216.27H774.395C773.848 218.327 772.78 219.98 771.191 221.23C769.603 222.48 767.559 223.105 765.059 223.105C761.908 223.105 759.414 222.116 757.578 220.137C755.742 218.158 754.824 215.547 754.824 212.305C754.824 208.984 755.729 206.354 757.539 204.414C759.349 202.474 761.79 201.504 764.863 201.504C768.092 201.504 770.54 202.552 772.207 204.648C773.874 206.745 774.707 209.655 774.707 213.379H759.023C759.023 215.163 759.557 216.66 760.625 217.871C761.706 219.069 763.145 219.668 764.941 219.668ZM764.863 204.824C763.158 204.824 761.758 205.339 760.664 206.367C759.57 207.383 759.023 208.678 759.023 210.254H770.508C770.508 208.665 769.987 207.363 768.945 206.348C767.917 205.332 766.556 204.824 764.863 204.824ZM779.844 203.066H775.215C775.215 201.66 775.423 200.371 775.84 199.199C776.27 198.014 776.888 196.986 777.695 196.113C778.516 195.228 779.577 194.538 780.879 194.043C782.194 193.548 783.691 193.301 785.371 193.301C787.923 193.301 790.046 194.004 791.738 195.41C793.444 196.803 794.297 198.594 794.297 200.781C794.297 201.615 794.193 202.363 793.984 203.027C793.789 203.678 793.47 204.277 793.027 204.824C792.585 205.358 792.148 205.814 791.719 206.191C791.302 206.556 790.736 206.992 790.02 207.5C789.421 207.93 788.965 208.268 788.652 208.516C788.34 208.763 787.975 209.108 787.559 209.551C787.155 209.98 786.855 210.404 786.66 210.82C786.465 211.237 786.296 211.764 786.152 212.402C786.009 213.04 785.938 213.75 785.938 214.531H781.816C781.816 212.513 782.135 210.872 782.773 209.609C783.424 208.333 784.421 207.135 785.762 206.016C786.035 205.768 786.406 205.469 786.875 205.117C787.344 204.766 787.708 204.479 787.969 204.258C788.242 204.023 788.522 203.737 788.809 203.398C789.108 203.06 789.323 202.682 789.453 202.266C789.583 201.849 789.648 201.38 789.648 200.859C789.648 199.831 789.251 198.978 788.457 198.301C787.663 197.611 786.595 197.266 785.254 197.266C781.647 197.266 779.844 199.199 779.844 203.066ZM783.887 222.812C783.132 222.812 782.507 222.578 782.012 222.109C781.53 221.628 781.289 220.996 781.289 220.215C781.289 219.447 781.53 218.822 782.012 218.34C782.507 217.858 783.132 217.617 783.887 217.617C784.616 217.617 785.221 217.858 785.703 218.34C786.198 218.822 786.445 219.447 786.445 220.215C786.445 220.996 786.204 221.628 785.723 222.109C785.241 222.578 784.629 222.812 783.887 222.812Z" fill="#5E5CE6" fill-opacity="0.8"/>
</svg>
