<svg width="934" height="1181" viewBox="0 0 934 1181" fill="none" xmlns="http://www.w3.org/2000/svg">
<g clip-path="url(#clip0_710_1481)">
<rect width="934" height="1181" rx="32" fill="#121213"/>
<path d="M90.625 97.375C91.8542 97.6875 92.7917 97.9427 93.4375 98.1406C94.0938 98.3385 94.8542 98.6406 95.7188 99.0469C96.5833 99.4427 97.2292 99.875 97.6562 100.344C98.0833 100.802 98.4531 101.411 98.7656 102.172C99.0781 102.922 99.2344 103.797 99.2344 104.797C99.2344 106.724 98.5 108.323 97.0312 109.594C95.5729 110.854 93.4688 111.484 90.7188 111.484C88.8438 111.484 87.1615 111.177 85.6719 110.562C84.1927 109.938 83 109.01 82.0938 107.781C81.1979 106.542 80.7135 105.078 80.6406 103.391H84.4531C84.5469 104.901 85.1146 106.083 86.1562 106.938C87.2083 107.792 88.7292 108.219 90.7188 108.219C92.3125 108.219 93.4948 107.917 94.2656 107.312C95.0365 106.698 95.4219 105.911 95.4219 104.953C95.4219 104.682 95.4062 104.432 95.375 104.203C95.3438 103.974 95.276 103.76 95.1719 103.562C95.0781 103.365 94.9844 103.188 94.8906 103.031C94.7969 102.875 94.6458 102.724 94.4375 102.578C94.2292 102.422 94.0469 102.292 93.8906 102.188C93.7344 102.073 93.4948 101.953 93.1719 101.828C92.849 101.703 92.5729 101.604 92.3438 101.531C92.125 101.448 91.7917 101.344 91.3438 101.219C90.9062 101.094 90.5365 100.995 90.2344 100.922C89.9427 100.839 89.5156 100.729 88.9531 100.594C88.3698 100.448 87.8542 100.307 87.4062 100.172C86.9583 100.036 86.4635 99.8646 85.9219 99.6562C85.3802 99.4375 84.9062 99.2135 84.5 98.9844C84.1042 98.7552 83.7083 98.474 83.3125 98.1406C82.9167 97.7969 82.5938 97.4323 82.3438 97.0469C82.0938 96.651 81.8906 96.1927 81.7344 95.6719C81.5781 95.1406 81.5 94.5729 81.5 93.9688C81.5 91.9583 82.224 90.401 83.6719 89.2969C85.1198 88.1927 87.1042 87.6406 89.625 87.6406C92.1979 87.6406 94.3021 88.2865 95.9375 89.5781C97.5729 90.8594 98.4688 92.6562 98.625 94.9688H94.8125C94.4479 92.2604 92.7188 90.9062 89.625 90.9062C88.2604 90.9062 87.1927 91.1458 86.4219 91.625C85.6615 92.1042 85.2812 92.7708 85.2812 93.625C85.2812 94.7292 85.75 95.5521 86.6875 96.0938C87.2708 96.4375 88.3906 96.8177 90.0469 97.2344H90.0625H90.0781L90.0938 97.25H90.1094H90.125H90.1406L90.1562 97.2656H90.1719H90.1875H90.2031L90.2188 97.2812H90.2344H90.25H90.2656L90.2812 97.2969H90.2969H90.3125H90.3438L90.3594 97.3125H90.375H90.3906H90.4062L90.4219 97.3281H90.4375H90.4531H90.4688L90.4844 97.3438H90.5H90.5156H90.5312L90.5469 97.3594H90.5625H90.5781H90.5938L90.6094 97.375H90.625ZM108.923 97.4062H105.86V106.266C105.86 106.724 105.917 107.094 106.032 107.375C106.146 107.646 106.329 107.849 106.579 107.984C106.829 108.12 107.146 108.203 107.532 108.234C107.917 108.255 108.381 108.25 108.923 108.219V110.969C108.204 111.135 107.438 111.219 106.626 111.219C105.23 111.219 104.183 110.859 103.485 110.141C102.798 109.422 102.454 108.224 102.454 106.547V97.4062H100.094V94.6406H102.454V89.5H105.86V94.6406H108.923V97.4062ZM120.704 98.9375C120.704 97.5521 119.725 96.8594 117.767 96.8594C116.434 96.8594 115.48 97.0833 114.907 97.5312C114.335 97.9792 114.006 98.7344 113.923 99.7969H110.657C110.741 98.1094 111.361 96.7552 112.517 95.7344C113.684 94.7135 115.434 94.2031 117.767 94.2031C121.965 94.2031 124.064 96.1094 124.064 99.9219V107.703C124.064 108.328 124.168 108.776 124.376 109.047C124.595 109.307 125.017 109.406 125.642 109.344V110.938C125.017 111.167 124.366 111.281 123.689 111.281C122.793 111.281 122.116 111.109 121.657 110.766C121.199 110.422 120.892 109.849 120.736 109.047H120.673C120.131 109.797 119.397 110.391 118.47 110.828C117.553 111.266 116.486 111.484 115.267 111.484C113.621 111.484 112.314 111.057 111.345 110.203C110.376 109.339 109.892 108.208 109.892 106.812C109.892 106.115 109.996 105.495 110.204 104.953C110.423 104.401 110.715 103.938 111.079 103.562C111.444 103.177 111.918 102.839 112.501 102.547C113.095 102.255 113.71 102.021 114.345 101.844C114.991 101.656 115.756 101.474 116.642 101.297C117.09 101.214 117.434 101.146 117.673 101.094C117.913 101.042 118.199 100.974 118.532 100.891C118.876 100.807 119.137 100.729 119.314 100.656C119.491 100.583 119.684 100.49 119.892 100.375C120.1 100.26 120.251 100.141 120.345 100.016C120.449 99.8802 120.532 99.724 120.595 99.5469C120.668 99.3594 120.704 99.1562 120.704 98.9375ZM116.001 108.828C117.428 108.828 118.569 108.479 119.423 107.781C120.277 107.083 120.704 106.089 120.704 104.797V102.328C120.173 102.703 119.032 103.068 117.282 103.422C115.855 103.734 114.829 104.12 114.204 104.578C113.59 105.036 113.282 105.672 113.282 106.484C113.282 108.047 114.189 108.828 116.001 108.828ZM135.439 94.2031C137.564 94.2031 139.304 94.9844 140.658 96.5469C142.023 98.1094 142.705 100.208 142.705 102.844C142.705 105.479 142.023 107.578 140.658 109.141C139.304 110.703 137.564 111.484 135.439 111.484C134.262 111.484 133.252 111.255 132.408 110.797C131.575 110.328 130.913 109.745 130.424 109.047H130.346V116.562H126.955V94.6406H130.346V96.5625H130.424C130.924 95.8854 131.59 95.3229 132.424 94.875C133.257 94.4271 134.262 94.2031 135.439 94.2031ZM134.799 108.734C136.215 108.734 137.32 108.172 138.111 107.047C138.913 105.922 139.314 104.521 139.314 102.844C139.314 101.167 138.913 99.7656 138.111 98.6406C137.32 97.5156 136.215 96.9531 134.799 96.9531C133.434 96.9531 132.356 97.4792 131.564 98.5312C130.783 99.5833 130.393 101.021 130.393 102.844C130.393 104.656 130.788 106.094 131.58 107.156C132.372 108.208 133.445 108.734 134.799 108.734ZM144.565 88.125H147.971V111H144.565V88.125ZM157.816 108.734C158.472 108.734 159.066 108.641 159.597 108.453C160.128 108.266 160.55 108.026 160.863 107.734C161.185 107.443 161.435 107.156 161.613 106.875C161.8 106.583 161.935 106.297 162.019 106.016H165.378C164.941 107.661 164.086 108.984 162.816 109.984C161.545 110.984 159.909 111.484 157.909 111.484C155.389 111.484 153.394 110.693 151.925 109.109C150.456 107.526 149.722 105.438 149.722 102.844C149.722 100.188 150.446 98.0833 151.894 96.5312C153.342 94.9792 155.295 94.2031 157.753 94.2031C160.336 94.2031 162.295 95.0417 163.628 96.7188C164.961 98.3958 165.628 100.724 165.628 103.703H153.081C153.081 105.13 153.508 106.328 154.363 107.297C155.227 108.255 156.378 108.734 157.816 108.734ZM157.753 96.8594C156.389 96.8594 155.269 97.2708 154.394 98.0938C153.519 98.9062 153.081 99.9427 153.081 101.203H162.269C162.269 99.9323 161.852 98.8906 161.019 98.0781C160.196 97.2656 159.107 96.8594 157.753 96.8594Z" fill="#7B09C0"/>
<path d="M83.418 196V155.969H98.9766C104.536 155.969 108.893 157.719 112.047 161.219C115.219 164.701 116.805 169.632 116.805 176.012C116.805 182.41 115.255 187.341 112.156 190.805C109.057 194.268 104.719 196 99.1406 196H83.418ZM90.0898 161.629V190.34H98.6484C106.305 190.34 110.133 185.564 110.133 176.012C110.133 166.423 106.305 161.629 98.6484 161.629H90.0898ZM133.048 192.035C134.196 192.035 135.235 191.871 136.165 191.543C137.095 191.215 137.833 190.796 138.38 190.285C138.945 189.775 139.383 189.273 139.693 188.781C140.021 188.271 140.258 187.77 140.403 187.277H146.282C145.517 190.158 144.022 192.473 141.798 194.223C139.574 195.973 136.712 196.848 133.212 196.848C128.801 196.848 125.31 195.462 122.739 192.691C120.169 189.921 118.884 186.266 118.884 181.727C118.884 177.078 120.151 173.396 122.685 170.68C125.219 167.964 128.637 166.605 132.939 166.605C137.459 166.605 140.887 168.073 143.22 171.008C145.553 173.943 146.72 178.017 146.72 183.23H124.763C124.763 185.728 125.51 187.824 127.005 189.52C128.518 191.197 130.532 192.035 133.048 192.035ZM132.939 171.254C130.551 171.254 128.591 171.974 127.06 173.414C125.528 174.836 124.763 176.65 124.763 178.855H140.841C140.841 176.632 140.112 174.809 138.653 173.387C137.213 171.965 135.308 171.254 132.939 171.254ZM162.006 178.691C164.941 179.384 166.992 179.995 168.158 180.523C170.838 181.745 172.397 183.641 172.834 186.211C172.925 186.758 172.971 187.332 172.971 187.934C172.971 190.668 171.905 192.837 169.772 194.441C167.639 196.046 164.823 196.848 161.323 196.848C156.893 196.848 153.575 195.918 151.369 194.059C149.164 192.199 147.988 189.674 147.842 186.484H153.557C153.63 187.341 153.785 188.079 154.022 188.699C154.277 189.319 154.669 189.911 155.198 190.477C155.744 191.042 156.519 191.47 157.522 191.762C158.524 192.053 159.755 192.199 161.213 192.199C163.109 192.199 164.549 191.816 165.533 191.051C166.536 190.285 167.037 189.392 167.037 188.371C167.037 187.988 167.001 187.633 166.928 187.305C166.855 186.977 166.727 186.685 166.545 186.43C166.363 186.174 166.181 185.947 165.998 185.746C165.834 185.546 165.579 185.363 165.233 185.199C164.905 185.035 164.613 184.898 164.358 184.789C164.102 184.661 163.738 184.534 163.264 184.406C162.79 184.279 162.398 184.178 162.088 184.105C161.796 184.033 161.359 183.932 160.776 183.805C160.211 183.677 159.764 183.577 159.436 183.504C156.829 182.884 155.198 182.465 154.541 182.246C151.679 181.28 149.884 179.767 149.155 177.707C148.881 176.923 148.744 176.039 148.744 175.055C148.744 172.63 149.756 170.616 151.78 169.012C153.803 167.408 156.556 166.605 160.037 166.605C163.738 166.605 166.591 167.471 168.596 169.203C170.619 170.935 171.731 173.132 171.932 175.793H166.217C166.108 175.155 165.944 174.599 165.725 174.125C165.506 173.633 165.178 173.159 164.74 172.703C164.303 172.229 163.692 171.874 162.908 171.637C162.125 171.382 161.186 171.254 160.092 171.254C158.36 171.254 157.02 171.555 156.073 172.156C155.143 172.758 154.678 173.578 154.678 174.617C154.678 175.018 154.733 175.383 154.842 175.711C154.951 176.021 155.143 176.294 155.416 176.531C155.708 176.768 155.972 176.969 156.209 177.133C156.464 177.297 156.865 177.461 157.412 177.625C157.959 177.771 158.388 177.889 158.698 177.98C159.026 178.053 159.563 178.172 160.311 178.336C161.058 178.482 161.623 178.6 162.006 178.691ZM179.097 162.559C178.222 162.559 177.447 162.276 176.773 161.711C176.117 161.146 175.788 160.389 175.788 159.441C175.788 158.493 176.117 157.746 176.773 157.199C177.447 156.634 178.222 156.352 179.097 156.352C180.027 156.352 180.82 156.625 181.476 157.172C182.132 157.719 182.46 158.475 182.46 159.441C182.46 160.408 182.123 161.173 181.449 161.738C180.792 162.285 180.008 162.559 179.097 162.559ZM176.199 167.371H182.077V196H176.199V167.371ZM206.743 167.371H212.622V194.031C212.622 198.042 211.482 201.022 209.204 202.973C206.925 204.923 203.698 205.898 199.524 205.898C195.605 205.898 192.478 205.023 190.145 203.273C187.812 201.523 186.481 199.363 186.153 196.793H192.086C192.724 199.728 195.131 201.195 199.305 201.195C201.803 201.195 203.662 200.594 204.883 199.391C206.123 198.206 206.743 196.346 206.743 193.812V190.34H206.633C204.628 193.184 201.739 194.605 197.965 194.605C194.265 194.605 191.248 193.375 188.915 190.914C186.581 188.435 185.415 184.999 185.415 180.605C185.415 176.194 186.581 172.758 188.915 170.297C191.248 167.836 194.265 166.605 197.965 166.605C201.702 166.605 204.592 167.982 206.633 170.734H206.743V167.371ZM199.086 189.793C201.493 189.793 203.361 189.009 204.692 187.441C206.023 185.874 206.688 183.595 206.688 180.605C206.688 177.616 206.023 175.337 204.692 173.77C203.361 172.202 201.493 171.418 199.086 171.418C196.589 171.418 194.666 172.266 193.317 173.961C191.968 175.638 191.293 177.853 191.293 180.605C191.293 183.34 191.968 185.555 193.317 187.25C194.666 188.945 196.589 189.793 199.086 189.793ZM232.502 166.605C235.309 166.605 237.597 167.426 239.365 169.066C241.133 170.689 242.017 173.077 242.017 176.23V196H236.084V177.898C236.084 173.688 234.197 171.582 230.423 171.582C228.145 171.582 226.331 172.22 224.982 173.496C223.633 174.754 222.959 176.449 222.959 178.582V196H217.08V167.371H222.959V171.09H223.095C223.952 169.814 225.164 168.747 226.732 167.891C228.318 167.034 230.241 166.605 232.502 166.605ZM249.565 162.559C248.69 162.559 247.915 162.276 247.241 161.711C246.585 161.146 246.257 160.389 246.257 159.441C246.257 158.493 246.585 157.746 247.241 157.199C247.915 156.634 248.69 156.352 249.565 156.352C250.495 156.352 251.288 156.625 251.944 157.172C252.6 157.719 252.928 158.475 252.928 159.441C252.928 160.408 252.591 161.173 251.917 161.738C251.26 162.285 250.477 162.559 249.565 162.559ZM246.667 167.371H252.546V196H246.667V167.371ZM272.808 166.605C275.616 166.605 277.903 167.426 279.672 169.066C281.44 170.689 282.324 173.077 282.324 176.23V196H276.39V177.898C276.39 173.688 274.504 171.582 270.73 171.582C268.452 171.582 266.638 172.22 265.289 173.496C263.94 174.754 263.265 176.449 263.265 178.582V196H257.387V167.371H263.265V171.09H263.402C264.259 169.814 265.471 168.747 267.039 167.891C268.625 167.034 270.548 166.605 272.808 166.605ZM306.388 167.371H312.267V194.031C312.267 198.042 311.127 201.022 308.849 202.973C306.57 204.923 303.343 205.898 299.169 205.898C295.25 205.898 292.123 205.023 289.79 203.273C287.457 201.523 286.126 199.363 285.798 196.793H291.731C292.369 199.728 294.776 201.195 298.95 201.195C301.448 201.195 303.307 200.594 304.528 199.391C305.768 198.206 306.388 196.346 306.388 193.812V190.34H306.278C304.273 193.184 301.384 194.605 297.61 194.605C293.91 194.605 290.893 193.375 288.56 190.914C286.226 188.435 285.06 184.999 285.06 180.605C285.06 176.194 286.226 172.758 288.56 170.297C290.893 167.836 293.91 166.605 297.61 166.605C301.347 166.605 304.237 167.982 306.278 170.734H306.388V167.371ZM298.731 189.793C301.138 189.793 303.006 189.009 304.337 187.441C305.668 185.874 306.333 183.595 306.333 180.605C306.333 177.616 305.668 175.337 304.337 173.77C303.006 172.202 301.138 171.418 298.731 171.418C296.234 171.418 294.311 172.266 292.962 173.961C291.613 175.638 290.938 177.853 290.938 180.605C290.938 183.34 291.613 185.555 292.962 187.25C294.311 188.945 296.234 189.793 298.731 189.793ZM343.577 174.891C343.577 172.466 341.864 171.254 338.437 171.254C336.103 171.254 334.435 171.646 333.433 172.43C332.43 173.214 331.856 174.535 331.71 176.395H325.995C326.141 173.441 327.226 171.072 329.249 169.285C331.291 167.499 334.353 166.605 338.437 166.605C345.783 166.605 349.456 169.941 349.456 176.613V190.23C349.456 191.324 349.639 192.108 350.003 192.582C350.386 193.038 351.124 193.211 352.218 193.102V195.891C351.124 196.292 349.985 196.492 348.8 196.492C347.232 196.492 346.047 196.191 345.245 195.59C344.443 194.988 343.905 193.986 343.632 192.582H343.523C342.575 193.895 341.29 194.934 339.667 195.699C338.063 196.465 336.195 196.848 334.062 196.848C331.182 196.848 328.894 196.1 327.198 194.605C325.503 193.092 324.655 191.115 324.655 188.672C324.655 187.451 324.838 186.366 325.202 185.418C325.585 184.452 326.096 183.641 326.734 182.984C327.372 182.31 328.201 181.717 329.222 181.207C330.261 180.697 331.336 180.286 332.448 179.977C333.579 179.648 334.918 179.329 336.468 179.02C337.252 178.874 337.853 178.755 338.273 178.664C338.692 178.573 339.193 178.454 339.777 178.309C340.378 178.163 340.834 178.026 341.144 177.898C341.454 177.771 341.791 177.607 342.155 177.406C342.52 177.206 342.784 176.996 342.948 176.777C343.131 176.54 343.277 176.267 343.386 175.957C343.514 175.629 343.577 175.273 343.577 174.891ZM335.347 192.199C337.844 192.199 339.84 191.589 341.335 190.367C342.83 189.146 343.577 187.405 343.577 185.145V180.824C342.648 181.48 340.652 182.118 337.589 182.738C335.092 183.285 333.296 183.96 332.202 184.762C331.127 185.564 330.589 186.676 330.589 188.098C330.589 190.832 332.175 192.199 335.347 192.199ZM378.798 166.605C382.535 166.605 385.598 167.973 387.986 170.707C390.374 173.441 391.568 177.115 391.568 181.727C391.568 186.339 390.374 190.012 387.986 192.746C385.598 195.48 382.535 196.848 378.798 196.848C376.775 196.848 375.034 196.447 373.576 195.645C372.136 194.842 370.969 193.858 370.076 192.691H369.939V196H364.06V155.969H369.939V170.844H370.076C370.932 169.604 372.081 168.592 373.521 167.809C374.979 167.007 376.738 166.605 378.798 166.605ZM377.787 192.035C380.266 192.035 382.198 191.051 383.583 189.082C384.987 187.113 385.689 184.661 385.689 181.727C385.689 178.792 384.987 176.34 383.583 174.371C382.198 172.402 380.266 171.418 377.787 171.418C375.38 171.418 373.475 172.339 372.072 174.18C370.686 176.021 369.994 178.536 369.994 181.727C369.994 184.898 370.686 187.414 372.072 189.273C373.475 191.115 375.38 192.035 377.787 192.035ZM413.389 167.371H419.268V196H413.389V192.309H413.253C412.396 193.585 411.174 194.651 409.588 195.508C408.021 196.365 406.107 196.793 403.846 196.793C401.039 196.793 398.751 195.973 396.983 194.332C395.215 192.691 394.331 190.294 394.331 187.141V167.371H400.264V185.473C400.264 189.684 402.151 191.789 405.924 191.789C408.203 191.789 410.017 191.16 411.366 189.902C412.715 188.626 413.389 186.922 413.389 184.789V167.371ZM436.113 178.691C439.048 179.384 441.099 179.995 442.265 180.523C444.945 181.745 446.504 183.641 446.941 186.211C447.032 186.758 447.078 187.332 447.078 187.934C447.078 190.668 446.011 192.837 443.879 194.441C441.746 196.046 438.929 196.848 435.429 196.848C431 196.848 427.682 195.918 425.476 194.059C423.271 192.199 422.095 189.674 421.949 186.484H427.664C427.737 187.341 427.892 188.079 428.129 188.699C428.384 189.319 428.776 189.911 429.304 190.477C429.851 191.042 430.626 191.47 431.629 191.762C432.631 192.053 433.862 192.199 435.32 192.199C437.216 192.199 438.656 191.816 439.64 191.051C440.643 190.285 441.144 189.392 441.144 188.371C441.144 187.988 441.108 187.633 441.035 187.305C440.962 186.977 440.834 186.685 440.652 186.43C440.47 186.174 440.287 185.947 440.105 185.746C439.941 185.546 439.686 185.363 439.34 185.199C439.011 185.035 438.72 184.898 438.465 184.789C438.209 184.661 437.845 184.534 437.371 184.406C436.897 184.279 436.505 184.178 436.195 184.105C435.903 184.033 435.466 183.932 434.883 183.805C434.317 183.677 433.871 183.577 433.543 183.504C430.936 182.884 429.304 182.465 428.648 182.246C425.786 181.28 423.991 179.767 423.261 177.707C422.988 176.923 422.851 176.039 422.851 175.055C422.851 172.63 423.863 170.616 425.886 169.012C427.91 167.408 430.662 166.605 434.144 166.605C437.845 166.605 440.698 167.471 442.703 169.203C444.726 170.935 445.838 173.132 446.039 175.793H440.324C440.215 175.155 440.05 174.599 439.832 174.125C439.613 173.633 439.285 173.159 438.847 172.703C438.41 172.229 437.799 171.874 437.015 171.637C436.231 171.382 435.293 171.254 434.199 171.254C432.467 171.254 431.127 171.555 430.179 172.156C429.25 172.758 428.785 173.578 428.785 174.617C428.785 175.018 428.84 175.383 428.949 175.711C429.058 176.021 429.25 176.294 429.523 176.531C429.815 176.768 430.079 176.969 430.316 177.133C430.571 177.297 430.972 177.461 431.519 177.625C432.066 177.771 432.494 177.889 432.804 177.98C433.133 178.053 433.67 178.172 434.418 178.336C435.165 178.482 435.73 178.6 436.113 178.691ZM453.204 162.559C452.329 162.559 451.554 162.276 450.88 161.711C450.223 161.146 449.895 160.389 449.895 159.441C449.895 158.493 450.223 157.746 450.88 157.199C451.554 156.634 452.329 156.352 453.204 156.352C454.134 156.352 454.927 156.625 455.583 157.172C456.239 157.719 456.567 158.475 456.567 159.441C456.567 160.408 456.23 161.173 455.555 161.738C454.899 162.285 454.115 162.559 453.204 162.559ZM450.305 167.371H456.184V196H450.305V167.371ZM476.447 166.605C479.254 166.605 481.542 167.426 483.31 169.066C485.079 170.689 485.963 173.077 485.963 176.23V196H480.029V177.898C480.029 173.688 478.142 171.582 474.369 171.582C472.09 171.582 470.277 172.22 468.928 173.496C467.579 174.754 466.904 176.449 466.904 178.582V196H461.025V167.371H466.904V171.09H467.041C467.898 169.814 469.11 168.747 470.678 167.891C472.264 167.034 474.187 166.605 476.447 166.605ZM502.862 192.035C504.011 192.035 505.05 191.871 505.98 191.543C506.909 191.215 507.647 190.796 508.194 190.285C508.759 189.775 509.197 189.273 509.507 188.781C509.835 188.271 510.072 187.77 510.218 187.277H516.097C515.331 190.158 513.836 192.473 511.612 194.223C509.388 195.973 506.526 196.848 503.026 196.848C498.615 196.848 495.124 195.462 492.554 192.691C489.983 189.921 488.698 186.266 488.698 181.727C488.698 177.078 489.965 173.396 492.499 170.68C495.033 167.964 498.451 166.605 502.753 166.605C507.274 166.605 510.701 168.073 513.034 171.008C515.368 173.943 516.534 178.017 516.534 183.23H494.577C494.577 185.728 495.325 187.824 496.819 189.52C498.332 191.197 500.347 192.035 502.862 192.035ZM502.753 171.254C500.365 171.254 498.405 171.974 496.874 173.414C495.343 174.836 494.577 176.65 494.577 178.855H510.655C510.655 176.632 509.926 174.809 508.468 173.387C507.028 171.965 505.123 171.254 502.753 171.254ZM531.82 178.691C534.755 179.384 536.806 179.995 537.973 180.523C540.652 181.745 542.211 183.641 542.649 186.211C542.74 186.758 542.785 187.332 542.785 187.934C542.785 190.668 541.719 192.837 539.586 194.441C537.453 196.046 534.637 196.848 531.137 196.848C526.707 196.848 523.389 195.918 521.184 194.059C518.978 192.199 517.802 189.674 517.656 186.484H523.371C523.444 187.341 523.599 188.079 523.836 188.699C524.091 189.319 524.483 189.911 525.012 190.477C525.559 191.042 526.333 191.47 527.336 191.762C528.339 192.053 529.569 192.199 531.027 192.199C532.923 192.199 534.363 191.816 535.348 191.051C536.35 190.285 536.852 189.392 536.852 188.371C536.852 187.988 536.815 187.633 536.742 187.305C536.669 186.977 536.542 186.685 536.36 186.43C536.177 186.174 535.995 185.947 535.813 185.746C535.649 185.546 535.393 185.363 535.047 185.199C534.719 185.035 534.427 184.898 534.172 184.789C533.917 184.661 533.552 184.534 533.078 184.406C532.604 184.279 532.212 184.178 531.902 184.105C531.611 184.033 531.173 183.932 530.59 183.805C530.025 183.677 529.578 183.577 529.25 183.504C526.643 182.884 525.012 182.465 524.356 182.246C521.494 181.28 519.698 179.767 518.969 177.707C518.695 176.923 518.559 176.039 518.559 175.055C518.559 172.63 519.57 170.616 521.594 169.012C523.617 167.408 526.37 166.605 529.852 166.605C533.552 166.605 536.405 167.471 538.41 169.203C540.434 170.935 541.546 173.132 541.746 175.793H536.031C535.922 175.155 535.758 174.599 535.539 174.125C535.32 173.633 534.992 173.159 534.555 172.703C534.117 172.229 533.507 171.874 532.723 171.637C531.939 171.382 531 171.254 529.906 171.254C528.175 171.254 526.835 171.555 525.887 172.156C524.957 172.758 524.492 173.578 524.492 174.617C524.492 175.018 524.547 175.383 524.656 175.711C524.766 176.021 524.957 176.294 525.231 176.531C525.522 176.768 525.787 176.969 526.024 177.133C526.279 177.297 526.68 177.461 527.227 177.625C527.774 177.771 528.202 177.889 528.512 177.98C528.84 178.053 529.378 178.172 530.125 178.336C530.873 178.482 531.438 178.6 531.82 178.691ZM558.099 178.691C561.034 179.384 563.085 179.995 564.251 180.523C566.931 181.745 568.49 183.641 568.927 186.211C569.018 186.758 569.064 187.332 569.064 187.934C569.064 190.668 567.997 192.837 565.865 194.441C563.732 196.046 560.915 196.848 557.415 196.848C552.986 196.848 549.668 195.918 547.462 194.059C545.256 192.199 544.081 189.674 543.935 186.484H549.65C549.723 187.341 549.878 188.079 550.115 188.699C550.37 189.319 550.762 189.911 551.29 190.477C551.837 191.042 552.612 191.47 553.615 191.762C554.617 192.053 555.848 192.199 557.306 192.199C559.202 192.199 560.642 191.816 561.626 191.051C562.629 190.285 563.13 189.392 563.13 188.371C563.13 187.988 563.094 187.633 563.021 187.305C562.948 186.977 562.82 186.685 562.638 186.43C562.456 186.174 562.273 185.947 562.091 185.746C561.927 185.546 561.672 185.363 561.325 185.199C560.997 185.035 560.706 184.898 560.45 184.789C560.195 184.661 559.831 184.534 559.357 184.406C558.883 184.279 558.491 184.178 558.181 184.105C557.889 184.033 557.452 183.932 556.868 183.805C556.303 183.677 555.857 183.577 555.529 183.504C552.922 182.884 551.29 182.465 550.634 182.246C547.772 181.28 545.977 179.767 545.247 177.707C544.974 176.923 544.837 176.039 544.837 175.055C544.837 172.63 545.849 170.616 547.872 169.012C549.896 167.408 552.648 166.605 556.13 166.605C559.831 166.605 562.684 167.471 564.689 169.203C566.712 170.935 567.824 173.132 568.025 175.793H562.31C562.2 175.155 562.036 174.599 561.818 174.125C561.599 173.633 561.271 173.159 560.833 172.703C560.396 172.229 559.785 171.874 559.001 171.637C558.217 171.382 557.279 171.254 556.185 171.254C554.453 171.254 553.113 171.555 552.165 172.156C551.236 172.758 550.771 173.578 550.771 174.617C550.771 175.018 550.825 175.383 550.935 175.711C551.044 176.021 551.236 176.294 551.509 176.531C551.801 176.768 552.065 176.969 552.302 177.133C552.557 177.297 552.958 177.461 553.505 177.625C554.052 177.771 554.48 177.889 554.79 177.98C555.118 178.053 555.656 178.172 556.404 178.336C557.151 178.482 557.716 178.6 558.099 178.691ZM96.4062 233.715C97.2812 233.715 98.138 233.77 98.9766 233.879V239.43H98.8672C96.0234 238.956 93.6081 239.576 91.6211 241.289C89.6523 242.984 88.668 245.345 88.668 248.371V263H82.7891V234.371H88.668V239.758H88.8047C90.5 235.729 93.0339 233.715 96.4062 233.715ZM113.306 259.035C114.454 259.035 115.493 258.871 116.423 258.543C117.353 258.215 118.091 257.796 118.638 257.285C119.203 256.775 119.64 256.273 119.95 255.781C120.278 255.271 120.515 254.77 120.661 254.277H126.54C125.775 257.158 124.28 259.473 122.056 261.223C119.832 262.973 116.97 263.848 113.47 263.848C109.058 263.848 105.567 262.462 102.997 259.691C100.427 256.921 99.1417 253.266 99.1417 248.727C99.1417 244.078 100.409 240.396 102.942 237.68C105.476 234.964 108.894 233.605 113.196 233.605C117.717 233.605 121.144 235.073 123.478 238.008C125.811 240.943 126.978 245.017 126.978 250.23H105.021C105.021 252.728 105.768 254.824 107.263 256.52C108.776 258.197 110.79 259.035 113.306 259.035ZM113.196 238.254C110.808 238.254 108.849 238.974 107.317 240.414C105.786 241.836 105.021 243.65 105.021 245.855H121.099C121.099 243.632 120.37 241.809 118.911 240.387C117.471 238.965 115.566 238.254 113.196 238.254ZM126.377 234.371H132.584L139.83 256.793H139.885L147.104 234.371H153.311L143.166 263H136.522L126.377 234.371ZM166.902 259.035C168.05 259.035 169.089 258.871 170.019 258.543C170.949 258.215 171.687 257.796 172.234 257.285C172.799 256.775 173.236 256.273 173.546 255.781C173.874 255.271 174.111 254.77 174.257 254.277H180.136C179.37 257.158 177.876 259.473 175.652 261.223C173.428 262.973 170.566 263.848 167.066 263.848C162.654 263.848 159.163 262.462 156.593 259.691C154.023 256.921 152.738 253.266 152.738 248.727C152.738 244.078 154.005 240.396 156.538 237.68C159.072 234.964 162.49 233.605 166.792 233.605C171.313 233.605 174.74 235.073 177.074 238.008C179.407 240.943 180.574 245.017 180.574 250.23H158.617C158.617 252.728 159.364 254.824 160.859 256.52C162.372 258.197 164.386 259.035 166.902 259.035ZM166.792 238.254C164.404 238.254 162.445 238.974 160.913 240.414C159.382 241.836 158.617 243.65 158.617 245.855H174.695C174.695 243.632 173.966 241.809 172.507 240.387C171.067 238.965 169.162 238.254 166.792 238.254ZM198.895 233.605C201.702 233.605 203.99 234.426 205.758 236.066C207.527 237.689 208.411 240.077 208.411 243.23V263H202.477V244.898C202.477 240.688 200.59 238.582 196.817 238.582C194.538 238.582 192.724 239.22 191.375 240.496C190.027 241.754 189.352 243.449 189.352 245.582V263H183.473V234.371H189.352V238.09H189.489C190.346 236.814 191.558 235.747 193.125 234.891C194.711 234.034 196.635 233.605 198.895 233.605ZM231.49 234.371H237.369V263H231.49V259.309H231.353C230.496 260.585 229.275 261.651 227.689 262.508C226.121 263.365 224.207 263.793 221.947 263.793C219.14 263.793 216.852 262.973 215.084 261.332C213.315 259.691 212.431 257.294 212.431 254.141V234.371H218.365V252.473C218.365 256.684 220.252 258.789 224.025 258.789C226.304 258.789 228.117 258.16 229.466 256.902C230.815 255.626 231.49 253.922 231.49 251.789V234.371ZM254.487 259.035C255.635 259.035 256.675 258.871 257.604 258.543C258.534 258.215 259.272 257.796 259.819 257.285C260.384 256.775 260.822 256.273 261.132 255.781C261.46 255.271 261.697 254.77 261.842 254.277H267.721C266.956 257.158 265.461 259.473 263.237 261.223C261.013 262.973 258.151 263.848 254.651 263.848C250.24 263.848 246.749 262.462 244.178 259.691C241.608 256.921 240.323 253.266 240.323 248.727C240.323 244.078 241.59 240.396 244.124 237.68C246.658 234.964 250.076 233.605 254.378 233.605C258.898 233.605 262.326 235.073 264.659 238.008C266.992 240.943 268.159 245.017 268.159 250.23H246.202C246.202 252.728 246.949 254.824 248.444 256.52C249.957 258.197 251.971 259.035 254.487 259.035ZM254.378 238.254C251.99 238.254 250.03 238.974 248.499 240.414C246.967 241.836 246.202 243.65 246.202 245.855H262.28C262.28 243.632 261.551 241.809 260.092 240.387C258.652 238.965 256.747 238.254 254.378 238.254ZM294.274 239.211H288.915V254.715C288.915 255.517 289.015 256.164 289.216 256.656C289.416 257.13 289.735 257.486 290.173 257.723C290.61 257.96 291.166 258.105 291.841 258.16C292.515 258.197 293.326 258.188 294.274 258.133V262.945C293.017 263.237 291.677 263.383 290.255 263.383C287.812 263.383 285.98 262.754 284.759 261.496C283.556 260.238 282.954 258.142 282.954 255.207V239.211H278.825V234.371H282.954V225.375H288.915V234.371H294.274V239.211ZM311.037 233.715C311.912 233.715 312.769 233.77 313.607 233.879V239.43H313.498C310.654 238.956 308.239 239.576 306.252 241.289C304.283 242.984 303.299 245.345 303.299 248.371V263H297.42V234.371H303.299V239.758H303.436C305.131 235.729 307.665 233.715 311.037 233.715ZM332.53 241.891C332.53 239.466 330.817 238.254 327.39 238.254C325.057 238.254 323.389 238.646 322.386 239.43C321.383 240.214 320.809 241.535 320.663 243.395H314.948C315.094 240.441 316.179 238.072 318.202 236.285C320.244 234.499 323.307 233.605 327.39 233.605C334.736 233.605 338.409 236.941 338.409 243.613V257.23C338.409 258.324 338.592 259.108 338.956 259.582C339.339 260.038 340.077 260.211 341.171 260.102V262.891C340.077 263.292 338.938 263.492 337.753 263.492C336.185 263.492 335.001 263.191 334.198 262.59C333.396 261.988 332.859 260.986 332.585 259.582H332.476C331.528 260.895 330.243 261.934 328.62 262.699C327.016 263.465 325.148 263.848 323.015 263.848C320.135 263.848 317.847 263.1 316.152 261.605C314.456 260.092 313.609 258.115 313.609 255.672C313.609 254.451 313.791 253.366 314.155 252.418C314.538 251.452 315.049 250.641 315.687 249.984C316.325 249.31 317.154 248.717 318.175 248.207C319.214 247.697 320.29 247.286 321.402 246.977C322.532 246.648 323.872 246.329 325.421 246.02C326.205 245.874 326.807 245.755 327.226 245.664C327.645 245.573 328.146 245.454 328.73 245.309C329.331 245.163 329.787 245.026 330.097 244.898C330.407 244.771 330.744 244.607 331.109 244.406C331.473 244.206 331.738 243.996 331.902 243.777C332.084 243.54 332.23 243.267 332.339 242.957C332.467 242.629 332.53 242.273 332.53 241.891ZM324.3 259.199C326.797 259.199 328.793 258.589 330.288 257.367C331.783 256.146 332.53 254.405 332.53 252.145V247.824C331.601 248.48 329.605 249.118 326.542 249.738C324.045 250.285 322.249 250.96 321.155 251.762C320.08 252.564 319.542 253.676 319.542 255.098C319.542 257.832 321.128 259.199 324.3 259.199ZM363.184 244.844C363.129 244.06 362.956 243.312 362.664 242.602C362.391 241.891 361.981 241.216 361.434 240.578C360.905 239.922 360.176 239.402 359.246 239.02C358.335 238.618 357.278 238.418 356.075 238.418C354.689 238.418 353.45 238.701 352.356 239.266C351.28 239.831 350.423 240.596 349.785 241.562C349.147 242.529 348.664 243.622 348.336 244.844C348.008 246.047 347.844 247.341 347.844 248.727C347.844 250.112 347.999 251.415 348.309 252.637C348.637 253.84 349.12 254.924 349.758 255.891C350.396 256.857 351.253 257.622 352.328 258.188C353.422 258.753 354.671 259.035 356.075 259.035C357.278 259.035 358.335 258.844 359.246 258.461C360.176 258.078 360.905 257.559 361.434 256.902C361.981 256.228 362.391 255.517 362.664 254.77C362.956 254.022 363.129 253.22 363.184 252.363H369.063C368.844 255.717 367.541 258.47 365.153 260.621C362.765 262.772 359.739 263.848 356.075 263.848C351.809 263.848 348.391 262.453 345.821 259.664C343.25 256.875 341.965 253.229 341.965 248.727C341.965 244.224 343.25 240.578 345.821 237.789C348.391 235 351.791 233.605 356.02 233.605C359.666 233.605 362.655 234.654 364.989 236.75C367.322 238.828 368.68 241.526 369.063 244.844H363.184ZM371.826 222.969H377.705V245.855L389.353 234.371H396.599L385.716 245.035L397.775 263H390.72L381.697 248.891L377.705 252.637V263H371.826V222.969ZM402.67 229.559C401.795 229.559 401.021 229.276 400.346 228.711C399.69 228.146 399.362 227.389 399.362 226.441C399.362 225.493 399.69 224.746 400.346 224.199C401.021 223.634 401.795 223.352 402.67 223.352C403.6 223.352 404.393 223.625 405.049 224.172C405.706 224.719 406.034 225.475 406.034 226.441C406.034 227.408 405.697 228.173 405.022 228.738C404.366 229.285 403.582 229.559 402.67 229.559ZM399.772 234.371H405.651V263H399.772V234.371ZM425.914 233.605C428.721 233.605 431.009 234.426 432.777 236.066C434.545 237.689 435.429 240.077 435.429 243.23V263H429.496V244.898C429.496 240.688 427.609 238.582 423.836 238.582C421.557 238.582 419.743 239.22 418.394 240.496C417.045 241.754 416.371 243.449 416.371 245.582V263H410.492V234.371H416.371V238.09H416.508C417.364 236.814 418.577 235.747 420.144 234.891C421.73 234.034 423.653 233.605 425.914 233.605ZM459.493 234.371H465.372V261.031C465.372 265.042 464.233 268.022 461.954 269.973C459.675 271.923 456.449 272.898 452.274 272.898C448.355 272.898 445.229 272.023 442.895 270.273C440.562 268.523 439.231 266.363 438.903 263.793H444.837C445.475 266.728 447.881 268.195 452.055 268.195C454.553 268.195 456.412 267.594 457.634 266.391C458.873 265.206 459.493 263.346 459.493 260.812V257.34H459.384C457.378 260.184 454.489 261.605 450.716 261.605C447.015 261.605 443.998 260.375 441.665 257.914C439.332 255.435 438.165 251.999 438.165 247.605C438.165 243.194 439.332 239.758 441.665 237.297C443.998 234.836 447.015 233.605 450.716 233.605C454.453 233.605 457.342 234.982 459.384 237.734H459.493V234.371ZM451.837 256.793C454.243 256.793 456.111 256.009 457.442 254.441C458.773 252.874 459.438 250.595 459.438 247.605C459.438 244.616 458.773 242.337 457.442 240.77C456.111 239.202 454.243 238.418 451.837 238.418C449.339 238.418 447.416 239.266 446.067 240.961C444.718 242.638 444.044 244.853 444.044 247.605C444.044 250.34 444.718 252.555 446.067 254.25C447.416 255.945 449.339 256.793 451.837 256.793ZM499.499 222.969H505.378V263H499.499V259.691H499.39C498.496 260.858 497.321 261.842 495.862 262.645C494.404 263.447 492.663 263.848 490.64 263.848C486.903 263.848 483.84 262.48 481.452 259.746C479.064 257.012 477.87 253.339 477.87 248.727C477.87 244.115 479.064 240.441 481.452 237.707C483.84 234.973 486.903 233.605 490.64 233.605C492.7 233.605 494.459 234.007 495.917 234.809C497.394 235.592 498.551 236.604 499.39 237.844H499.499V222.969ZM491.651 259.035C494.058 259.035 495.953 258.115 497.339 256.273C498.743 254.414 499.444 251.898 499.444 248.727C499.444 245.536 498.743 243.021 497.339 241.18C495.953 239.339 494.058 238.418 491.651 238.418C489.172 238.418 487.231 239.402 485.827 241.371C484.442 243.34 483.749 245.792 483.749 248.727C483.749 251.661 484.442 254.113 485.827 256.082C487.231 258.051 489.172 259.035 491.651 259.035ZM527.172 241.891C527.172 239.466 525.458 238.254 522.031 238.254C519.698 238.254 518.03 238.646 517.027 239.43C516.025 240.214 515.451 241.535 515.305 243.395H509.59C509.736 240.441 510.82 238.072 512.844 236.285C514.886 234.499 517.948 233.605 522.031 233.605C529.378 233.605 533.051 236.941 533.051 243.613V257.23C533.051 258.324 533.233 259.108 533.598 259.582C533.981 260.038 534.719 260.211 535.813 260.102V262.891C534.719 263.292 533.58 263.492 532.395 263.492C530.827 263.492 529.642 263.191 528.84 262.59C528.038 261.988 527.5 260.986 527.227 259.582H527.117C526.169 260.895 524.884 261.934 523.262 262.699C521.658 263.465 519.789 263.848 517.656 263.848C514.776 263.848 512.488 263.1 510.793 261.605C509.098 260.092 508.25 258.115 508.25 255.672C508.25 254.451 508.432 253.366 508.797 252.418C509.18 251.452 509.69 250.641 510.328 249.984C510.966 249.31 511.796 248.717 512.817 248.207C513.856 247.697 514.931 247.286 516.043 246.977C517.173 246.648 518.513 246.329 520.063 246.02C520.847 245.874 521.448 245.755 521.867 245.664C522.287 245.573 522.788 245.454 523.371 245.309C523.973 245.163 524.429 245.026 524.738 244.898C525.048 244.771 525.386 244.607 525.75 244.406C526.115 244.206 526.379 243.996 526.543 243.777C526.725 243.54 526.871 243.267 526.981 242.957C527.108 242.629 527.172 242.273 527.172 241.891ZM518.942 259.199C521.439 259.199 523.435 258.589 524.93 257.367C526.425 256.146 527.172 254.405 527.172 252.145V247.824C526.242 248.48 524.246 249.118 521.184 249.738C518.686 250.285 516.891 250.96 515.797 251.762C514.722 252.564 514.184 253.676 514.184 255.098C514.184 257.832 515.77 259.199 518.942 259.199ZM550.497 245.691C553.432 246.384 555.483 246.995 556.65 247.523C559.329 248.745 560.888 250.641 561.325 253.211C561.417 253.758 561.462 254.332 561.462 254.934C561.462 257.668 560.396 259.837 558.263 261.441C556.13 263.046 553.314 263.848 549.814 263.848C545.384 263.848 542.066 262.918 539.861 261.059C537.655 259.199 536.479 256.674 536.333 253.484H542.048C542.121 254.341 542.276 255.079 542.513 255.699C542.768 256.319 543.16 256.911 543.689 257.477C544.236 258.042 545.01 258.47 546.013 258.762C547.016 259.053 548.246 259.199 549.704 259.199C551.6 259.199 553.04 258.816 554.025 258.051C555.027 257.285 555.529 256.392 555.529 255.371C555.529 254.988 555.492 254.633 555.419 254.305C555.346 253.977 555.219 253.685 555.036 253.43C554.854 253.174 554.672 252.947 554.49 252.746C554.325 252.546 554.07 252.363 553.724 252.199C553.396 252.035 553.104 251.898 552.849 251.789C552.594 251.661 552.229 251.534 551.755 251.406C551.281 251.279 550.889 251.178 550.579 251.105C550.288 251.033 549.85 250.932 549.267 250.805C548.702 250.677 548.255 250.577 547.927 250.504C545.32 249.884 543.689 249.465 543.033 249.246C540.171 248.28 538.375 246.767 537.646 244.707C537.372 243.923 537.236 243.039 537.236 242.055C537.236 239.63 538.247 237.616 540.271 236.012C542.294 234.408 545.047 233.605 548.529 233.605C552.229 233.605 555.082 234.471 557.087 236.203C559.111 237.935 560.223 240.132 560.423 242.793H554.708C554.599 242.155 554.435 241.599 554.216 241.125C553.997 240.633 553.669 240.159 553.232 239.703C552.794 239.229 552.184 238.874 551.4 238.637C550.616 238.382 549.677 238.254 548.583 238.254C546.852 238.254 545.512 238.555 544.564 239.156C543.634 239.758 543.169 240.578 543.169 241.617C543.169 242.018 543.224 242.383 543.333 242.711C543.443 243.021 543.634 243.294 543.908 243.531C544.199 243.768 544.463 243.969 544.7 244.133C544.956 244.297 545.357 244.461 545.904 244.625C546.45 244.771 546.879 244.889 547.189 244.98C547.517 245.053 548.055 245.172 548.802 245.336C549.549 245.482 550.115 245.6 550.497 245.691ZM579.592 233.605C582.454 233.605 584.769 234.426 586.538 236.066C588.324 237.689 589.217 240.077 589.217 243.23V263H583.284V244.898C583.284 240.688 581.379 238.582 577.569 238.582C575.381 238.582 573.595 239.22 572.209 240.496C570.842 241.772 570.159 243.467 570.159 245.582V263H564.28V222.969H570.159V238.09H570.295C571.152 236.814 572.355 235.747 573.905 234.891C575.472 234.034 577.368 233.605 579.592 233.605ZM608.195 233.605C611.932 233.605 614.994 234.973 617.382 237.707C619.77 240.441 620.964 244.115 620.964 248.727C620.964 253.339 619.77 257.012 617.382 259.746C614.994 262.48 611.932 263.848 608.195 263.848C606.171 263.848 604.431 263.447 602.972 262.645C601.532 261.842 600.365 260.858 599.472 259.691H599.335V263H593.457V222.969H599.335V237.844H599.472C600.329 236.604 601.477 235.592 602.918 234.809C604.376 234.007 606.135 233.605 608.195 233.605ZM607.183 259.035C609.662 259.035 611.595 258.051 612.98 256.082C614.384 254.113 615.085 251.661 615.085 248.727C615.085 245.792 614.384 243.34 612.98 241.371C611.595 239.402 609.662 238.418 607.183 238.418C604.777 238.418 602.872 239.339 601.468 241.18C600.083 243.021 599.39 245.536 599.39 248.727C599.39 251.898 600.083 254.414 601.468 256.273C602.872 258.115 604.777 259.035 607.183 259.035ZM626.297 259.691C628.886 262.462 632.395 263.848 636.825 263.848C641.255 263.848 644.764 262.462 647.352 259.691C649.941 256.902 651.235 253.247 651.235 248.727C651.235 244.206 649.941 240.56 647.352 237.789C644.764 235 641.255 233.605 636.825 233.605C632.395 233.605 628.886 235 626.297 237.789C623.727 240.56 622.442 244.206 622.442 248.727C622.442 253.247 623.727 256.902 626.297 259.691ZM643.114 256.164C641.637 258.078 639.541 259.035 636.825 259.035C634.109 259.035 632.012 258.078 630.536 256.164C629.059 254.25 628.321 251.771 628.321 248.727C628.321 245.646 629.059 243.158 630.536 241.262C632.012 239.366 634.109 238.418 636.825 238.418C639.541 238.418 641.637 239.375 643.114 241.289C644.609 243.185 645.356 245.664 645.356 248.727C645.356 251.771 644.609 254.25 643.114 256.164ZM671.47 241.891C671.47 239.466 669.757 238.254 666.33 238.254C663.997 238.254 662.329 238.646 661.326 239.43C660.323 240.214 659.749 241.535 659.603 243.395H653.888C654.034 240.441 655.119 238.072 657.142 236.285C659.184 234.499 662.247 233.605 666.33 233.605C673.676 233.605 677.349 236.941 677.349 243.613V257.23C677.349 258.324 677.532 259.108 677.896 259.582C678.279 260.038 679.017 260.211 680.111 260.102V262.891C679.017 263.292 677.878 263.492 676.693 263.492C675.125 263.492 673.941 263.191 673.138 262.59C672.336 261.988 671.799 260.986 671.525 259.582H671.416C670.468 260.895 669.183 261.934 667.56 262.699C665.956 263.465 664.088 263.848 661.955 263.848C659.075 263.848 656.787 263.1 655.092 261.605C653.396 260.092 652.549 258.115 652.549 255.672C652.549 254.451 652.731 253.366 653.095 252.418C653.478 251.452 653.989 250.641 654.627 249.984C655.265 249.31 656.094 248.717 657.115 248.207C658.154 247.697 659.23 247.286 660.342 246.977C661.472 246.648 662.812 246.329 664.361 246.02C665.145 245.874 665.747 245.755 666.166 245.664C666.585 245.573 667.086 245.454 667.67 245.309C668.271 245.163 668.727 245.026 669.037 244.898C669.347 244.771 669.684 244.607 670.049 244.406C670.413 244.206 670.677 243.996 670.842 243.777C671.024 243.54 671.17 243.267 671.279 242.957C671.407 242.629 671.47 242.273 671.47 241.891ZM663.24 259.199C665.737 259.199 667.733 258.589 669.228 257.367C670.723 256.146 671.47 254.405 671.47 252.145V247.824C670.541 248.48 668.545 249.118 665.482 249.738C662.985 250.285 661.189 250.96 660.095 251.762C659.02 252.564 658.482 253.676 658.482 255.098C658.482 257.832 660.068 259.199 663.24 259.199ZM696.026 233.715C696.901 233.715 697.758 233.77 698.597 233.879V239.43H698.487C695.643 238.956 693.228 239.576 691.241 241.289C689.272 242.984 688.288 245.345 688.288 248.371V263H682.409V234.371H688.288V239.758H688.425C690.12 235.729 692.654 233.715 696.026 233.715ZM720.391 222.969H726.27V263H720.391V259.691H720.281C719.388 260.858 718.212 261.842 716.754 262.645C715.296 263.447 713.555 263.848 711.531 263.848C707.794 263.848 704.732 262.48 702.344 259.746C699.956 257.012 698.762 253.339 698.762 248.727C698.762 244.115 699.956 240.441 702.344 237.707C704.732 234.973 707.794 233.605 711.531 233.605C713.591 233.605 715.35 234.007 716.809 234.809C718.285 235.592 719.443 236.604 720.281 237.844H720.391V222.969ZM712.543 259.035C714.949 259.035 716.845 258.115 718.23 256.273C719.634 254.414 720.336 251.898 720.336 248.727C720.336 245.536 719.634 243.021 718.23 241.18C716.845 239.339 714.949 238.418 712.543 238.418C710.064 238.418 708.122 239.402 706.719 241.371C705.333 243.34 704.641 245.792 704.641 248.727C704.641 251.661 705.333 254.113 706.719 256.082C708.122 258.051 710.064 259.035 712.543 259.035Z" fill="white" fill-opacity="0.9"/>
<rect x="80" y="316" width="160" height="54" rx="27" fill="#1E1E20"/>
<path d="M126.836 342.494C127.363 342.623 127.759 342.726 128.022 342.802C128.292 342.872 128.629 342.978 129.033 343.118C129.443 343.253 129.748 343.382 129.947 343.505C130.146 343.628 130.375 343.792 130.633 343.997C130.891 344.202 131.075 344.425 131.187 344.665C131.304 344.899 131.403 345.184 131.485 345.518C131.573 345.852 131.617 346.224 131.617 346.634C131.617 347.114 131.526 347.568 131.345 347.996C131.163 348.418 130.891 348.802 130.527 349.147C130.164 349.487 129.678 349.757 129.068 349.956C128.459 350.155 127.762 350.255 126.977 350.255C125.406 350.255 124.105 349.851 123.074 349.042C122.043 348.233 121.483 347.111 121.396 345.676H123.013C123.06 346.133 123.165 346.546 123.329 346.915C123.499 347.284 123.736 347.615 124.041 347.908C124.352 348.195 124.753 348.418 125.245 348.576C125.743 348.734 126.32 348.813 126.977 348.813C128.02 348.813 128.784 348.611 129.271 348.207C129.757 347.797 130 347.272 130 346.634C130 346.411 129.985 346.212 129.956 346.036C129.933 345.86 129.88 345.699 129.798 345.553C129.722 345.4 129.64 345.271 129.552 345.166C129.464 345.055 129.332 344.949 129.156 344.85C128.986 344.744 128.819 344.656 128.655 344.586C128.491 344.51 128.266 344.431 127.979 344.349C127.691 344.261 127.419 344.185 127.161 344.12C126.909 344.056 126.578 343.977 126.168 343.883C125.84 343.807 125.556 343.736 125.315 343.672C125.081 343.607 124.806 343.52 124.489 343.408C124.173 343.297 123.903 343.183 123.681 343.065C123.464 342.942 123.235 342.787 122.995 342.6C122.761 342.412 122.57 342.213 122.424 342.002C122.283 341.785 122.166 341.527 122.072 341.229C121.979 340.93 121.932 340.607 121.932 340.262C121.932 339.23 122.315 338.41 123.083 337.801C123.856 337.186 124.943 336.878 126.344 336.878C127.738 336.878 128.869 337.229 129.736 337.933C130.609 338.636 131.099 339.641 131.204 340.947H129.587C129.464 340.068 129.142 339.412 128.62 338.979C128.099 338.539 127.34 338.319 126.344 338.319C125.453 338.319 124.765 338.478 124.278 338.794C123.798 339.11 123.558 339.541 123.558 340.086C123.558 340.402 123.607 340.678 123.707 340.912C123.812 341.146 123.938 341.337 124.085 341.483C124.237 341.624 124.454 341.756 124.735 341.879C125.017 342.002 125.28 342.099 125.526 342.169C125.772 342.233 126.098 342.315 126.502 342.415C126.648 342.45 126.76 342.477 126.836 342.494ZM138.877 343.162C138.877 342.271 138.253 341.826 137.005 341.826C136.144 341.826 135.537 341.964 135.186 342.239C134.834 342.515 134.635 342.989 134.588 343.663H133.146C133.193 342.72 133.53 341.97 134.157 341.413C134.79 340.851 135.739 340.569 137.005 340.569C137.368 340.569 137.705 340.599 138.016 340.657C138.332 340.716 138.634 340.815 138.921 340.956C139.208 341.097 139.451 341.275 139.65 341.492C139.85 341.709 140.008 341.987 140.125 342.327C140.248 342.661 140.31 343.042 140.31 343.47V347.926C140.31 348.324 140.377 348.605 140.512 348.77C140.646 348.928 140.928 348.983 141.355 348.937V349.947C141.068 350.041 140.787 350.088 140.512 350.088C140.049 350.088 139.691 350.003 139.439 349.833C139.188 349.657 139 349.329 138.877 348.849H138.842C138.209 349.786 137.169 350.255 135.722 350.255C134.802 350.255 134.066 350.015 133.516 349.534C132.971 349.054 132.698 348.424 132.698 347.645C132.698 347.234 132.76 346.874 132.883 346.563C133.012 346.253 133.179 345.995 133.384 345.79C133.589 345.585 133.87 345.403 134.228 345.245C134.585 345.081 134.942 344.952 135.3 344.858C135.657 344.765 136.1 344.668 136.627 344.568C137.482 344.41 138.071 344.243 138.394 344.067C138.716 343.892 138.877 343.59 138.877 343.162ZM135.871 348.989C136.779 348.989 137.506 348.778 138.051 348.356C138.602 347.935 138.877 347.302 138.877 346.458V344.92C138.643 345.154 137.934 345.395 136.75 345.641C135.818 345.84 135.15 346.08 134.746 346.361C134.342 346.643 134.14 347.047 134.14 347.574C134.14 348.518 134.717 348.989 135.871 348.989ZM148.053 343.162C148.053 342.271 147.429 341.826 146.181 341.826C145.319 341.826 144.713 341.964 144.361 342.239C144.01 342.515 143.811 342.989 143.764 343.663H142.322C142.369 342.72 142.706 341.97 143.333 341.413C143.966 340.851 144.915 340.569 146.181 340.569C146.544 340.569 146.881 340.599 147.191 340.657C147.508 340.716 147.81 340.815 148.097 340.956C148.384 341.097 148.627 341.275 148.826 341.492C149.025 341.709 149.184 341.987 149.301 342.327C149.424 342.661 149.485 343.042 149.485 343.47V347.926C149.485 348.324 149.553 348.605 149.688 348.77C149.822 348.928 150.104 348.983 150.531 348.937V349.947C150.244 350.041 149.963 350.088 149.688 350.088C149.225 350.088 148.867 350.003 148.615 349.833C148.363 349.657 148.176 349.329 148.053 348.849H148.018C147.385 349.786 146.345 350.255 144.897 350.255C143.978 350.255 143.242 350.015 142.691 349.534C142.146 349.054 141.874 348.424 141.874 347.645C141.874 347.234 141.936 346.874 142.059 346.563C142.188 346.253 142.354 345.995 142.56 345.79C142.765 345.585 143.046 345.403 143.403 345.245C143.761 345.081 144.118 344.952 144.476 344.858C144.833 344.765 145.275 344.668 145.803 344.568C146.658 344.41 147.247 344.243 147.569 344.067C147.892 343.892 148.053 343.59 148.053 343.162ZM145.047 348.989C145.955 348.989 146.682 348.778 147.227 348.356C147.777 347.935 148.053 347.302 148.053 346.458V344.92C147.818 345.154 147.109 345.395 145.926 345.641C144.994 345.84 144.326 346.08 143.922 346.361C143.518 346.643 143.315 347.047 143.315 347.574C143.315 348.518 143.893 348.989 145.047 348.989ZM156.455 342.494C156.982 342.623 157.378 342.726 157.642 342.802C157.911 342.872 158.248 342.978 158.652 343.118C159.062 343.253 159.367 343.382 159.566 343.505C159.766 343.628 159.994 343.792 160.252 343.997C160.51 344.202 160.694 344.425 160.806 344.665C160.923 344.899 161.022 345.184 161.104 345.518C161.192 345.852 161.236 346.224 161.236 346.634C161.236 347.114 161.146 347.568 160.964 347.996C160.782 348.418 160.51 348.802 160.146 349.147C159.783 349.487 159.297 349.757 158.688 349.956C158.078 350.155 157.381 350.255 156.596 350.255C155.025 350.255 153.725 349.851 152.693 349.042C151.662 348.233 151.103 347.111 151.015 345.676H152.632C152.679 346.133 152.784 346.546 152.948 346.915C153.118 347.284 153.355 347.615 153.66 347.908C153.971 348.195 154.372 348.418 154.864 348.576C155.362 348.734 155.939 348.813 156.596 348.813C157.639 348.813 158.403 348.611 158.89 348.207C159.376 347.797 159.619 347.272 159.619 346.634C159.619 346.411 159.604 346.212 159.575 346.036C159.552 345.86 159.499 345.699 159.417 345.553C159.341 345.4 159.259 345.271 159.171 345.166C159.083 345.055 158.951 344.949 158.775 344.85C158.605 344.744 158.438 344.656 158.274 344.586C158.11 344.51 157.885 344.431 157.598 344.349C157.311 344.261 157.038 344.185 156.78 344.12C156.528 344.056 156.197 343.977 155.787 343.883C155.459 343.807 155.175 343.736 154.935 343.672C154.7 343.607 154.425 343.52 154.108 343.408C153.792 343.297 153.522 343.183 153.3 343.065C153.083 342.942 152.854 342.787 152.614 342.6C152.38 342.412 152.189 342.213 152.043 342.002C151.902 341.785 151.785 341.527 151.691 341.229C151.598 340.93 151.551 340.607 151.551 340.262C151.551 339.23 151.935 338.41 152.702 337.801C153.476 337.186 154.562 336.878 155.963 336.878C157.357 336.878 158.488 337.229 159.355 337.933C160.229 338.636 160.718 339.641 160.823 340.947H159.206C159.083 340.068 158.761 339.412 158.239 338.979C157.718 338.539 156.959 338.319 155.963 338.319C155.072 338.319 154.384 338.478 153.897 338.794C153.417 339.11 153.177 339.541 153.177 340.086C153.177 340.402 153.227 340.678 153.326 340.912C153.432 341.146 153.558 341.337 153.704 341.483C153.856 341.624 154.073 341.756 154.354 341.879C154.636 342.002 154.899 342.099 155.146 342.169C155.392 342.233 155.717 342.315 156.121 342.415C156.268 342.45 156.379 342.477 156.455 342.494ZM176.09 340.367C176.09 341.691 175.425 342.579 174.095 343.03V343.074C174.821 343.203 175.419 343.537 175.888 344.076C176.362 344.615 176.6 345.342 176.6 346.256C176.6 347.434 176.207 348.354 175.422 349.016C174.643 349.672 173.582 350 172.24 350H166.694V337.133H171.88C173.192 337.133 174.221 337.423 174.965 338.003C175.715 338.577 176.09 339.365 176.09 340.367ZM168.32 342.512H172.135C173.002 342.512 173.608 342.345 173.954 342.011C174.3 341.671 174.473 341.185 174.473 340.552C174.473 339.942 174.291 339.462 173.928 339.11C173.564 338.753 173.025 338.574 172.311 338.574H168.32V342.512ZM168.32 343.953V348.559H172.398C174.115 348.559 174.974 347.791 174.974 346.256C174.974 345.559 174.771 345.002 174.367 344.586C173.969 344.164 173.433 343.953 172.759 343.953H168.32ZM179.614 341.914H177.988C177.988 341.258 178.079 340.654 178.261 340.104C178.442 339.553 178.712 339.069 179.069 338.653C179.427 338.231 179.896 337.903 180.476 337.669C181.056 337.429 181.721 337.309 182.471 337.309C183.191 337.309 183.848 337.452 184.439 337.739C185.031 338.021 185.512 338.448 185.881 339.022C186.25 339.597 186.435 340.268 186.435 341.035C186.435 341.615 186.323 342.148 186.101 342.635C185.878 343.115 185.582 343.528 185.213 343.874C184.844 344.214 184.434 344.533 183.982 344.832C183.537 345.131 183.08 345.415 182.611 345.685C182.143 345.948 181.703 346.215 181.293 346.484C180.883 346.748 180.522 347.056 180.212 347.407C179.907 347.753 179.702 348.125 179.597 348.523V348.559H186.25V350H177.628C177.628 347.885 178.864 346.104 181.337 344.656C181.507 344.557 181.724 344.431 181.987 344.278C182.257 344.126 182.459 344.012 182.594 343.936C182.729 343.859 182.898 343.757 183.104 343.628C183.314 343.499 183.47 343.396 183.569 343.32C183.669 343.244 183.792 343.147 183.938 343.03C184.085 342.913 184.193 342.808 184.264 342.714C184.334 342.62 184.413 342.509 184.501 342.38C184.589 342.251 184.65 342.122 184.686 341.993C184.721 341.864 184.75 341.721 184.773 341.562C184.803 341.404 184.817 341.234 184.817 341.053C184.817 340.766 184.779 340.496 184.703 340.244C184.633 339.992 184.513 339.749 184.343 339.515C184.179 339.28 183.933 339.096 183.604 338.961C183.276 338.82 182.887 338.75 182.436 338.75C180.555 338.75 179.614 339.805 179.614 341.914ZM197.676 340.367C197.676 341.691 197.011 342.579 195.681 343.03V343.074C196.407 343.203 197.005 343.537 197.474 344.076C197.948 344.615 198.186 345.342 198.186 346.256C198.186 347.434 197.793 348.354 197.008 349.016C196.229 349.672 195.168 350 193.826 350H188.28V337.133H193.466C194.778 337.133 195.807 337.423 196.551 338.003C197.301 338.577 197.676 339.365 197.676 340.367ZM189.906 342.512H193.721C194.588 342.512 195.194 342.345 195.54 342.011C195.886 341.671 196.059 341.185 196.059 340.552C196.059 339.942 195.877 339.462 195.514 339.11C195.15 338.753 194.611 338.574 193.896 338.574H189.906V342.512ZM189.906 343.953V348.559H193.984C195.701 348.559 196.56 347.791 196.56 346.256C196.56 345.559 196.357 345.002 195.953 344.586C195.555 344.164 195.019 343.953 194.345 343.953H189.906Z" fill="white"/>
<rect x="264" y="316" width="160" height="54" rx="27" fill="#1E1E20"/>
<path d="M302.704 350V337.133H307.371C309.158 337.133 310.559 337.695 311.572 338.82C312.586 339.939 313.093 341.524 313.093 343.575C313.093 345.626 312.586 347.211 311.572 348.33C310.559 349.443 309.158 350 307.371 350H302.704ZM304.33 338.574V348.559H307.371C308.004 348.559 308.563 348.465 309.05 348.277C309.542 348.09 309.938 347.844 310.236 347.539C310.535 347.229 310.778 346.854 310.966 346.414C311.159 345.975 311.291 345.526 311.361 345.069C311.438 344.612 311.476 344.114 311.476 343.575C311.476 343.036 311.438 342.538 311.361 342.081C311.291 341.624 311.159 341.176 310.966 340.736C310.778 340.291 310.535 339.913 310.236 339.603C309.938 339.292 309.542 339.043 309.05 338.855C308.563 338.668 308.004 338.574 307.371 338.574H304.33ZM320.238 343.162C320.238 342.271 319.614 341.826 318.366 341.826C317.505 341.826 316.898 341.964 316.547 342.239C316.195 342.515 315.996 342.989 315.949 343.663H314.508C314.555 342.72 314.892 341.97 315.519 341.413C316.151 340.851 317.101 340.569 318.366 340.569C318.729 340.569 319.066 340.599 319.377 340.657C319.693 340.716 319.995 340.815 320.282 340.956C320.569 341.097 320.812 341.275 321.012 341.492C321.211 341.709 321.369 341.987 321.486 342.327C321.609 342.661 321.671 343.042 321.671 343.47V347.926C321.671 348.324 321.738 348.605 321.873 348.77C322.008 348.928 322.289 348.983 322.717 348.937V349.947C322.43 350.041 322.148 350.088 321.873 350.088C321.41 350.088 321.053 350.003 320.801 349.833C320.549 349.657 320.361 349.329 320.238 348.849H320.203C319.57 349.786 318.53 350.255 317.083 350.255C316.163 350.255 315.428 350.015 314.877 349.534C314.332 349.054 314.06 348.424 314.06 347.645C314.06 347.234 314.121 346.874 314.244 346.563C314.373 346.253 314.54 345.995 314.745 345.79C314.95 345.585 315.231 345.403 315.589 345.245C315.946 345.081 316.304 344.952 316.661 344.858C317.019 344.765 317.461 344.668 317.988 344.568C318.844 344.41 319.433 344.243 319.755 344.067C320.077 343.892 320.238 343.59 320.238 343.162ZM317.232 348.989C318.141 348.989 318.867 348.778 319.412 348.356C319.963 347.935 320.238 347.302 320.238 346.458V344.92C320.004 345.154 319.295 345.395 318.111 345.641C317.18 345.84 316.512 346.08 316.107 346.361C315.703 346.643 315.501 347.047 315.501 347.574C315.501 348.518 316.078 348.989 317.232 348.989ZM327.524 344.542C327.595 344.56 327.706 344.586 327.858 344.621C328.269 344.721 328.579 344.8 328.79 344.858C329.007 344.917 329.282 345.022 329.616 345.175C329.95 345.321 330.199 345.485 330.363 345.667C330.533 345.843 330.683 346.089 330.812 346.405C330.946 346.716 331.014 347.073 331.014 347.478C331.014 348.304 330.674 348.975 329.994 349.49C329.314 350 328.447 350.255 327.393 350.255C326.039 350.255 325.014 349.962 324.316 349.376C323.619 348.784 323.247 347.973 323.2 346.941H324.642C324.659 347.176 324.691 347.381 324.738 347.557C324.785 347.727 324.867 347.908 324.984 348.102C325.107 348.295 325.263 348.453 325.45 348.576C325.644 348.693 325.904 348.793 326.232 348.875C326.561 348.951 326.947 348.989 327.393 348.989C328.107 348.989 328.649 348.843 329.019 348.55C329.388 348.257 329.572 347.932 329.572 347.574C329.572 347.41 329.552 347.261 329.511 347.126C329.47 346.991 329.42 346.877 329.361 346.783C329.309 346.689 329.227 346.604 329.115 346.528C329.004 346.446 328.901 346.382 328.808 346.335C328.72 346.282 328.591 346.232 328.421 346.186C328.251 346.133 328.11 346.095 327.999 346.071C327.894 346.042 327.735 346.004 327.524 345.957C327.319 345.91 327.161 345.872 327.05 345.843C326.938 345.813 326.754 345.772 326.496 345.72C326.244 345.667 326.045 345.623 325.898 345.588C325.758 345.553 325.57 345.497 325.336 345.421C325.102 345.345 324.914 345.269 324.773 345.192C324.633 345.116 324.475 345.014 324.299 344.885C324.129 344.756 323.997 344.615 323.903 344.463C323.81 344.311 323.728 344.126 323.657 343.909C323.593 343.687 323.561 343.443 323.561 343.18C323.561 342.436 323.871 341.814 324.492 341.316C325.113 340.818 325.948 340.569 326.997 340.569C328.093 340.569 328.957 340.842 329.59 341.387C330.223 341.926 330.577 342.614 330.653 343.452H329.212C329.177 343.282 329.136 343.136 329.089 343.013C329.048 342.884 328.975 342.74 328.869 342.582C328.764 342.424 328.635 342.295 328.482 342.195C328.336 342.09 328.134 342.002 327.876 341.932C327.624 341.861 327.331 341.826 326.997 341.826C326.37 341.826 325.881 341.943 325.529 342.178C325.178 342.406 325.002 342.705 325.002 343.074C325.002 343.25 325.037 343.405 325.107 343.54C325.184 343.675 325.266 343.783 325.354 343.865C325.447 343.947 325.594 344.026 325.793 344.103C325.998 344.179 326.162 344.234 326.285 344.27C326.414 344.299 326.622 344.346 326.909 344.41C327.196 344.469 327.401 344.513 327.524 344.542ZM336.911 340.569C337.339 340.569 337.734 340.631 338.098 340.754C338.461 340.871 338.786 341.05 339.073 341.29C339.36 341.524 339.583 341.841 339.741 342.239C339.905 342.632 339.987 343.083 339.987 343.593V350H338.546V343.953C338.546 343.314 338.385 342.802 338.062 342.415C337.74 342.022 337.236 341.826 336.551 341.826C335.748 341.826 335.095 342.058 334.591 342.521C334.093 342.978 333.844 343.563 333.844 344.278V350H332.411V337.133H333.844V341.914H333.888C334.169 341.533 334.562 341.214 335.065 340.956C335.575 340.698 336.19 340.569 336.911 340.569ZM346.271 340.569C346.846 340.569 347.385 340.681 347.889 340.903C348.393 341.126 348.829 341.442 349.198 341.853C349.573 342.263 349.869 342.775 350.086 343.391C350.303 344 350.411 344.674 350.411 345.412C350.411 346.15 350.303 346.827 350.086 347.442C349.869 348.052 349.573 348.562 349.198 348.972C348.829 349.382 348.393 349.698 347.889 349.921C347.385 350.144 346.846 350.255 346.271 350.255C345.059 350.255 344.101 349.792 343.397 348.866H343.354V350H341.921V337.133H343.354V342.011H343.397C344.048 341.05 345.006 340.569 346.271 340.569ZM346.131 348.989C346.734 348.989 347.256 348.813 347.695 348.462C348.135 348.11 348.457 347.671 348.662 347.144C348.867 346.61 348.97 346.033 348.97 345.412C348.97 344.791 348.867 344.214 348.662 343.681C348.457 343.147 348.135 342.705 347.695 342.354C347.256 342.002 346.734 341.826 346.131 341.826C345.281 341.826 344.604 342.151 344.101 342.802C343.603 343.452 343.354 344.322 343.354 345.412C343.354 346.496 343.603 347.363 344.101 348.014C344.599 348.664 345.275 348.989 346.131 348.989ZM355.843 350.255C357.22 350.255 358.31 349.81 359.112 348.919C359.921 348.028 360.325 346.859 360.325 345.412C360.325 343.965 359.921 342.796 359.112 341.905C358.31 341.015 357.22 340.569 355.843 340.569C354.46 340.569 353.364 341.015 352.556 341.905C351.747 342.79 351.343 343.959 351.343 345.412C351.343 346.865 351.747 348.037 352.556 348.928C353.364 349.812 354.46 350.255 355.843 350.255ZM355.843 348.989C354.853 348.989 354.094 348.652 353.566 347.979C353.045 347.305 352.784 346.449 352.784 345.412C352.784 344.375 353.045 343.52 353.566 342.846C354.094 342.166 354.853 341.826 355.843 341.826C356.821 341.826 357.571 342.166 358.093 342.846C358.62 343.52 358.884 344.375 358.884 345.412C358.884 346.449 358.62 347.305 358.093 347.979C357.571 348.652 356.821 348.989 355.843 348.989ZM367.4 343.162C367.4 342.271 366.776 341.826 365.528 341.826C364.667 341.826 364.061 341.964 363.709 342.239C363.357 342.515 363.158 342.989 363.111 343.663H361.67C361.717 342.72 362.054 341.97 362.681 341.413C363.313 340.851 364.263 340.569 365.528 340.569C365.892 340.569 366.229 340.599 366.539 340.657C366.855 340.716 367.157 340.815 367.444 340.956C367.731 341.097 367.975 341.275 368.174 341.492C368.373 341.709 368.531 341.987 368.648 342.327C368.771 342.661 368.833 343.042 368.833 343.47V347.926C368.833 348.324 368.9 348.605 369.035 348.77C369.17 348.928 369.451 348.983 369.879 348.937V349.947C369.592 350.041 369.311 350.088 369.035 350.088C368.572 350.088 368.215 350.003 367.963 349.833C367.711 349.657 367.523 349.329 367.4 348.849H367.365C366.732 349.786 365.692 350.255 364.245 350.255C363.325 350.255 362.59 350.015 362.039 349.534C361.494 349.054 361.222 348.424 361.222 347.645C361.222 347.234 361.283 346.874 361.406 346.563C361.535 346.253 361.702 345.995 361.907 345.79C362.112 345.585 362.394 345.403 362.751 345.245C363.108 345.081 363.466 344.952 363.823 344.858C364.181 344.765 364.623 344.668 365.15 344.568C366.006 344.41 366.595 344.243 366.917 344.067C367.239 343.892 367.4 343.59 367.4 343.162ZM364.395 348.989C365.303 348.989 366.029 348.778 366.574 348.356C367.125 347.935 367.4 347.302 367.4 346.458V344.92C367.166 345.154 366.457 345.395 365.273 345.641C364.342 345.84 363.674 346.08 363.27 346.361C362.865 346.643 362.663 347.047 362.663 347.574C362.663 348.518 363.24 348.989 364.395 348.989ZM374.968 340.569C375.278 340.569 375.562 340.587 375.82 340.622V342.063H375.785C374.807 341.905 373.995 342.125 373.351 342.723C372.712 343.314 372.393 344.108 372.393 345.104V350H370.96V340.824H372.393V342.635H372.437C372.7 341.979 373.031 341.472 373.43 341.114C373.834 340.751 374.347 340.569 374.968 340.569ZM383.291 337.133H384.732V350H383.291V348.866H383.256C382.553 349.792 381.592 350.255 380.373 350.255C379.799 350.255 379.26 350.144 378.756 349.921C378.252 349.698 377.812 349.382 377.438 348.972C377.068 348.562 376.775 348.052 376.559 347.442C376.342 346.827 376.233 346.15 376.233 345.412C376.233 344.674 376.342 344 376.559 343.391C376.775 342.775 377.068 342.263 377.438 341.853C377.812 341.442 378.252 341.126 378.756 340.903C379.26 340.681 379.799 340.569 380.373 340.569C381.645 340.569 382.605 341.05 383.256 342.011H383.291V337.133ZM380.522 348.989C381.372 348.989 382.046 348.667 382.544 348.022C383.042 347.372 383.291 346.502 383.291 345.412C383.291 344.322 383.042 343.452 382.544 342.802C382.046 342.151 381.372 341.826 380.522 341.826C380.065 341.826 379.652 341.929 379.283 342.134C378.914 342.333 378.615 342.603 378.387 342.942C378.158 343.282 377.982 343.666 377.859 344.094C377.736 344.516 377.675 344.955 377.675 345.412C377.675 346.033 377.777 346.61 377.982 347.144C378.188 347.671 378.51 348.11 378.949 348.462C379.395 348.813 379.919 348.989 380.522 348.989Z" fill="white"/>
<path d="M343.631 667.477C343.49 666.727 343.295 666.023 343.045 665.367C342.795 664.695 342.42 664.016 341.92 663.328C341.435 662.625 340.865 662.031 340.209 661.547C339.568 661.047 338.748 660.641 337.748 660.328C336.748 660.016 335.638 659.859 334.42 659.859C332.982 659.859 331.678 660.094 330.506 660.562C329.349 661.031 328.373 661.672 327.576 662.484C326.795 663.281 326.138 664.234 325.607 665.344C325.076 666.453 324.685 667.633 324.435 668.883C324.201 670.117 324.084 671.43 324.084 672.82C324.084 674.586 324.279 676.227 324.67 677.742C325.076 679.258 325.678 680.633 326.474 681.867C327.271 683.102 328.349 684.07 329.709 684.773C331.068 685.477 332.638 685.828 334.42 685.828C335.951 685.828 337.303 685.594 338.474 685.125C339.646 684.656 340.584 684.016 341.287 683.203C341.99 682.375 342.529 681.492 342.904 680.555C343.295 679.602 343.537 678.57 343.631 677.461H349.349C348.959 681.43 347.459 684.633 344.849 687.07C342.256 689.508 338.826 690.727 334.56 690.727C331.326 690.727 328.474 689.953 326.006 688.406C323.553 686.859 321.678 684.742 320.381 682.055C319.084 679.352 318.435 676.273 318.435 672.82C318.435 670.258 318.81 667.883 319.56 665.695C320.326 663.492 321.396 661.602 322.771 660.023C324.146 658.445 325.849 657.211 327.881 656.32C329.912 655.414 332.138 654.961 334.56 654.961C336.685 654.961 338.631 655.289 340.396 655.945C342.178 656.586 343.685 657.477 344.92 658.617C346.154 659.742 347.146 661.062 347.896 662.578C348.662 664.078 349.146 665.711 349.349 667.477H343.631ZM354.225 687.164C356.444 689.539 359.452 690.727 363.249 690.727C367.046 690.727 370.053 689.539 372.272 687.164C374.491 684.773 375.6 681.641 375.6 677.766C375.6 673.891 374.491 670.766 372.272 668.391C370.053 666 367.046 664.805 363.249 664.805C359.452 664.805 356.444 666 354.225 668.391C352.022 670.766 350.921 673.891 350.921 677.766C350.921 681.641 352.022 684.773 354.225 687.164ZM368.639 684.141C367.374 685.781 365.577 686.602 363.249 686.602C360.921 686.602 359.124 685.781 357.858 684.141C356.593 682.5 355.96 680.375 355.96 677.766C355.96 675.125 356.593 672.992 357.858 671.367C359.124 669.742 360.921 668.93 363.249 668.93C365.577 668.93 367.374 669.75 368.639 671.391C369.921 673.016 370.561 675.141 370.561 677.766C370.561 680.375 369.921 682.5 368.639 684.141ZM405.179 664.805C407.633 664.805 409.492 665.516 410.758 666.938C412.039 668.359 412.679 670.398 412.679 673.055V690H407.593V674.484C407.593 672.656 407.304 671.297 406.726 670.406C406.164 669.516 405.078 669.07 403.468 669.07C401.765 669.07 400.414 669.617 399.414 670.711C398.429 671.789 397.937 673.242 397.937 675.07V690H392.851V674.484C392.851 672.656 392.562 671.297 391.984 670.406C391.422 669.516 390.32 669.07 388.679 669.07C387.008 669.07 385.664 669.617 384.648 670.711C383.648 671.789 383.148 673.242 383.148 675.07V690H378.109V665.461H383.148V668.648H383.265C384.984 666.086 387.414 664.805 390.554 664.805C393.836 664.805 396.008 666.211 397.07 669.023H397.164C399.351 666.211 402.023 664.805 405.179 664.805ZM419.219 661.336C418.469 661.336 417.805 661.094 417.227 660.609C416.665 660.125 416.383 659.477 416.383 658.664C416.383 657.852 416.665 657.211 417.227 656.742C417.805 656.258 418.469 656.016 419.219 656.016C420.016 656.016 420.696 656.25 421.258 656.719C421.821 657.188 422.102 657.836 422.102 658.664C422.102 659.492 421.813 660.148 421.235 660.633C420.673 661.102 420.001 661.336 419.219 661.336ZM416.735 665.461H421.774V690H416.735V665.461ZM439.142 664.805C441.548 664.805 443.509 665.508 445.025 666.914C446.541 668.305 447.298 670.352 447.298 673.055V690H442.213V674.484C442.213 670.875 440.595 669.07 437.361 669.07C435.408 669.07 433.853 669.617 432.697 670.711C431.541 671.789 430.963 673.242 430.963 675.07V690H425.923V665.461H430.963V668.648H431.08C431.814 667.555 432.853 666.641 434.197 665.906C435.556 665.172 437.205 664.805 439.142 664.805ZM467.924 665.461H472.963V688.312C472.963 691.75 471.987 694.305 470.034 695.977C468.081 697.648 465.315 698.484 461.737 698.484C458.378 698.484 455.698 697.734 453.698 696.234C451.698 694.734 450.557 692.883 450.276 690.68H455.362C455.909 693.195 457.971 694.453 461.549 694.453C463.69 694.453 465.284 693.938 466.331 692.906C467.393 691.891 467.924 690.297 467.924 688.125V685.148H467.831C466.112 687.586 463.635 688.805 460.401 688.805C457.229 688.805 454.643 687.75 452.643 685.641C450.643 683.516 449.643 680.57 449.643 676.805C449.643 673.023 450.643 670.078 452.643 667.969C454.643 665.859 457.229 664.805 460.401 664.805C463.604 664.805 466.081 665.984 467.831 668.344H467.924V665.461ZM461.362 684.68C463.424 684.68 465.026 684.008 466.167 682.664C467.307 681.32 467.878 679.367 467.878 676.805C467.878 674.242 467.307 672.289 466.167 670.945C465.026 669.602 463.424 668.93 461.362 668.93C459.221 668.93 457.573 669.656 456.417 671.109C455.26 672.547 454.682 674.445 454.682 676.805C454.682 679.148 455.26 681.047 456.417 682.5C457.573 683.953 459.221 684.68 461.362 684.68ZM498.512 669.562C500.356 670.031 501.762 670.414 502.731 670.711C503.715 671.008 504.856 671.461 506.153 672.07C507.45 672.664 508.418 673.312 509.059 674.016C509.7 674.703 510.254 675.617 510.723 676.758C511.192 677.883 511.426 679.195 511.426 680.695C511.426 683.586 510.325 685.984 508.122 687.891C505.934 689.781 502.778 690.727 498.653 690.727C495.84 690.727 493.317 690.266 491.083 689.344C488.864 688.406 487.075 687.016 485.715 685.172C484.372 683.312 483.645 681.117 483.536 678.586H489.254C489.395 680.852 490.247 682.625 491.809 683.906C493.387 685.188 495.668 685.828 498.653 685.828C501.043 685.828 502.817 685.375 503.973 684.469C505.129 683.547 505.708 682.367 505.708 680.93C505.708 680.523 505.684 680.148 505.637 679.805C505.59 679.461 505.489 679.141 505.333 678.844C505.192 678.547 505.051 678.281 504.911 678.047C504.77 677.812 504.543 677.586 504.231 677.367C503.918 677.133 503.645 676.938 503.411 676.781C503.176 676.609 502.817 676.43 502.333 676.242C501.848 676.055 501.434 675.906 501.09 675.797C500.762 675.672 500.262 675.516 499.59 675.328C498.934 675.141 498.379 674.992 497.926 674.883C497.489 674.758 496.848 674.594 496.004 674.391C495.129 674.172 494.356 673.961 493.684 673.758C493.012 673.555 492.27 673.297 491.458 672.984C490.645 672.656 489.934 672.32 489.325 671.977C488.731 671.633 488.137 671.211 487.543 670.711C486.95 670.195 486.465 669.648 486.09 669.07C485.715 668.477 485.411 667.789 485.176 667.008C484.942 666.211 484.825 665.359 484.825 664.453C484.825 661.438 485.911 659.102 488.083 657.445C490.254 655.789 493.231 654.961 497.012 654.961C500.872 654.961 504.028 655.93 506.481 657.867C508.934 659.789 510.278 662.484 510.512 665.953H504.793C504.247 661.891 501.653 659.859 497.012 659.859C494.965 659.859 493.364 660.219 492.208 660.938C491.067 661.656 490.497 662.656 490.497 663.938C490.497 665.594 491.2 666.828 492.606 667.641C493.481 668.156 495.161 668.727 497.645 669.352H497.668H497.692L497.715 669.375H497.739H497.762H497.786L497.809 669.398H497.833H497.856H497.879L497.903 669.422H497.926H497.95H497.973L497.997 669.445H498.02H498.043H498.09L498.114 669.469H498.137H498.161H498.184L498.208 669.492H498.231H498.254H498.278L498.301 669.516H498.325H498.348H498.372L498.395 669.539H498.418H498.442H498.465L498.489 669.562H498.512ZM516.49 687.164C518.708 689.539 521.716 690.727 525.513 690.727C529.31 690.727 532.318 689.539 534.537 687.164C536.755 684.773 537.865 681.641 537.865 677.766C537.865 673.891 536.755 670.766 534.537 668.391C532.318 666 529.31 664.805 525.513 664.805C521.716 664.805 518.708 666 516.49 668.391C514.287 670.766 513.185 673.891 513.185 677.766C513.185 681.641 514.287 684.773 516.49 687.164ZM530.904 684.141C529.638 685.781 527.841 686.602 525.513 686.602C523.185 686.602 521.388 685.781 520.123 684.141C518.857 682.5 518.224 680.375 518.224 677.766C518.224 675.125 518.857 672.992 520.123 671.367C521.388 669.742 523.185 668.93 525.513 668.93C527.841 668.93 529.638 669.75 530.904 671.391C532.185 673.016 532.826 675.141 532.826 677.766C532.826 680.375 532.185 682.5 530.904 684.141ZM542.389 687.164C544.608 689.539 547.616 690.727 551.413 690.727C555.209 690.727 558.217 689.539 560.436 687.164C562.655 684.773 563.764 681.641 563.764 677.766C563.764 673.891 562.655 670.766 560.436 668.391C558.217 666 555.209 664.805 551.413 664.805C547.616 664.805 544.608 666 542.389 668.391C540.186 670.766 539.084 673.891 539.084 677.766C539.084 681.641 540.186 684.773 542.389 687.164ZM556.803 684.141C555.538 685.781 553.741 686.602 551.413 686.602C549.084 686.602 547.288 685.781 546.022 684.141C544.756 682.5 544.123 680.375 544.123 677.766C544.123 675.125 544.756 672.992 546.022 671.367C547.288 669.742 549.084 668.93 551.413 668.93C553.741 668.93 555.538 669.75 556.803 671.391C558.084 673.016 558.725 675.141 558.725 677.766C558.725 680.375 558.084 682.5 556.803 684.141ZM579.492 664.805C581.898 664.805 583.859 665.508 585.374 666.914C586.89 668.305 587.648 670.352 587.648 673.055V690H582.562V674.484C582.562 670.875 580.945 669.07 577.71 669.07C575.757 669.07 574.203 669.617 573.046 670.711C571.89 671.789 571.312 673.242 571.312 675.07V690H566.273V665.461H571.312V668.648H571.429C572.163 667.555 573.203 666.641 574.546 665.906C575.906 665.172 577.554 664.805 579.492 664.805ZM593.93 690.375C593.024 690.375 592.274 690.094 591.68 689.531C591.102 688.953 590.813 688.195 590.813 687.258C590.813 686.336 591.102 685.586 591.68 685.008C592.274 684.43 593.024 684.141 593.93 684.141C594.805 684.141 595.532 684.43 596.11 685.008C596.703 685.586 597 686.336 597 687.258C597 688.195 596.711 688.953 596.133 689.531C595.555 690.094 594.821 690.375 593.93 690.375ZM603.048 690.375C602.142 690.375 601.392 690.094 600.798 689.531C600.22 688.953 599.931 688.195 599.931 687.258C599.931 686.336 600.22 685.586 600.798 685.008C601.392 684.43 602.142 684.141 603.048 684.141C603.923 684.141 604.65 684.43 605.228 685.008C605.822 685.586 606.118 686.336 606.118 687.258C606.118 688.195 605.829 688.953 605.251 689.531C604.673 690.094 603.939 690.375 603.048 690.375ZM612.166 690.375C611.26 690.375 610.51 690.094 609.916 689.531C609.338 688.953 609.049 688.195 609.049 687.258C609.049 686.336 609.338 685.586 609.916 685.008C610.51 684.43 611.26 684.141 612.166 684.141C613.041 684.141 613.768 684.43 614.346 685.008C614.94 685.586 615.237 686.336 615.237 687.258C615.237 688.195 614.948 688.953 614.369 689.531C613.791 690.094 613.057 690.375 612.166 690.375Z" fill="white" fill-opacity="0.9"/>
<g clip-path="url(#clip1_710_1481)">
<rect width="934" height="1181" rx="32" fill="#121213" fill-opacity="0.6"/>
</g>
</g>
<defs>
<clipPath id="clip0_710_1481">
<rect width="934" height="1181" rx="32" fill="white"/>
</clipPath>
<clipPath id="clip1_710_1481">
<rect width="934" height="1181" rx="32" fill="white"/>
</clipPath>
</defs>
</svg>
